<mxfile host="app.diagrams.net" modified="2023-12-11T11:12:11.006Z" agent="Mozilla/5.0 (Windows NT 10.0; Win64; x64) AppleWebKit/537.36 (KHTML, like Gecko) Chrome/119.0.0.0 Safari/537.36 OPR/105.0.0.0" etag="XprXHbTicxClp_ImTMUa" version="22.1.7" type="github" pages="4">
  <diagram name="ProgramaciÃ³n" id="oDZthETsX2DHlRWc-pWi">
    <mxGraphModel dx="826" dy="437" grid="1" gridSize="10" guides="1" tooltips="1" connect="1" arrows="1" fold="1" page="1" pageScale="1" pageWidth="827" pageHeight="1169" math="0" shadow="0">
      <root>
        <mxCell id="0" />
        <mxCell id="1" parent="0" />
        <mxCell id="3Qd0KYtifg4g1R91uSdj-1" value="" style="shape=datastore;whiteSpace=wrap;html=1;" parent="1" vertex="1">
          <mxGeometry x="555.46" y="100" width="60" height="60" as="geometry" />
        </mxCell>
        <mxCell id="3Qd0KYtifg4g1R91uSdj-2" value="" style="shape=image;verticalLabelPosition=bottom;labelBackgroundColor=default;verticalAlign=top;aspect=fixed;imageAspect=0;image=data:image/png,iVBORw0KGgoAAAANSUhEUgAAAXMAAACICAMAAAAiRvvOAAABX1BMVEX///8jHyAAAAAWEBIeGhvW1tYhHB4OBQh6eXmenZ709PQZFBU8OjtraWkbFhf8/Pzo6OgtKirw8PDe3d12dHWSkZHj4+PQ0NARCgwMAAVMSkqysbHP09mgn5++vb0qJierqqpWVFQ5NjfHx8e6wMhgXl+CgYG3vcaPnKjX2+CLiYrL0Nacp7KXo67IAADPAADhAAD98/LwXExlY2Sqs72nAADnwMayABm2AAC9ACT56+3EAAnqys/kcHPwpab639+oBDPoRzrnPzKiAADhHR/uZ1vxaFq5jp3hs7ucEjqvnanSjJjBS2C7Ij7NbHnhpKu7tL3Zk5zEP1LahY7IqrLDACTSWGPNLj7JABvMPErjnKHms7jVaHLDGzW6ABHaPETigYfeVlyxAC3rlZbPdYKsABziNTnfJCnjTlLuiIa+WW3lJxvtfHbIeonzsa6zPlbxjYb4wr3vdmvLS1vjvcRJ5d7uAAAWBklEQVR4nO1d+V/TytpPp2lD09IJKU330n2hbC1VsCC1Fb2e16Nc9eKGC4qI54Ac4J7///POM5O1a4qXo2K+P9DJZDKdfvPMs80kcJwDBw4cOHDgwIEDBw4cOHDgwIEDBw4cOHDgwIEDBw4cOHDgwIEDB9cB4vcewK8GXK3VHNL/SSiFgsyJ1e89jF8HYq1ZxVCofe+R/CpQyk1Nvmv4u47kV0F1oSkZB8p3HMmvguTigplm2VEuVw1lsdIsNAu1qqzplJr8XQd0/dGsLMrVGiclC2UgXhIxV3U8l6sEXqwsEvEuUHUiStVkrVZLVpOOi36F+FelQhVJ2dDhWJSSjqBfIR789n/0Ezd10nG1KjuCfpV4eOPR15t1wrQq6ST4lxx38Yrx8MbvhzcePd75z7+T5EiqURGXq46gXyUerm22nzxdf7dx67/PnvwnxCoVR9CvFE/Wb3Jc69Hem92NpaWN3efPdjZbWPruCQCcTlzjOGFnfYfjXrUI8Zuv37zY2Hi5sbHx6s3rvfakvHsipumhRGDOhFHocoPyIIQSl7v0p8De+h6380w/evn8wwsi8kToCfM3W/b7CaA548CLpsnfIkpfbkyuOUUEOb+2hmVvvd1aUsv7u632PofbewfPd5eIxL97+2Zn0143cR7ltXIa+WfJB76kmIdQCj5kV5geipFL9vMD4/US92IPCpsbz8nfZbW6vrnz5u2t3d13a7/vtMf3Eo/PZbVyID43+w0DijDFoiAffOQzeY/vG3r7MfHm+evb5GN/+QCO3t80zhBV8+LVu3dr7z5+HSfu8YBPU98elEAWziWPli3Gilqh9J/TKy2cSxGfZ5XLTPyjfnTs7i9z+MMyI/v2gVpbP1h63rq5z7X23txaW1v7+HWktMdzIppixWIQU87DiNKZcROT6AWNE8kgFCEVPKmIZuCcFCfFOJQSUCmQSok0FhDC7COU5nwZH3f9LGp7afv8y4oqyQcf6Ac+WH5PavZf04Obnw7XDtf+ejC8j/gMN4uo0VNQysz5NCrmQ/ksJpyHo5lUiCuxCgTaeiaaDqWh7bxeKabm0Wwmw6XCaDqTkiNyWAlfQznnbh8dbWtSvPWZ/l1ePoXPl7pOufnnjcPDj0+G+ZCE8xBTwCWERYPzNCqpLdIIgTMSoT4Nx2XJWQ+zlqCOtEqF6iYoS6w7X5pLpK+fFeXay0dHH7YY61vbxJp+Xrldh4PNpbrRqv7kzsfDw53BXRDOuaxACiIh2cR5HGkt0mgePmYRC3cihNKQpvenmBqilT02FCfS15FyjvtytH18vNL947zOnW7jk5Xtc1b/5pWlWevPwzuHd24O6IByngeyfIQ+g3OsCjAHnFN3Pedmh7RNHGU9cBBQnXva3Mr5tcXpytbBl+Pt7e3jk5NO5/hE1SD15dd6k9aDx4c3Hn/97bfDu38OUDDAOZfLcVxslTNxLuuqhXBOHfi5ADuk9OISQlki4q642ggVfxnO2ytEsOvnJ91up9PpnmnV+8tqJLr57NH62iei2+884B7ePbzT7zlSzhPIkwDPxOBcNMs55TwXZYeqmyOXEE/k3GWq/EU4546pxeTwaadBSO+cUkmur1AfZnN/d33tGaX560fyp/XX4d0+D4ZyzqGpLIixSZ/PCFoLlfMppKiHqgMYJvVaJdVOvwrn95hX3rrXadwDUe8eENb/IP5j+9nLpY3Hqlxv3v2bfu4c3n3Y0wHj3Ieo0jZxnmHijLHGuQfReBXnBMxRa5ohMyPEnHQOKjXOJUMtXU+cUH3S7jROO+d4i0h6d/u0vfJ57/3y8qs9TX3XD/9SS+07d79aO4hTKygiF/sw/PMiimfSYaRzTu7LTCqd4kEH5f2ptA/laOUcKXqhUuOccwupzHXO5R8A5+fde/XzDlHhlPXt7aOjleV9U/T59IZ+gP/qkfTpIv2Yz8BfMQBuYSrA4tAZhIIkAMrnIqxpHoLPaWBTypLSlGit5Dw5lo/0kAuvpZeoAjg/B+N5cY9VbHW7JFDaMnson26YaX7cr9OHAff5OXhAifvuSyX/MLbOuNMusaP1BjOm7YtO54gESiYe9tafWi75etdGutHBcJxtnXYhDjoF1UIYJz5j9+Tz9vZnfdmi/e5W3XoNdWIcXBon9zpUau8R9dI663RODjodDt9eOTpSSa+/Xe8T60+f/tlBXjPcb1BuzxttvNVoXLRx4xgoPj/WSP/vuiUOam3+/eDh17u9sZGSmYrn5mZy2dlUnhsEnE/NZnMzc7lsKTPIPmKFQBpwog8R32x8ZmYmUCxlPHba/3CodxpnoDkuzs7vNy4Ikxddptdb77dpnvHZupplwZsPHv555+7dwz8f/t0r+IkcEtw87/XyQbeAWErLgjTxUwR3UGvBh/tW92H5GY1fZMLhKPsqnnYUvOTC63fFeafRaLS58/sXjfug1rc6J9qp28vPwX5u0tW6x4Ttux//3Nms9/eh5BDvMoGf62mQiaKguYHLK6D5HmfFg1wu99S44aaR4DV3JPTf3h8fZ2dnjfuN83v379Oov925Z5zbX9ppLe3d/PRoff3GjacP/x6yGSDNCOXdQoyIMqGEn7GcJ7eE8RSEFlE/OxD4iKWVLc5LrKdgVBCIsJNS9CfkHB+DjBNQBUMcxoZZjvd3X9zafbe+/vThzQHirSJPeXCjeCmVSpWKAnJbOVdviR+hbMmXSs2vulAUruBRxtzMDufzCHqKoeJ8KuWbIrFU8Gfk/LRD/mw17l+ww4uOLsv45v7nl7svN148G6RODIh0sqNZ3fx5pswbXrgEvSVBVDRMayiMokCetlbELhvPeR7RW5XStBImVuIn5JwYzPpFg6p0goOuahxbWx9WlpeXdt/sjd1cVAL6rHuIpFWjnKaiKQSsrgpmSsK8Z8sG5y4ebIXFt8mHx43vh8Npl2t3Lxpn7Q7LulDK21tfVgjjX17biTYxcGrVEmYolPIBeUKmkZCRyRrPORVz9NPnvo7Pt1bOz4jZPGsQroHy9lbj+Hhl+/beSIViAOS4x2aaEQBdjgYJo4cqipzleDTnU27S4qfP8v7x5aJRP+gQ/dg+rtc7rfrp/W73uPvHpmw76xSOjnIeMkBsbDBPVOsYKn085zmiWlBkVIufAO2VlQPu4JhKdKN9f+ui2+02DkCjyLY3JM+6rWrZAhwjCiQYGHGpV9Du7njO6T2yFan+wPj8uc0dbDMlctLoEMLVXRcTcD5NiBOGcZ4ZqYFFiyn4qTnHks2dxLc/wJ4ioLy11eh2OwdtWbtStq1cqJIdpltm+JE8zhO9xGuzYDznbjJp0OBkjg5PuBiYmwus+ix+khwiYFvNfNPFWR+mFf1ZH1pt3FWcLsVnXDPxqYSFUePa/PzqaikNu1nT+czogTHsbXPc+/ekcH7v+Pj45BwTnkX1ftnnPBUbbkNDYxwNxXx+POfZ4Dgbmg8gwQ85Hb+A4qb8VxhyOcQS4Fly3u9GYggqUN9vnIZa/a6GowgyRHzQjVDJ1HYONl3CiHMo6vejLCdFwumSbCPz016ut7f3ufrB0crK5y14iA6ebMFMq4i2OWe8Dv4+n0C0eXzgKQawirA7FDCec+jOhYZrPVw0p32CJm8JrkQeTpyjoZgLiVycH2CGwO/Vc0Ue3pzZicaMWxjgXV66j4p+W7DIJbhwft7Gzsr6Untnea91e2Vl5TbLy4rsaSIMCsY+51R/eKMD1SwIZmzUUEC5uNVtMOM5l+D2+rPDTstzbvA+BZBVmlwwogKV84Df5fW7/TzhPEH6CvZ2BZWxlFbmaUYD4IesnOExMc5B2Hi3O+gvcmluPp0Yzzl+u/P8xevby8tHB9oNFPWt4jIWZdtPl1CXjw8OymTTKTBqLdns3NuIQ6dATKPZwUMT+SAwE094ZDkS9kbN9plyHkohl+AulqZzZK6wUK5nzoCMqHX0V/nRbFqSlfQs8O/VWzPOAzyPZmanitEsJyYyXHj8MyGvXr3dfbWx/OFBldMWCmST8ZDtc86tCjQL0r8NiMpldNSEYQqdlW1wLvIge35+oB2NEynno/qpKTOplPOIm1ejgYjIHNVYytIDjNc/bQwsltUYUXJE1N3atADOc3nkVnczkK9UEvn02MDhv7tvb+0uvWnjKryKi9Fi4lyehHMuzhJWgd4bHUGWQHMARJP7ZyevqNAJ70Wz/aPzwZfxJsGFSaH1B5z7Z93INBnp4KyRA7sztJgjEi9MG6fwnCkeA84DxWh8st0KT2+93X253+K4KvCtPooraQMmyly0629SZBEzWj1UwPz0F0deCXpX1T628udSEHQ2UbOpnhNyv4vk9VJrCaDW12+19GCHrBeQGlXRQVxhDeUg1+NXU3cB0DR+96SU31p7Bn65mIQvxVWQNKyw8VHPZTLOiS/GMyosCiYjjM8UeqlxA9hbJ8Ls/rrQnNVVghREzKre4OtV14Rxbr39UCeYr/AYFpRKtdUtiIOuZzQD58Nj78HDfrp26xNL0arvbJGrQLMCPWKZei/yZJxzkRmBUTFjUmuZ2Nic1NyknIMM+umqFCqaLaDf6/LGrJJH1TNbYGVeZqTvtEXzldyaAQChdvcszaYEPSCjct67/DgSrUc3Hv+bvc5C1l7ZIlVFTlbARVeFXZ74KfSwRoVBm13OJ9AtdGxFbVYZokYv7v0q0rlKKnDuDfacpl6KyQYRd1y1oJT9HpsI3xBlHj9wHp0kb9++8XtLZG8o4pL6G1sI6YokSoomOpNzzkkqFbGc1klG0AVtGGD1VFWqtjkncjijKhjdyvkMKTSQ1dWBb5CWA3NjyojCoWZBiZH097SWDdkHzsflIMz4GzbtSwV4gwin1Iw3E8lV2F2iEy1d5m0L+bkYW2lWhWdg3GGFKbKcgHMy09msimm+A81uKqIFeNqvaWXgvC84w0SwTcK/6nfx7PkDGo5msbU32fgxlHP7b4J4Qvd6KlTOsekluaJUrSomFS5dLn03Txd/+Bi7GtTiaL0nT+afm69ktjSq3lJm1nrg10MyOg368hMWFSIaFlRhy649MFZY4MsE2zL5L9UrLBTI36om5pgQTiiXqgbRl+SciwiwLhTMGWNHo4yxx+QkT8Y5c8hJ90w5BC2bXkwwcd4XtFi+kXo5xowbCNWTBP/crgnFTfX3i+UCsZkF+rpWQngyWZXAdSFFdcZge5vYBkCeoYtxTGBQv7dghdmbnJRztjyqkkqL3gEwcd6fnSAOuVd7oJL4gqoFpeHSwN6CBufDVyMtwAu6yBUKVa5GxJywDG/5k9XgSGf98pxzImS5VQsEPu1IA081rup9TMw5I51dAiXvIJpGcg55aNUYKoYFVTkf0Bs/Ked40fRy3HKhWqgpyQJhnFpLUX//mSwR11xULv+yoLQh3RCojAr+wYrpscfknFPLycwBjTmHNxzCuWwkWMhQ9VWAcSOxz/mC+YW4BYak5p4opvf8YVGWvoFz6nMzaxQao1wSaKJ1oj4oeuJyjCsxhHOu6Ne8SRJ56mEsdBsckbOwzXlh0ShLyTIhvGr4g9jyPksSGSmThaEWmLZEwJrECG+ROgBa5uQSnEP0yfwRWJUdRKqKYZxTnxyuB3Wi3zM8evuIbc6VisqqWC00m2WCgulsNWnICAmOVO1+SUCUrHKeGLGIxM56db/mMpzT1R7ofqADbmAY53DTaBqGyInfSCPmRs8au5wvVuCvVGsuNmsKFpuFgol0XEtqRRmkH3/T+4rpjhfVcoKe9QqDJ40Mzrygm9jLcK7veMmPDr+Gcg4LVXQFw2vWgVOj9o/Y5rxaKYjJZgX4hsNyE2Mi6Zow07eIciDiTMHL1W/Z0bBqckbYcsvgJVHY4uU1MqKX4dxIv49ekhrKOVgclIFhmvfMp/tz65aB2+O8WSHyrRNZW4A8Yhm8dIBYo+ZVSmomVanaN6F9igNbMtlFtylatDSLu616ZyznYl+Kgwa6PC2CCzN8qXQo58AfmR9ETMxpXeZPDRV0m5wvVkzqW1qkjOBCuUxvQ5LcDZE46vo9qSbtq/N4tmdOwMQ0HEQcpEu5ud6JE5qhlJtSgeM579v3TLcNMOXEXKTeWCBlXpsbyDkNP2GWWOLlsDBg2oha7zY5r1QW9DJe0LR3slwmRRKQKrWC2YpO8lbuooBK5tWWUo/ZZMtpPAqbf5M0RWsFs0M2MB1rhogEf8rUi8xmilozG+25h+Q+xNFYziHNIiQEswXlVEH3WnOHCcG8HmqD8wX1jeeActkYNrGkUg0cdbMykZITqPNiEB6x8EVkYnrlSDhIl+bNXIbc9DGLKJpOhESMSaNUFtEVNrRq7gg49+amrVjNGA0IPd4YWs14oBcpPUUf39CX9rGL3sUZbcuVmM6i4HjOIRTms3xvbpaGuF60qtlVxTeH3Nqvssl5oVJpqsXkgvlEjXrqVlWSnOSfchVpUktAKBqMqvtKogFLf1KOrSH5EULuYAyhGHv8qEcT0MyS12+FuQ1dsHb5BegFunJZBVubUCgwWyqt5hAyNk6M4hzY5fvdcZZB86NgtlSayrqQwBt+kU3OxUqlwjSAXDEIkWvEUydavWaRa5PnaANxQcu6qak9Lyr2WoN5RhDNYaiFIMr1cDAwmxe1cB7s6SVouW2Km+3S4v1ut5/uDxA0r2gE5zSu6t11wcESIF2B8QbdbvpcmmkFzK5/TgS9QqW3ovFLfMeFZkEplKtSrVw2vfpcqk3yKENoFSG/nkn1uhE/wN5L00gwpVv5GIr3+Tse5O+HhdR0AAnGI498FMV7HpiZRVF985yXTCv9Yh/pexjnYQQ7GPsdNU/A9Lt4N8rp2icX9btdY4nhqEY3/m8IEM6cR6kJDg0mRrSgOYjJwmRBqJyZ9sJbKWlif3pI0ClniqBbBDr/i4NezhIqTvfDrM+hjS8b074qN99PojI/p53mpxPGz0isTk8Xh3jvCnzvwI3F+VVB/7KSKWs0CyMb3JkVeBFIl0CZi8mFSlMV7KaWU+dkJVmrkSgUFyZRLdrFkXQikY6Mtr0KaQS7GIKrI5uNBpbyiUwi7xlmcqR8OjN2JLa/LDT6y8ZeD5K+wOHkwmLBFB1Z3UJRrhYK/5vxDoZCA/7RG42uE8pEpzfLZidFXihYWohKjbiOVzoI6oXFvkXSfy5UCekLZmvRXDDfACriuHzFDwOy511s6cNrAQzuS1lnvaYHSlgibiNV8Ur5ql/UFKakT5jN+pkhUgWjphHVnLpYLS+UtUj0MhZ0QkwLfWH6NQeuEQ+mAv9FkSpzpbCwYApExeY3rBDZBUuU/IRP6n8DpAI4joVFMVnWMuoakjUu70spxMtOX52OwXNDn46+ziBhP5H2SqE3Uw5inhDFHIdzVyjwEnvY/5q/oXUQpGRhATyZck3RHtmSQN0kZDmTSGSu8n8zedh+tF+QdAAJPwvNRcp8VRHLINwZWU6nMv/E/8P61d5laQWWpWo1yXYwekQxJMuXDngdOHDgwIEDBw4cOHDgwIEDBw4cOHDgwIEDBw4cOHDgwIEDB/8T/D/4fDy/4T2+NwAAAABJRU5ErkJggg==;" parent="1" vertex="1">
          <mxGeometry x="550" y="170" width="70.93" height="26" as="geometry" />
        </mxCell>
        <mxCell id="3Qd0KYtifg4g1R91uSdj-3" value="" style="shape=image;verticalLabelPosition=bottom;labelBackgroundColor=default;verticalAlign=top;aspect=fixed;imageAspect=0;image=https://www.nosolousabilidad.com/articulos/img/icono_uso2.gif;" parent="1" vertex="1">
          <mxGeometry x="1130" y="79.99999999999994" width="250" height="191.67" as="geometry" />
        </mxCell>
        <mxCell id="3Qd0KYtifg4g1R91uSdj-5" value="" style="verticalLabelPosition=bottom;aspect=fixed;html=1;shape=mxgraph.salesforce.web;" parent="1" vertex="1">
          <mxGeometry x="30" y="100" width="101.27" height="80" as="geometry" />
        </mxCell>
        <UserObject label="INGRESO A LA WEB" treeRoot="1" id="3Qd0KYtifg4g1R91uSdj-6">
          <mxCell style="whiteSpace=wrap;html=1;align=center;treeFolding=1;treeMoving=1;newEdgeStyle={&quot;edgeStyle&quot;:&quot;elbowEdgeStyle&quot;,&quot;startArrow&quot;:&quot;none&quot;,&quot;endArrow&quot;:&quot;none&quot;};" parent="1" vertex="1">
            <mxGeometry x="260" y="110" width="120" height="60" as="geometry" />
          </mxCell>
        </UserObject>
        <mxCell id="3Qd0KYtifg4g1R91uSdj-7" value="" style="html=1;shadow=0;dashed=0;align=center;verticalAlign=middle;shape=mxgraph.arrows2.arrow;dy=0.6;dx=40;notch=0;" parent="1" vertex="1">
          <mxGeometry x="150" y="120" width="90" height="40" as="geometry" />
        </mxCell>
      </root>
    </mxGraphModel>
  </diagram>
  <diagram id="kyqQqhLrngkOL9ruqeM0" name="Bases de datos">
    <mxGraphModel dx="826" dy="437" grid="1" gridSize="10" guides="1" tooltips="1" connect="1" arrows="1" fold="1" page="1" pageScale="1" pageWidth="827" pageHeight="1169" math="0" shadow="0">
      <root>
        <mxCell id="0" />
        <mxCell id="1" parent="0" />
      </root>
    </mxGraphModel>
  </diagram>
  <diagram id="wiRps2ILu9WRa80Pd8o8" name="Procesos">
    <mxGraphModel dx="1653" dy="437" grid="1" gridSize="10" guides="1" tooltips="1" connect="1" arrows="1" fold="1" page="1" pageScale="1" pageWidth="827" pageHeight="1169" math="0" shadow="0">
      <root>
        <mxCell id="0" />
        <mxCell id="1" parent="0" />
        <mxCell id="dIpv1vz0n_DZOZ0VKOJK-1" value="Modelo" style="swimlane;startSize=20;horizontal=1;containerType=tree;newEdgeStyle={&quot;edgeStyle&quot;:&quot;elbowEdgeStyle&quot;,&quot;startArrow&quot;:&quot;none&quot;,&quot;endArrow&quot;:&quot;none&quot;};" parent="1" vertex="1">
          <mxGeometry x="-450" y="60" width="1840" height="920" as="geometry" />
        </mxCell>
        <mxCell id="dIpv1vz0n_DZOZ0VKOJK-2" value="" style="edgeStyle=elbowEdgeStyle;elbow=vertical;sourcePerimeterSpacing=0;targetPerimeterSpacing=0;startArrow=none;endArrow=none;rounded=0;curved=0;" parent="dIpv1vz0n_DZOZ0VKOJK-1" source="dIpv1vz0n_DZOZ0VKOJK-4" target="dIpv1vz0n_DZOZ0VKOJK-5" edge="1">
          <mxGeometry relative="1" as="geometry" />
        </mxCell>
        <mxCell id="dIpv1vz0n_DZOZ0VKOJK-3" value="" style="edgeStyle=elbowEdgeStyle;elbow=vertical;sourcePerimeterSpacing=0;targetPerimeterSpacing=0;startArrow=none;endArrow=none;rounded=0;curved=0;" parent="dIpv1vz0n_DZOZ0VKOJK-1" source="dIpv1vz0n_DZOZ0VKOJK-4" target="dIpv1vz0n_DZOZ0VKOJK-6" edge="1">
          <mxGeometry relative="1" as="geometry" />
        </mxCell>
        <UserObject label="INICIO DE SESIÃN" treeRoot="1" id="dIpv1vz0n_DZOZ0VKOJK-4">
          <mxCell style="whiteSpace=wrap;html=1;align=center;treeFolding=1;treeMoving=1;newEdgeStyle={&quot;edgeStyle&quot;:&quot;elbowEdgeStyle&quot;,&quot;startArrow&quot;:&quot;none&quot;,&quot;endArrow&quot;:&quot;none&quot;};fillColor=#e1d5e7;strokeColor=#9673a6;" parent="dIpv1vz0n_DZOZ0VKOJK-1" vertex="1">
            <mxGeometry x="719" y="40" width="120" height="60" as="geometry" />
          </mxCell>
        </UserObject>
        <mxCell id="dIpv1vz0n_DZOZ0VKOJK-5" value="EMPLEADOS" style="whiteSpace=wrap;html=1;align=center;verticalAlign=middle;treeFolding=1;treeMoving=1;newEdgeStyle={&quot;edgeStyle&quot;:&quot;elbowEdgeStyle&quot;,&quot;startArrow&quot;:&quot;none&quot;,&quot;endArrow&quot;:&quot;none&quot;};fillColor=#dae8fc;strokeColor=#6c8ebf;" parent="dIpv1vz0n_DZOZ0VKOJK-1" vertex="1">
          <mxGeometry x="514" y="140" width="100" height="60" as="geometry" />
        </mxCell>
        <mxCell id="dIpv1vz0n_DZOZ0VKOJK-6" value="CLIENTES" style="whiteSpace=wrap;html=1;align=center;verticalAlign=middle;treeFolding=1;treeMoving=1;newEdgeStyle={&quot;edgeStyle&quot;:&quot;elbowEdgeStyle&quot;,&quot;startArrow&quot;:&quot;none&quot;,&quot;endArrow&quot;:&quot;none&quot;};fillColor=#d5e8d4;strokeColor=#82b366;" parent="dIpv1vz0n_DZOZ0VKOJK-1" vertex="1">
          <mxGeometry x="934" y="140" width="100" height="60" as="geometry" />
        </mxCell>
        <UserObject label="DIRECCIONAMIENTO" treeRoot="1" id="dIpv1vz0n_DZOZ0VKOJK-7">
          <mxCell style="whiteSpace=wrap;html=1;align=center;treeFolding=1;treeMoving=1;newEdgeStyle={&quot;edgeStyle&quot;:&quot;elbowEdgeStyle&quot;,&quot;startArrow&quot;:&quot;none&quot;,&quot;endArrow&quot;:&quot;none&quot;};fillColor=#bac8d3;strokeColor=#23445d;" parent="dIpv1vz0n_DZOZ0VKOJK-1" vertex="1">
            <mxGeometry x="709" y="228.33" width="140" height="61.67" as="geometry" />
          </mxCell>
        </UserObject>
        <mxCell id="dIpv1vz0n_DZOZ0VKOJK-8" value="" style="edgeStyle=elbowEdgeStyle;elbow=vertical;sourcePerimeterSpacing=0;targetPerimeterSpacing=0;startArrow=none;endArrow=none;rounded=0;curved=0;entryX=0.5;entryY=1;entryDx=0;entryDy=0;exitX=0;exitY=0.5;exitDx=0;exitDy=0;" parent="dIpv1vz0n_DZOZ0VKOJK-1" source="dIpv1vz0n_DZOZ0VKOJK-7" target="dIpv1vz0n_DZOZ0VKOJK-5" edge="1">
          <mxGeometry relative="1" as="geometry">
            <mxPoint x="789" y="110.00000000000006" as="sourcePoint" />
            <mxPoint x="574" y="150.00000000000006" as="targetPoint" />
            <Array as="points">
              <mxPoint x="574" y="258.33" />
            </Array>
          </mxGeometry>
        </mxCell>
        <mxCell id="dIpv1vz0n_DZOZ0VKOJK-9" value="" style="edgeStyle=elbowEdgeStyle;elbow=vertical;sourcePerimeterSpacing=0;targetPerimeterSpacing=0;startArrow=none;endArrow=none;rounded=0;curved=0;entryX=1;entryY=0.5;entryDx=0;entryDy=0;exitX=0.5;exitY=1;exitDx=0;exitDy=0;" parent="dIpv1vz0n_DZOZ0VKOJK-1" source="dIpv1vz0n_DZOZ0VKOJK-6" target="dIpv1vz0n_DZOZ0VKOJK-7" edge="1">
          <mxGeometry relative="1" as="geometry">
            <mxPoint x="799" y="120.00000000000006" as="sourcePoint" />
            <mxPoint x="584" y="160.00000000000006" as="targetPoint" />
            <Array as="points">
              <mxPoint x="924" y="258" />
            </Array>
          </mxGeometry>
        </mxCell>
        <UserObject label="INDEX WEB" treeRoot="1" id="dIpv1vz0n_DZOZ0VKOJK-10">
          <mxCell style="whiteSpace=wrap;html=1;align=center;treeFolding=1;treeMoving=1;newEdgeStyle={&quot;edgeStyle&quot;:&quot;elbowEdgeStyle&quot;,&quot;startArrow&quot;:&quot;none&quot;,&quot;endArrow&quot;:&quot;none&quot;};fillColor=#d5e8d4;strokeColor=#82b366;" parent="dIpv1vz0n_DZOZ0VKOJK-1" vertex="1">
            <mxGeometry x="1080" y="358.33" width="140" height="61.67" as="geometry" />
          </mxCell>
        </UserObject>
        <UserObject label="DASHABOARD" treeRoot="1" id="dIpv1vz0n_DZOZ0VKOJK-11">
          <mxCell style="whiteSpace=wrap;html=1;align=center;treeFolding=1;treeMoving=1;newEdgeStyle={&quot;edgeStyle&quot;:&quot;elbowEdgeStyle&quot;,&quot;startArrow&quot;:&quot;none&quot;,&quot;endArrow&quot;:&quot;none&quot;};fillColor=#dae8fc;strokeColor=#6c8ebf;" parent="dIpv1vz0n_DZOZ0VKOJK-1" vertex="1">
            <mxGeometry x="299" y="358.33" width="140" height="61.67" as="geometry" />
          </mxCell>
        </UserObject>
        <mxCell id="dIpv1vz0n_DZOZ0VKOJK-12" value="" style="edgeStyle=elbowEdgeStyle;elbow=vertical;sourcePerimeterSpacing=0;targetPerimeterSpacing=0;startArrow=none;endArrow=none;rounded=0;curved=0;entryX=0.5;entryY=1;entryDx=0;entryDy=0;exitX=0.5;exitY=0;exitDx=0;exitDy=0;" parent="dIpv1vz0n_DZOZ0VKOJK-1" source="dIpv1vz0n_DZOZ0VKOJK-11" target="dIpv1vz0n_DZOZ0VKOJK-7" edge="1">
          <mxGeometry relative="1" as="geometry">
            <mxPoint x="719" y="269.00000000000006" as="sourcePoint" />
            <mxPoint x="574" y="210.00000000000006" as="targetPoint" />
            <Array as="points">
              <mxPoint x="749" y="328.33" />
            </Array>
          </mxGeometry>
        </mxCell>
        <mxCell id="dIpv1vz0n_DZOZ0VKOJK-13" value="" style="edgeStyle=elbowEdgeStyle;elbow=vertical;sourcePerimeterSpacing=0;targetPerimeterSpacing=0;startArrow=none;endArrow=none;rounded=0;curved=0;entryX=0.5;entryY=1;entryDx=0;entryDy=0;exitX=0.5;exitY=0;exitDx=0;exitDy=0;" parent="dIpv1vz0n_DZOZ0VKOJK-1" source="dIpv1vz0n_DZOZ0VKOJK-10" target="dIpv1vz0n_DZOZ0VKOJK-7" edge="1">
          <mxGeometry relative="1" as="geometry">
            <mxPoint x="639" y="378.00000000000006" as="sourcePoint" />
            <mxPoint x="789" y="300.00000000000006" as="targetPoint" />
            <Array as="points">
              <mxPoint x="979" y="328.33" />
            </Array>
          </mxGeometry>
        </mxCell>
        <UserObject label="SERVICIOS" treeRoot="1" id="dIpv1vz0n_DZOZ0VKOJK-14">
          <mxCell style="whiteSpace=wrap;html=1;align=center;treeFolding=1;treeMoving=1;newEdgeStyle={&quot;edgeStyle&quot;:&quot;elbowEdgeStyle&quot;,&quot;startArrow&quot;:&quot;none&quot;,&quot;endArrow&quot;:&quot;none&quot;};" parent="dIpv1vz0n_DZOZ0VKOJK-1" vertex="1">
            <mxGeometry x="10" y="488.33" width="130" height="41.67" as="geometry" />
          </mxCell>
        </UserObject>
        <UserObject label="DATOS CLIENTE" treeRoot="1" id="dIpv1vz0n_DZOZ0VKOJK-15">
          <mxCell style="whiteSpace=wrap;html=1;align=center;treeFolding=1;treeMoving=1;newEdgeStyle={&quot;edgeStyle&quot;:&quot;elbowEdgeStyle&quot;,&quot;startArrow&quot;:&quot;none&quot;,&quot;endArrow&quot;:&quot;none&quot;};" parent="dIpv1vz0n_DZOZ0VKOJK-1" vertex="1">
            <mxGeometry x="150" y="488.33" width="130" height="41.67" as="geometry" />
          </mxCell>
        </UserObject>
        <UserObject label="REPORTES" treeRoot="1" id="dIpv1vz0n_DZOZ0VKOJK-16">
          <mxCell style="whiteSpace=wrap;html=1;align=center;treeFolding=1;treeMoving=1;newEdgeStyle={&quot;edgeStyle&quot;:&quot;elbowEdgeStyle&quot;,&quot;startArrow&quot;:&quot;none&quot;,&quot;endArrow&quot;:&quot;none&quot;};" parent="dIpv1vz0n_DZOZ0VKOJK-1" vertex="1">
            <mxGeometry x="299" y="488.33" width="130" height="41.67" as="geometry" />
          </mxCell>
        </UserObject>
        <UserObject label="VENTAS" treeRoot="1" id="dIpv1vz0n_DZOZ0VKOJK-17">
          <mxCell style="whiteSpace=wrap;html=1;align=center;treeFolding=1;treeMoving=1;newEdgeStyle={&quot;edgeStyle&quot;:&quot;elbowEdgeStyle&quot;,&quot;startArrow&quot;:&quot;none&quot;,&quot;endArrow&quot;:&quot;none&quot;};" parent="dIpv1vz0n_DZOZ0VKOJK-1" vertex="1">
            <mxGeometry x="450" y="488.33" width="130" height="41.67" as="geometry" />
          </mxCell>
        </UserObject>
        <UserObject label="COTIZACIONES" treeRoot="1" id="dIpv1vz0n_DZOZ0VKOJK-18">
          <mxCell style="whiteSpace=wrap;html=1;align=center;treeFolding=1;treeMoving=1;newEdgeStyle={&quot;edgeStyle&quot;:&quot;elbowEdgeStyle&quot;,&quot;startArrow&quot;:&quot;none&quot;,&quot;endArrow&quot;:&quot;none&quot;};" parent="dIpv1vz0n_DZOZ0VKOJK-1" vertex="1">
            <mxGeometry x="600" y="488.33" width="130" height="41.67" as="geometry" />
          </mxCell>
        </UserObject>
        <UserObject label="DATOS DEL USUARIO" treeRoot="1" id="dIpv1vz0n_DZOZ0VKOJK-21">
          <mxCell style="whiteSpace=wrap;html=1;align=center;treeFolding=1;treeMoving=1;newEdgeStyle={&quot;edgeStyle&quot;:&quot;elbowEdgeStyle&quot;,&quot;startArrow&quot;:&quot;none&quot;,&quot;endArrow&quot;:&quot;none&quot;};" parent="dIpv1vz0n_DZOZ0VKOJK-1" vertex="1">
            <mxGeometry x="849" y="488.3299999999999" width="130" height="41.67" as="geometry" />
          </mxCell>
        </UserObject>
        <UserObject label="SERVICIOS" treeRoot="1" id="dIpv1vz0n_DZOZ0VKOJK-22">
          <mxCell style="whiteSpace=wrap;html=1;align=center;treeFolding=1;treeMoving=1;newEdgeStyle={&quot;edgeStyle&quot;:&quot;elbowEdgeStyle&quot;,&quot;startArrow&quot;:&quot;none&quot;,&quot;endArrow&quot;:&quot;none&quot;};" parent="dIpv1vz0n_DZOZ0VKOJK-1" vertex="1">
            <mxGeometry x="989" y="488.3299999999999" width="130" height="41.67" as="geometry" />
          </mxCell>
        </UserObject>
        <UserObject label="CONTACTO LIBQ" treeRoot="1" id="dIpv1vz0n_DZOZ0VKOJK-23">
          <mxCell style="whiteSpace=wrap;html=1;align=center;treeFolding=1;treeMoving=1;newEdgeStyle={&quot;edgeStyle&quot;:&quot;elbowEdgeStyle&quot;,&quot;startArrow&quot;:&quot;none&quot;,&quot;endArrow&quot;:&quot;none&quot;};" parent="dIpv1vz0n_DZOZ0VKOJK-1" vertex="1">
            <mxGeometry x="1138" y="488.3299999999999" width="130" height="41.67" as="geometry" />
          </mxCell>
        </UserObject>
        <UserObject label="PAGOS" treeRoot="1" id="dIpv1vz0n_DZOZ0VKOJK-24">
          <mxCell style="whiteSpace=wrap;html=1;align=center;treeFolding=1;treeMoving=1;newEdgeStyle={&quot;edgeStyle&quot;:&quot;elbowEdgeStyle&quot;,&quot;startArrow&quot;:&quot;none&quot;,&quot;endArrow&quot;:&quot;none&quot;};" parent="dIpv1vz0n_DZOZ0VKOJK-1" vertex="1">
            <mxGeometry x="1289" y="488.3299999999999" width="130" height="41.67" as="geometry" />
          </mxCell>
        </UserObject>
        <UserObject label="REPORTES" treeRoot="1" id="dIpv1vz0n_DZOZ0VKOJK-25">
          <mxCell style="whiteSpace=wrap;html=1;align=center;treeFolding=1;treeMoving=1;newEdgeStyle={&quot;edgeStyle&quot;:&quot;elbowEdgeStyle&quot;,&quot;startArrow&quot;:&quot;none&quot;,&quot;endArrow&quot;:&quot;none&quot;};" parent="dIpv1vz0n_DZOZ0VKOJK-1" vertex="1">
            <mxGeometry x="1439" y="488.3299999999999" width="130" height="41.67" as="geometry" />
          </mxCell>
        </UserObject>
        <mxCell id="dIpv1vz0n_DZOZ0VKOJK-28" value="" style="edgeStyle=elbowEdgeStyle;elbow=vertical;sourcePerimeterSpacing=0;targetPerimeterSpacing=0;startArrow=none;endArrow=none;rounded=0;curved=0;entryX=0.5;entryY=1;entryDx=0;entryDy=0;exitX=0.5;exitY=0;exitDx=0;exitDy=0;" parent="dIpv1vz0n_DZOZ0VKOJK-1" source="dIpv1vz0n_DZOZ0VKOJK-14" target="dIpv1vz0n_DZOZ0VKOJK-11" edge="1">
          <mxGeometry relative="1" as="geometry">
            <mxPoint x="379" y="368" as="sourcePoint" />
            <mxPoint x="789" y="300" as="targetPoint" />
            <Array as="points">
              <mxPoint x="160" y="450" />
            </Array>
          </mxGeometry>
        </mxCell>
        <mxCell id="dIpv1vz0n_DZOZ0VKOJK-30" value="" style="edgeStyle=elbowEdgeStyle;elbow=vertical;sourcePerimeterSpacing=0;targetPerimeterSpacing=0;startArrow=none;endArrow=none;rounded=0;curved=0;entryX=0.5;entryY=1;entryDx=0;entryDy=0;exitX=0.5;exitY=0;exitDx=0;exitDy=0;" parent="dIpv1vz0n_DZOZ0VKOJK-1" source="dIpv1vz0n_DZOZ0VKOJK-16" target="dIpv1vz0n_DZOZ0VKOJK-11" edge="1">
          <mxGeometry relative="1" as="geometry">
            <mxPoint x="95" y="508" as="sourcePoint" />
            <mxPoint x="389" y="440" as="targetPoint" />
            <Array as="points">
              <mxPoint x="340" y="450" />
            </Array>
          </mxGeometry>
        </mxCell>
        <mxCell id="dIpv1vz0n_DZOZ0VKOJK-31" value="" style="edgeStyle=elbowEdgeStyle;elbow=vertical;sourcePerimeterSpacing=0;targetPerimeterSpacing=0;startArrow=none;endArrow=none;rounded=0;curved=0;entryX=0.5;entryY=1;entryDx=0;entryDy=0;exitX=0.5;exitY=0;exitDx=0;exitDy=0;" parent="dIpv1vz0n_DZOZ0VKOJK-1" source="dIpv1vz0n_DZOZ0VKOJK-17" target="dIpv1vz0n_DZOZ0VKOJK-11" edge="1">
          <mxGeometry relative="1" as="geometry">
            <mxPoint x="105" y="518" as="sourcePoint" />
            <mxPoint x="399" y="450" as="targetPoint" />
            <Array as="points">
              <mxPoint x="520" y="450" />
            </Array>
          </mxGeometry>
        </mxCell>
        <mxCell id="dIpv1vz0n_DZOZ0VKOJK-32" value="" style="edgeStyle=elbowEdgeStyle;elbow=vertical;sourcePerimeterSpacing=0;targetPerimeterSpacing=0;startArrow=none;endArrow=none;rounded=0;curved=0;entryX=0.5;entryY=1;entryDx=0;entryDy=0;exitX=0.5;exitY=0;exitDx=0;exitDy=0;" parent="dIpv1vz0n_DZOZ0VKOJK-1" source="dIpv1vz0n_DZOZ0VKOJK-18" target="dIpv1vz0n_DZOZ0VKOJK-11" edge="1">
          <mxGeometry relative="1" as="geometry">
            <mxPoint x="115" y="528" as="sourcePoint" />
            <mxPoint x="409" y="460" as="targetPoint" />
            <Array as="points">
              <mxPoint x="680" y="450" />
            </Array>
          </mxGeometry>
        </mxCell>
        <mxCell id="dIpv1vz0n_DZOZ0VKOJK-33" value="" style="edgeStyle=elbowEdgeStyle;elbow=vertical;sourcePerimeterSpacing=0;targetPerimeterSpacing=0;startArrow=none;endArrow=none;rounded=0;curved=0;entryX=0.5;entryY=1;entryDx=0;entryDy=0;exitX=0.5;exitY=0;exitDx=0;exitDy=0;" parent="dIpv1vz0n_DZOZ0VKOJK-1" source="dIpv1vz0n_DZOZ0VKOJK-21" target="dIpv1vz0n_DZOZ0VKOJK-10" edge="1">
          <mxGeometry relative="1" as="geometry">
            <mxPoint x="910" y="480" as="sourcePoint" />
            <mxPoint x="419" y="470" as="targetPoint" />
            <Array as="points">
              <mxPoint x="1040" y="450" />
            </Array>
          </mxGeometry>
        </mxCell>
        <mxCell id="dIpv1vz0n_DZOZ0VKOJK-34" value="" style="edgeStyle=elbowEdgeStyle;elbow=vertical;sourcePerimeterSpacing=0;targetPerimeterSpacing=0;startArrow=none;endArrow=none;rounded=0;curved=0;entryX=0.5;entryY=1;entryDx=0;entryDy=0;exitX=0.5;exitY=0;exitDx=0;exitDy=0;" parent="dIpv1vz0n_DZOZ0VKOJK-1" source="dIpv1vz0n_DZOZ0VKOJK-22" target="dIpv1vz0n_DZOZ0VKOJK-10" edge="1">
          <mxGeometry relative="1" as="geometry">
            <mxPoint x="924" y="498" as="sourcePoint" />
            <mxPoint x="1160" y="430" as="targetPoint" />
            <Array as="points">
              <mxPoint x="1110" y="450" />
            </Array>
          </mxGeometry>
        </mxCell>
        <mxCell id="dIpv1vz0n_DZOZ0VKOJK-36" value="" style="edgeStyle=elbowEdgeStyle;elbow=vertical;sourcePerimeterSpacing=0;targetPerimeterSpacing=0;startArrow=none;endArrow=none;rounded=0;curved=0;entryX=0.5;entryY=1;entryDx=0;entryDy=0;exitX=0.5;exitY=0;exitDx=0;exitDy=0;" parent="dIpv1vz0n_DZOZ0VKOJK-1" source="dIpv1vz0n_DZOZ0VKOJK-23" target="dIpv1vz0n_DZOZ0VKOJK-10" edge="1">
          <mxGeometry relative="1" as="geometry">
            <mxPoint x="934" y="508" as="sourcePoint" />
            <mxPoint x="1170" y="440" as="targetPoint" />
            <Array as="points">
              <mxPoint x="1150" y="450" />
            </Array>
          </mxGeometry>
        </mxCell>
        <mxCell id="dIpv1vz0n_DZOZ0VKOJK-38" value="" style="edgeStyle=elbowEdgeStyle;elbow=vertical;sourcePerimeterSpacing=0;targetPerimeterSpacing=0;startArrow=none;endArrow=none;rounded=0;curved=0;entryX=0.5;entryY=1;entryDx=0;entryDy=0;exitX=0.5;exitY=0;exitDx=0;exitDy=0;" parent="dIpv1vz0n_DZOZ0VKOJK-1" source="dIpv1vz0n_DZOZ0VKOJK-25" target="dIpv1vz0n_DZOZ0VKOJK-10" edge="1">
          <mxGeometry relative="1" as="geometry">
            <mxPoint x="1223" y="508" as="sourcePoint" />
            <mxPoint x="1170" y="440" as="targetPoint" />
            <Array as="points">
              <mxPoint x="1190" y="450" />
            </Array>
          </mxGeometry>
        </mxCell>
        <mxCell id="dIpv1vz0n_DZOZ0VKOJK-39" value="" style="edgeStyle=elbowEdgeStyle;rounded=0;orthogonalLoop=1;jettySize=auto;html=1;elbow=vertical;startArrow=none;endArrow=none;" parent="dIpv1vz0n_DZOZ0VKOJK-1" source="dIpv1vz0n_DZOZ0VKOJK-14" target="dIpv1vz0n_DZOZ0VKOJK-40" edge="1">
          <mxGeometry relative="1" as="geometry" />
        </mxCell>
        <UserObject label="LISTA SERVICIOS" treeRoot="1" id="dIpv1vz0n_DZOZ0VKOJK-40">
          <mxCell style="whiteSpace=wrap;html=1;align=center;treeFolding=1;treeMoving=1;newEdgeStyle={&quot;edgeStyle&quot;:&quot;elbowEdgeStyle&quot;,&quot;startArrow&quot;:&quot;none&quot;,&quot;endArrow&quot;:&quot;none&quot;};" parent="dIpv1vz0n_DZOZ0VKOJK-1" vertex="1">
            <mxGeometry x="10" y="599.9999999999999" width="130" height="41.67" as="geometry" />
          </mxCell>
        </UserObject>
        <mxCell id="dIpv1vz0n_DZOZ0VKOJK-29" value="" style="edgeStyle=elbowEdgeStyle;elbow=vertical;sourcePerimeterSpacing=0;targetPerimeterSpacing=0;startArrow=none;endArrow=none;rounded=0;curved=0;exitX=0.5;exitY=0;exitDx=0;exitDy=0;entryX=0.5;entryY=1;entryDx=0;entryDy=0;" parent="dIpv1vz0n_DZOZ0VKOJK-1" source="dIpv1vz0n_DZOZ0VKOJK-15" target="dIpv1vz0n_DZOZ0VKOJK-11" edge="1">
          <mxGeometry relative="1" as="geometry">
            <mxPoint x="175" y="498" as="sourcePoint" />
            <mxPoint x="460" y="420" as="targetPoint" />
            <Array as="points">
              <mxPoint x="390" y="450" />
            </Array>
          </mxGeometry>
        </mxCell>
        <mxCell id="dIpv1vz0n_DZOZ0VKOJK-37" value="" style="edgeStyle=elbowEdgeStyle;elbow=vertical;sourcePerimeterSpacing=0;targetPerimeterSpacing=0;startArrow=none;endArrow=none;rounded=0;curved=0;exitX=0.5;exitY=0;exitDx=0;exitDy=0;entryX=0.5;entryY=1;entryDx=0;entryDy=0;" parent="dIpv1vz0n_DZOZ0VKOJK-1" source="dIpv1vz0n_DZOZ0VKOJK-24" target="dIpv1vz0n_DZOZ0VKOJK-10" edge="1">
          <mxGeometry relative="1" as="geometry">
            <mxPoint x="1303" y="498" as="sourcePoint" />
            <mxPoint x="1240" y="420" as="targetPoint" />
            <Array as="points">
              <mxPoint x="1270" y="450" />
            </Array>
          </mxGeometry>
        </mxCell>
        <mxCell id="T09hcngxunwlKkwbW3aQ-1" value="" style="edgeStyle=elbowEdgeStyle;rounded=0;orthogonalLoop=1;jettySize=auto;html=1;elbow=vertical;startArrow=none;endArrow=none;" parent="dIpv1vz0n_DZOZ0VKOJK-1" source="dIpv1vz0n_DZOZ0VKOJK-40" target="T09hcngxunwlKkwbW3aQ-2" edge="1">
          <mxGeometry relative="1" as="geometry">
            <mxPoint x="-305" y="600" as="sourcePoint" />
          </mxGeometry>
        </mxCell>
        <UserObject label="AGREGAR&lt;br&gt;MODIFICAR&lt;br&gt;ELIMINAR" treeRoot="1" id="T09hcngxunwlKkwbW3aQ-2">
          <mxCell style="whiteSpace=wrap;html=1;align=center;treeFolding=1;treeMoving=1;newEdgeStyle={&quot;edgeStyle&quot;:&quot;elbowEdgeStyle&quot;,&quot;startArrow&quot;:&quot;none&quot;,&quot;endArrow&quot;:&quot;none&quot;};" parent="dIpv1vz0n_DZOZ0VKOJK-1" vertex="1">
            <mxGeometry x="10" y="691.67" width="130" height="48.33" as="geometry" />
          </mxCell>
        </UserObject>
        <mxCell id="T09hcngxunwlKkwbW3aQ-4" value="" style="edgeStyle=elbowEdgeStyle;rounded=0;orthogonalLoop=1;jettySize=auto;html=1;elbow=vertical;startArrow=none;endArrow=none;" parent="dIpv1vz0n_DZOZ0VKOJK-1" source="dIpv1vz0n_DZOZ0VKOJK-24" target="T09hcngxunwlKkwbW3aQ-5" edge="1">
          <mxGeometry relative="1" as="geometry" />
        </mxCell>
        <UserObject label="FORMULARIO" treeRoot="1" id="T09hcngxunwlKkwbW3aQ-5">
          <mxCell style="whiteSpace=wrap;html=1;align=center;treeFolding=1;treeMoving=1;newEdgeStyle={&quot;edgeStyle&quot;:&quot;elbowEdgeStyle&quot;,&quot;startArrow&quot;:&quot;none&quot;,&quot;endArrow&quot;:&quot;none&quot;};" parent="dIpv1vz0n_DZOZ0VKOJK-1" vertex="1">
            <mxGeometry x="1289.0000000000005" y="568.3299999999999" width="130" height="41.67" as="geometry" />
          </mxCell>
        </UserObject>
        <mxCell id="T09hcngxunwlKkwbW3aQ-6" value="" style="edgeStyle=elbowEdgeStyle;rounded=0;orthogonalLoop=1;jettySize=auto;html=1;elbow=vertical;startArrow=none;endArrow=none;" parent="dIpv1vz0n_DZOZ0VKOJK-1" source="T09hcngxunwlKkwbW3aQ-5" target="T09hcngxunwlKkwbW3aQ-7" edge="1">
          <mxGeometry relative="1" as="geometry">
            <mxPoint x="974" y="600" as="sourcePoint" />
          </mxGeometry>
        </mxCell>
        <UserObject label="METODOS DE PAGO" treeRoot="1" id="T09hcngxunwlKkwbW3aQ-7">
          <mxCell style="whiteSpace=wrap;html=1;align=center;treeFolding=1;treeMoving=1;newEdgeStyle={&quot;edgeStyle&quot;:&quot;elbowEdgeStyle&quot;,&quot;startArrow&quot;:&quot;none&quot;,&quot;endArrow&quot;:&quot;none&quot;};" parent="dIpv1vz0n_DZOZ0VKOJK-1" vertex="1">
            <mxGeometry x="1289.0000000000005" y="649.9999999999999" width="130" height="41.67" as="geometry" />
          </mxCell>
        </UserObject>
        <mxCell id="T09hcngxunwlKkwbW3aQ-8" value="" style="edgeStyle=elbowEdgeStyle;rounded=0;orthogonalLoop=1;jettySize=auto;html=1;elbow=vertical;startArrow=none;endArrow=none;" parent="dIpv1vz0n_DZOZ0VKOJK-1" source="T09hcngxunwlKkwbW3aQ-7" target="T09hcngxunwlKkwbW3aQ-9" edge="1">
          <mxGeometry relative="1" as="geometry">
            <mxPoint x="974" y="680" as="sourcePoint" />
          </mxGeometry>
        </mxCell>
        <UserObject label="REGISTRO DATOS CLIENTE" treeRoot="1" id="T09hcngxunwlKkwbW3aQ-9">
          <mxCell style="whiteSpace=wrap;html=1;align=center;treeFolding=1;treeMoving=1;newEdgeStyle={&quot;edgeStyle&quot;:&quot;elbowEdgeStyle&quot;,&quot;startArrow&quot;:&quot;none&quot;,&quot;endArrow&quot;:&quot;none&quot;};" parent="dIpv1vz0n_DZOZ0VKOJK-1" vertex="1">
            <mxGeometry x="1289.0000000000005" y="731.6699999999998" width="130" height="41.67" as="geometry" />
          </mxCell>
        </UserObject>
        <mxCell id="T09hcngxunwlKkwbW3aQ-10" value="" style="edgeStyle=elbowEdgeStyle;rounded=0;orthogonalLoop=1;jettySize=auto;html=1;elbow=vertical;startArrow=none;endArrow=none;" parent="dIpv1vz0n_DZOZ0VKOJK-1" source="dIpv1vz0n_DZOZ0VKOJK-21" target="T09hcngxunwlKkwbW3aQ-11" edge="1">
          <mxGeometry relative="1" as="geometry" />
        </mxCell>
        <UserObject label="REGISTRO&lt;br&gt;ACTUALIZACIÃN" treeRoot="1" id="T09hcngxunwlKkwbW3aQ-11">
          <mxCell style="whiteSpace=wrap;html=1;align=center;treeFolding=1;treeMoving=1;newEdgeStyle={&quot;edgeStyle&quot;:&quot;elbowEdgeStyle&quot;,&quot;startArrow&quot;:&quot;none&quot;,&quot;endArrow&quot;:&quot;none&quot;};" parent="dIpv1vz0n_DZOZ0VKOJK-1" vertex="1">
            <mxGeometry x="849" y="579.9999999999999" width="130" height="41.67" as="geometry" />
          </mxCell>
        </UserObject>
        <mxCell id="T09hcngxunwlKkwbW3aQ-12" value="" style="edgeStyle=elbowEdgeStyle;rounded=0;orthogonalLoop=1;jettySize=auto;html=1;elbow=vertical;startArrow=none;endArrow=none;" parent="dIpv1vz0n_DZOZ0VKOJK-1" source="dIpv1vz0n_DZOZ0VKOJK-22" target="T09hcngxunwlKkwbW3aQ-13" edge="1">
          <mxGeometry relative="1" as="geometry" />
        </mxCell>
        <UserObject label="LISTA DE SERVICIOS" treeRoot="1" id="T09hcngxunwlKkwbW3aQ-13">
          <mxCell style="whiteSpace=wrap;html=1;align=center;treeFolding=1;treeMoving=1;newEdgeStyle={&quot;edgeStyle&quot;:&quot;elbowEdgeStyle&quot;,&quot;startArrow&quot;:&quot;none&quot;,&quot;endArrow&quot;:&quot;none&quot;};" parent="dIpv1vz0n_DZOZ0VKOJK-1" vertex="1">
            <mxGeometry x="989" y="579.9999999999999" width="130" height="41.67" as="geometry" />
          </mxCell>
        </UserObject>
        <mxCell id="T09hcngxunwlKkwbW3aQ-14" value="" style="edgeStyle=elbowEdgeStyle;rounded=0;orthogonalLoop=1;jettySize=auto;html=1;elbow=vertical;startArrow=none;endArrow=none;" parent="dIpv1vz0n_DZOZ0VKOJK-1" source="T09hcngxunwlKkwbW3aQ-13" target="T09hcngxunwlKkwbW3aQ-15" edge="1">
          <mxGeometry relative="1" as="geometry">
            <mxPoint x="674" y="600" as="sourcePoint" />
          </mxGeometry>
        </mxCell>
        <UserObject label="BUSQUEDA DE SERVICIOS" treeRoot="1" id="T09hcngxunwlKkwbW3aQ-15">
          <mxCell style="whiteSpace=wrap;html=1;align=center;treeFolding=1;treeMoving=1;newEdgeStyle={&quot;edgeStyle&quot;:&quot;elbowEdgeStyle&quot;,&quot;startArrow&quot;:&quot;none&quot;,&quot;endArrow&quot;:&quot;none&quot;};" parent="dIpv1vz0n_DZOZ0VKOJK-1" vertex="1">
            <mxGeometry x="989" y="661.6699999999998" width="130" height="41.67" as="geometry" />
          </mxCell>
        </UserObject>
        <mxCell id="T09hcngxunwlKkwbW3aQ-16" value="" style="edgeStyle=elbowEdgeStyle;rounded=0;orthogonalLoop=1;jettySize=auto;html=1;elbow=vertical;startArrow=none;endArrow=none;" parent="dIpv1vz0n_DZOZ0VKOJK-1" source="dIpv1vz0n_DZOZ0VKOJK-23" target="T09hcngxunwlKkwbW3aQ-17" edge="1">
          <mxGeometry relative="1" as="geometry" />
        </mxCell>
        <UserObject label="FORMULARIO CONTACTO" treeRoot="1" id="T09hcngxunwlKkwbW3aQ-17">
          <mxCell style="whiteSpace=wrap;html=1;align=center;treeFolding=1;treeMoving=1;newEdgeStyle={&quot;edgeStyle&quot;:&quot;elbowEdgeStyle&quot;,&quot;startArrow&quot;:&quot;none&quot;,&quot;endArrow&quot;:&quot;none&quot;};" parent="dIpv1vz0n_DZOZ0VKOJK-1" vertex="1">
            <mxGeometry x="1138" y="579.9999999999999" width="130" height="41.67" as="geometry" />
          </mxCell>
        </UserObject>
        <mxCell id="T09hcngxunwlKkwbW3aQ-18" value="" style="edgeStyle=elbowEdgeStyle;rounded=0;orthogonalLoop=1;jettySize=auto;html=1;elbow=vertical;startArrow=none;endArrow=none;" parent="dIpv1vz0n_DZOZ0VKOJK-1" source="dIpv1vz0n_DZOZ0VKOJK-25" target="T09hcngxunwlKkwbW3aQ-19" edge="1">
          <mxGeometry relative="1" as="geometry" />
        </mxCell>
        <UserObject label="SEGUIMIENTO" treeRoot="1" id="T09hcngxunwlKkwbW3aQ-19">
          <mxCell style="whiteSpace=wrap;html=1;align=center;treeFolding=1;treeMoving=1;newEdgeStyle={&quot;edgeStyle&quot;:&quot;elbowEdgeStyle&quot;,&quot;startArrow&quot;:&quot;none&quot;,&quot;endArrow&quot;:&quot;none&quot;};" parent="dIpv1vz0n_DZOZ0VKOJK-1" vertex="1">
            <mxGeometry x="1439" y="568.3299999999999" width="130" height="41.67" as="geometry" />
          </mxCell>
        </UserObject>
        <mxCell id="T09hcngxunwlKkwbW3aQ-20" value="" style="edgeStyle=elbowEdgeStyle;rounded=0;orthogonalLoop=1;jettySize=auto;html=1;elbow=vertical;startArrow=none;endArrow=none;" parent="dIpv1vz0n_DZOZ0VKOJK-1" source="T09hcngxunwlKkwbW3aQ-19" target="T09hcngxunwlKkwbW3aQ-21" edge="1">
          <mxGeometry relative="1" as="geometry">
            <mxPoint x="1124" y="600" as="sourcePoint" />
          </mxGeometry>
        </mxCell>
        <UserObject label="RESULTADOS" treeRoot="1" id="T09hcngxunwlKkwbW3aQ-21">
          <mxCell style="whiteSpace=wrap;html=1;align=center;treeFolding=1;treeMoving=1;newEdgeStyle={&quot;edgeStyle&quot;:&quot;elbowEdgeStyle&quot;,&quot;startArrow&quot;:&quot;none&quot;,&quot;endArrow&quot;:&quot;none&quot;};" parent="dIpv1vz0n_DZOZ0VKOJK-1" vertex="1">
            <mxGeometry x="1439" y="649.9999999999999" width="130" height="41.67" as="geometry" />
          </mxCell>
        </UserObject>
        <mxCell id="T09hcngxunwlKkwbW3aQ-22" value="" style="edgeStyle=elbowEdgeStyle;rounded=0;orthogonalLoop=1;jettySize=auto;html=1;elbow=vertical;startArrow=none;endArrow=none;" parent="dIpv1vz0n_DZOZ0VKOJK-1" source="dIpv1vz0n_DZOZ0VKOJK-16" target="T09hcngxunwlKkwbW3aQ-23" edge="1">
          <mxGeometry relative="1" as="geometry" />
        </mxCell>
        <UserObject label="INGRESOS MUESTRAS" treeRoot="1" id="T09hcngxunwlKkwbW3aQ-23">
          <mxCell style="whiteSpace=wrap;html=1;align=center;treeFolding=1;treeMoving=1;newEdgeStyle={&quot;edgeStyle&quot;:&quot;elbowEdgeStyle&quot;,&quot;startArrow&quot;:&quot;none&quot;,&quot;endArrow&quot;:&quot;none&quot;};" parent="dIpv1vz0n_DZOZ0VKOJK-1" vertex="1">
            <mxGeometry x="299" y="589.9999999999999" width="130" height="41.67" as="geometry" />
          </mxCell>
        </UserObject>
        <mxCell id="lLwpqjfNUX5plcnrZhqc-1" value="" style="edgeStyle=elbowEdgeStyle;rounded=0;orthogonalLoop=1;jettySize=auto;html=1;elbow=vertical;startArrow=none;endArrow=none;" parent="dIpv1vz0n_DZOZ0VKOJK-1" source="T09hcngxunwlKkwbW3aQ-23" target="lLwpqjfNUX5plcnrZhqc-2" edge="1">
          <mxGeometry relative="1" as="geometry">
            <mxPoint x="-16" y="600" as="sourcePoint" />
          </mxGeometry>
        </mxCell>
        <UserObject label="INGRESOS MUESTRAS" treeRoot="1" id="lLwpqjfNUX5plcnrZhqc-2">
          <mxCell style="whiteSpace=wrap;html=1;align=center;treeFolding=1;treeMoving=1;newEdgeStyle={&quot;edgeStyle&quot;:&quot;elbowEdgeStyle&quot;,&quot;startArrow&quot;:&quot;none&quot;,&quot;endArrow&quot;:&quot;none&quot;};" parent="dIpv1vz0n_DZOZ0VKOJK-1" vertex="1">
            <mxGeometry x="299" y="671.6699999999998" width="130" height="41.67" as="geometry" />
          </mxCell>
        </UserObject>
      </root>
    </mxGraphModel>
  </diagram>
  <diagram id="A7GhVl95suR25eJBvPsV" name="PÃ¡gina-4">
    <mxGraphModel dx="1502" dy="795" grid="1" gridSize="10" guides="1" tooltips="1" connect="1" arrows="1" fold="1" page="1" pageScale="1" pageWidth="827" pageHeight="1169" math="0" shadow="0">
      <root>
        <mxCell id="0" />
        <mxCell id="1" parent="0" />
        <mxCell id="n0if_-0z3uSa2oS_CwEW-1" value="" style="shape=image;verticalLabelPosition=bottom;labelBackgroundColor=default;verticalAlign=top;aspect=fixed;imageAspect=0;image=data:image/png,iVBORw0KGgoAAAANSUhEUgAAAa0AAAFTCAYAAACKzlNeAAAAAXNSR0IArs4c6QAAAARnQU1BAACxjwv8YQUAAAAJcEhZcwAAEnQAABJ0Ad5mH3gAAAASdEVYdFNvZnR3YXJlAEdyZWVuc2hvdF5VCAUAAP+HSURBVHhe7J0FfBTX14YDJMRICE6EkEAS3N3dnbgTQnB3CO5W3Eqh0FKKuxV3d3dJQtxwqt/7vWc2S5awUKD9t4TO8nuY2dnxuXOee2buTAx+/fVX3L57BwcPH8Lps2cQGx+H6NhYHDt+HOfPn8eTJ08QFRWFCxcuIC4uDomJiTh69CjOnDmDmJgYyPT79+/Hs2fP8PTpU9y7dw/Pnz9HdHS0Mt6pU6dw48YN3Lp1C/Hx8Up/QkICrl69qvwu85V5njhxQlmW/Hb27FmcPHlS+f748WNcu3ZNGfbw4UNleWFhYcq6/P7HH7h79x6SkxJx88Z1xMbG4ZdffsbdO7fxhNPJ+skytm/fjtmzZ+P27dv4g9P83//9H9TPv/OR/f+Kxyg6Nga//f47YuJicYvH696Dh4iMjsE1HseEpCTl2MpRknHDIsIQ/igcUTFReBB2H89fPMPvv/+GFy9fKGX3PstF+KNHSExOwrMXzzl+OKJ57KUcStm6f/8+Hjx4oJTJFy9esJzEKmVJypaUBV1+5zrJNLKev/zyCyKjIhEREcHy/RRPnz1hGY7Fy1fPeU48wsOwB0jiMmXcJ4+fICLsEZ4+fpYyL27r738o58TPP/+M3377TZm3lGkZFh0TzeEvOfxXllPpf4VXnG9SUgLn9zun/0Ozw/7kI/OWc0K2KTw8HI+4H2T+siz5TYbL+RLB4bI/ZFw5x2QcWU9Zd9k/cq7IuPH87TcOk2Pz4uVLJHMfybxesj8yMlLZb+HcH085LzlGspY/c54RkY9eHzMZX85v2X9JPJayz1+9eoWbN28q65icnKyMo93nH/SR0dLyFz4yuax7Wv6tj+6+kLIix0I7TI6R7H8ZJsf0Oct4ZPQjnifxLPdhuHv/Dsv8QyQksuyw3GjnI9Np+7+kj4EcKNmwlwwOwi/cYVJgf03pajdci3xkmBQ66Wq/y0d+1/bLR/rlJJGDoJ1W268dVzsf7e/SlXFkOhmu/U2Ldhz5aKeX77rjaodJ8BEprlu3Dt98841y0sl8tdOrn3/+8wf3vXKMUoLy7+yXYYL0S8CUrgTA35TgLcN+V8aXfgVlSs1HGVcZJ2U6IaUcaMuDlCdtWdEO05YvfR/ttDKddtqUX/ibTC/rxXWiOH/99RcZDH7F//3BHhlVVlBnJX+nvLQfWQfNPGVdNPNQtknZH5p5y+fPpCXTaLtp0f3oG/6+cV4fC26zdl9pP8rvKcNej8Phyv7ndmn3u3LsdPaddhrZdt1j8FEfGT0tf+Ejk2v2+Jv8W5+0+0Pfd+0w9nGfswymdLWiEt7o/5T9nA4+BvKfFDrtpmkLrQQKpZ8bri1oUnPS/ejuEPld9/Pmya75aHekFn0f7Q7Xnbe+YWk/2t+kK+sr3QMHDmD06NGYMmUKzp07pwrrX/6kli3WHFlj1JY7bcAQ5LuueDTC4nQ6v2uPoPa79jctyvQyDZGPzEeXj/nI+FJWlYD7x28yRIeUj+5XroAymqyIdFK2Q9uVj2Y95LtGfrrC0h32seuq7/O+eaRdL92PvuG6w2Tfpj0uuh8ZN+1HhmmH65v/ez8yalr+wkcm1667Lp/7R9lvXFNFTin/+I1lUyo77P8vSEvfgZPC+Kmbqt1hWrSftP3v+6770f6m/V3feLq/y0d3XH2on3/nI3teX3nTRcZ5LR2d4Wm/y0f3e1pkPvqO9accf800whtzTyFNr/ZnbVfPR1MORYRaCXJ0BhhN1iUTyjia7qd+NMt4u7yn/f6uz59N/2fS0veRbRTk86Hr8fojo6flL3xkcu266/L5f0RMrEDxn8hK958cDW1lR/jPSEt8re3/K5v7unCnFFRttqbdkV/izlQ/f/7RLWv/S/7+0iVzfM+SpKOPd340QUV3RM15IcOUbyndtz9pz593fX/3cOlP5X2ftPOQj3yTTPhjpZW6/Lfn+acfGT0tf+Ejk2vXXZfP/8N9xzXV5Y0tkPKjXKbmeNL92P2cDj5vSEuEpcsHba6MpCXlo1sg5cSUS4XaS3a6BVa62suIur/9E6iff+cje163zP2v+N8c4bRrr7MU6dXHB30YelLucWk/7yujacvyn6GZhmvMIKaLDEv5+Z0f3XloP/JNKy3p1/JnH911SjvPf/qju966pI+PrKluOdQpj4q00qDsa3184ift5Lqz/DP+ho+BzIebRUlpCqCmX/NdCqVSOElea2ccP3FG6X+dMQm/p4HDtNN8FHLPQOU/gdy0/1+jb7n/K7Tng7QWFPSNo6yTTnmXew+a+w9ytslZpyH1flbKPPWQNuhrv+sbVyso3fHehEvVEVla9G3LfxV9++e9yL4lsvfT8tc/+uaagohLkEqQdHXK15vIuOy866P7m7ZfujqT/2PofJRMS06bX7lxr7iRv3IMudKe9iPSqlevJU6eOpcyRP2oH/WjftTPn300MZ4SS0H+6Y/MfwdcmlSE0qJEea1tdJBai0yW9qM7S2UcLfyunVz57R8gzcfgV7kswR7hZ4pL2ge+Yg3tF66gyEs2VboiLfmIuE5QXPrmrYt2nh+O+k/9l17/STD6kLKsO542iL39TxPW3h/a3lyeyueMXLX6jX1aJOKm/actDZ8MY3cqqbJ6PUzveALLGQuU1kevSRmm+cat4LipyI/aET8CnV7ZL5+K0uRdVlwuBf5KXnKWT3//DWFJiQhPTsbD5Md4QHLlcZJRlU+1Wk2xee8hRHB4WsJJGJHpPoYHXJaKSnrkY8qy7jgPhaS3CeNwDZrzSRcZ9innl4YnH42c+yoa9O2fP+cx7utBMz/pynHmeIlJr4+x9KeSUiZel4vUMqCLpmywjHGasIQERCYkIor9jzi9TKuZB8dLfPI2SU+U394kGRFJSYhOjEdCQgwex8fgWWwMnpOncSnExpK4jyOO02infxeyDGU5mvknksi4eGVbwomBcl+KslLERSGJtG5GRWLcN4sw9OslGLhoGQZ88x3Mrew0xkr55C9SEb6hY9Gfv+nSj/RZ/B16fyS9vlmmopIu6S18QFl+PZ6cI+zvS/p8/TZ9ec7Jb33lfOL4uvQln3J+9V78PVn+cXzzPddbRUvvb/Tsoz+F0y5hmUiDckxSykE/jhM0bTa6zl2E/jL+wm9f03vhUk25kDKhlIu3y4SWPouXofvXi9F73tcIGTsFQ+ctxqCvl3LdZVnfo9+i5ej/9Q9kxZss4jAF/r7oe8JYzmUN4byGz5iKYSMGYtaYYfhmRCiWDgvFN8OGKCwJHYJvQwd/FEuGDcLiYQP+lG+HD8L3Y4bju1EjMHXwEEyaPRfjFi/FKGKgydWYOFJeIq0XTMDO3b+DntOmYfqeI5i89yQmEYscDoqsdD8Fy9ZGx3nfY8y+k68Zvf8kRn4CI/adUFFJn3xwWX5zvFEHeL68CzmX0iLT6Ez/4Zwipz+aEZxuxD6V13zCfpRphh8QTr7mdXlhv/YYtZr1Dfy/XY1he47x+J/SlAEOH5Vy7KU7imVI09XP8H3HMWTfUYzacxSFg3tj5MY9mLD3BIZxHYZxXUbtO4vRe8/rQYaf4XJOEy47hcl7D2HS8sXo0NkXc0YMwHeD+mJN/75Y3a836Ym1fbtjXd+upMsHsbZvZ6zt14l0/FPW9O2ITYO7Y8Ogbhju74EVW7fjmwOHsIAolwe1H7le+IoWE2kNWLgQ88/dxPQLD8hDWOQqoBkpzadgpYbo/ON2jL8cpjD2UhjGsDvq8kOMvhKWQvgbjEnDaJmGjL3M7yn9Kir/FlIOP5Y3yjPL/7vQjjP2agTGXYnAeDLh6qPXyHdlmHQ5X32MI/rW4d1EkEefxJhLESop6Ns/H8IYHsu08W8sh43j8Va6jK/Vv/oWbZZtxqhzdzHh2iOMuxapIOVEW1bkuI9jGdIyVsqTxFl2R5GRMv9r4ZjMYYW7jcD4w1fxFcvzaC5n1NUoLiuG5SceEy4npCD9sZh0OQoTuX0TuYwJVx6xG8luJGZevIuZ2zfCy78Vs6z+WD+gN3b16YndvbqTrtjTqyP29gpmNygN7d9ibwqa39u9Te9A7E5Bvu/r0x5HQrvj4OCuGNa2CTYfPorvzl3FogvXUqSVcpNMpPUzv5y5ewu958/HzPO3MI4bPYo7K0uugpqR9HwKVGqMkFV7MfJqNIZficKwK9EYcT0Gg69GEunGYMiV2NeE6jCcjLgSh1EqKv8mV+M1sH/kRzLiahyGEW2ZHipcinkL7e8y7vBr8Uq5H6ksN+E1Mj9lHS6zeyn2LUamMEIH7bD3E//xMKiNYnBT0aB3H/0JI3gcR1AMbyLlJgEjriWyDMRjzMUo1JrxIzyW78aIcxFK2Qi9noih15PYjcew61JeOJ9rPI7XYhRGXItmOYrGUHaHkEEcNojjSXfMhQi4dB6N0UduYuLlGAy7loDBXFZ/LnfgBSlbj0ky1yMJw7ldE28kcR0oV85vJGO1nAcjWRYnUbiTt++ATztPLB/eHz/17YHjvXriBKV1oncXHO/diXTAMQpGQzCO9g3B0f4dcYTZ0hFmS0f6hGjo1QFHegbjSI8ghWM9NRynyI5TZMd7B+FoHw4jJ3tzXr2Dcax/V+zr1wWDWzTBpkMnsOj8Xcy49DCNtJTGGH8o0uq1YD5mXLhFk4dz5zyC+Xuk9fMvv8G5UiN0Xb4dY88/pOgiMIzdkRRY6FWewNwJQ7gTBl9NVJB+LUP5PZQMv6Ki8u8xgmVwpJRDIv0fwzAGBCnHQ1IYzID0LuT3oRw/lMh0wohrSa8Zzu/CMJkv12sYp1H6U5BzRZDlaZHvqeO/uV2pcN4q/wpyTELTMOxqMsvAY6VMjL4YTWmthMcPezH8AmMmZTXkejJ5jCE3eIyvM05SPENFZkpXwxB+H0yZDWJ3EMvMQE43gP2jL0TCJWQURh2+yaydlSX+NoAS7E+pDbzwCAOO3sOg/bcwmAw6cBOhB29g8L7LGH78ljLtKK6TlKmxjN/jt++Cdzsv/BjaF3v6dMOpnt1xumcXnO7VCad6hVAwwRRYUAoacR3p0wF7uwfgpy7+2E9xHR7YFbu7MYvq5IfDirDa4wS7JwX2n+zZjvNpx+k13dOU2EkK7njfLsy4umCIIq2TWHjhAaZcepRyTyvl87a0biup7HCmqe+TlnweP34GpzI1ETRtESYdvohpZ+5g6gWmszwgUtMbxlrbUIE1iyGsSaYi33kwKDYVlX8LqY0OJyN5go96B/Kb1EBFbtrx5PsITifThyqVMJZxoi3fmn7Nd+3v0hVZiZyktq3MN6VfEZbMiwzmuIM43SB2B8t3IgFqoAQpBjJB6SeDU5BA9vb2aYLQx6Iry49F3/zeh755fCj65vc+9M3jQ9E3vz9jKPf/EB6HVFIqOJTMIJaNUZcorVkr4b6C0mL/UGY+Iq5hrMQM4zGWbEuENYTHfyjlI9MN5W9DhKvsJ6FkyLVklocEZlqUVofhGHP4OiZciVbKtWRhQ25Goe2qnSjk2xMl/fqhlO8AlPIfiFIBg1GqTXfU7DoOM5jpTWCZk7I4Ti4pbv+J0vLEj8P6UFpdKK2ulFZniiWE0uqgZEW60jpKYe3pFoAFDSthWAlHLHBriDVd/TGhZlmMKeeCTYGuFBezKwpLEZcIrJdGVid7B3K+gTjD76c4/HifTjhAcQ1p1hgbD57EgvP3Ka2IN6UlLQh1pTXz4h3aNpwb8OfSkk9MTByKlq2JXl8txKStB/HVkcv4imYff5EpJ1Pl4UxPQwXtJRQdQuXyChmqovIvEMqgIJdl5BLdGJHHpRj0PX4fvY7cQa+jdzH47COMYtlVYKAZzfGUrgQdBqLRDDTDeLIPZ790Qy+zoqac/KnfR/A3uUw4nN9HMviMZDAZLUFGLs8wEI3msFH8rkwntWuu16DLMRhIJGgNZ6172E1yi0GK3SEcRyOrOApOwxDZHk7/NlJh5Dw/Ao3sPh5tBvmx6JvXn6FvPh+Cvnn9Gfr20Z9D2XD/D06DcqWJx3sQY9+oyxppea3aj/FyXHmcB/M3yaakXIZSOMPkMqHyXSpXGhkOYkwdwqxtMBnCYYMpMSkP4xlzCwWHYtyha5h8OYoVK7nEKJcWw9F4zhIY2BWBi2sQygX1Q4mgQSjfYSgMC9dDjmJNsORsOKZwmlHXYjBe7qVt35kird6UVmfKhFlWz07vkBazo94h2EcpLXVthE72VvCxscTAOuXhkdccQysVwaYOPjjcPRjHOM6JXlqYZVFWJ3sF4EzPAJzrSXFJBta7Ew716YqhzZpgw4ETmH/uPiZd/BBpccVHXIv6IGnJJywsAg7OZeA5eDQCv/oGs86HY+KFGIx+LS0KSksaaclJOoQnoIrKP42UPbnXJBIZdj4K3Q/cQM35G1Huq5WoOHM12q48iFAR16VYjGEgmngjWWE0y/FIiki5D8XpxzLgCFJjHkOpjLuZhLEpjBLxiIBYE5bfxnJZYxlsRjOohJ57hN5H7yj3PMZw+gm3H1NiDFKcz2gGspFcx+Gc/xgKa9KD5xjF+UmGp9z/UC7Ba5D+t5EKoTbj+jj0Bfz/Kvr2z58jWZK+MqcrrSjUmk1prdmPiXeYOd1KRF+KTComIqtRZByP80ROM5mVm8lclwmU1miJpyyPIkHlEiHLi2TaE8+LtIZSWleZmURq7lFxmeOuhqPNnMXIaFMAU7fsxvyjTCqO3sD84zfg1LoDchZpiO9O3cNXzGZGX5XGGA8pre2p0upLafViltWz4xvSSiWY8umEI8zIdvQIwVzPVqhnlAHVTQwRUDwfvgnxxk+c9miPjpSWjCuItOQ+VhDn2Q5nyYWeQTjXo4OyrCN9uyO0iUZa887do7TC35bWb+TsvduU1jzMunyXO0u/tJ4/f5XSB1SsVAcFCxZH0WLlUdC5FJwKl8OSHXtRqfNAzKa0JvCklhuOw8T4OigHVAdJnbWXOVRU/kmk7El5HM2A0J8ZVvHJy1Fm2o/wWn8cbqsPo4XcbzgfifHMikZRLCK2ERdYIxVhUSwjLkZhGGu4g848xEgGnJEcJgzj8EHnwjGQNdjhVzjsmjQ+4vnAcUZcimKmxmDC4NXr0E1UnLGSy77H4MIMjMFsOOU2lNMNOc15cj5jJMBxnrIOo0WQDGKjOGwEETkN5bz1wnE15xhr/h+BBF19wfu/yttC+nOUuKanvGlIUKQl9/5rzlkJjzX7MOEus+jb3O8U14gbLJMsU22XMdv5ZgcCF21H+6+3o8M3P6Edv3dddxQjTj1geYriMqKZncVQhPGYcDEShZg9jaG0JlBAI1g25BLhuKvRaDt7GTJau2Dm9kNYdOI2Zpy8j5knbsCiqTdyOtXEirMPMO2itPxm3L58D+MVablTWr0oLbmPpcmyTlNYqeIK1iD9FM2JPt1xkHwfHIDm2c1QOnMmtCvlhO+6tsNuacDBTO1EzxCc7Cnjy30xEVR7zo+yorAuUGjn+LtI63i/HhimSOskpcVM64JOpqV9wFikdY7S6jlPpHWH0grHiOvRb0hLhJXZJDe2bturfK9UqS66dO6GNetX4Zvvl2L97t3Ycf4yqnejtC48wHienMOVGl/aA6rhdcMM7ljttXsVlX8SKX8iLamVtll9EPmHzUe3/dcwWqR0MRpjGVzGUjB9jtxB46U7UWvBJjT7bjcGUTIjz0Wg3eaTcF25D3UXbUTTb7dh4NHbGE8xddl1Hg0Xb0H1+evgue4wRjIIjaNIQnafR+2v16P+t1vhxWlrz18PM9aO685di5EUVb9D19F6xR5Un7cG9Tl9jwNXMY5BrNPui2jz/R40W7ITw85EKAKVFrhDeH4N4XzfRmr1IuXU8+1DUc5TCdYqGrT75COQ/ahkVWlQypyIixUYkVaNOavQZuUeVuajKK14jKC4xjPr6rnnIgwqu8KgRHMYFEuhOCnZAnnbdEPnzUdZBsJZOQlnphVNacVhIrMrkdboQ5cpMFaWWDaUjI3ZU8sFK5DBoTQa9hmD1sPnosmIBWg6ajaMarZEjpL18C3FMJXSkrYMEymtCUrrQa+UTKsjRSJZVnAKIi+Ri5aOirSO9eqKDYHe6Fe4AJobZ0anEoXQLIsJRlcrj51dgphlcTxmXCdFXJxGM88QnKH0zlFk55mlnaXYTvbqghPMtERa60Va5x9iIs+ft6XFAcrDxYq0biuZ1kgaXNvkXRGWaR50W7gc9gVLKcPkkqCdnQs2bdmE735cgW0HD2L3xSuo0bU/pUVbX4ngjmO6qxzE1FZPurxuecXCoaLyTyNBXcn+md0Um7wMlSmP0ZItMcMZzYxKWmENOHYXFaevRMkJ3zLIrIXDkNmoPXMVhh29hbKjv0bp0QtRa85qFOg7CfXnrMGgPZdQc8p3qDRhMSpMXgqXoTPRYcNRdNh8HMXGLkDVuT+g2tdr0WjFbtSevRK5/Pui3owVGHf6AerOWoWyk7+l7Nag4Oj5KDxuIQaeC0NVDrftOgE1p67E0OMPmLHJ4yQxGHSVXIvltmjQ1O6lX1Oj17ZY/Fj0nasqH4nsxzRo5CX3pOQqVDSqzV2FVquYzUu2dIuSucVM+lY8uu05h1xePZG7dVdYt+wCu5ZdYUvytuyMEl1Go/fus5ReGOdJad2IwuCbcRh/MQIu7QdjLKU1kUIbziwslIxgLPdauwsWbdojV4v2yNssGDbNgzk/0joIZUIGYMaZW5gkz3YxZk+89AATtu2CT6AvVoZKQwyRTDAlE0QkMxJpSealQbIwkdaBbh0wr3519LbLifEU1aoO/hhazBnDCjliS4Anjr+WloZT/H6GkhJRnRN6yPworBRpDW/SmNI6hbnnwzCB56f+TIvS6jFvLqV1U8m0tNISYRlRWB2Xb8fUw+dQpmojHD58Spm+ePGKGDxkBBYsWYKNu/dg7+WrqNq5N+ZcvMsTXhpzsAYhB0nb6iUN+gKJiso/hdSIRVqDmTU5j/sGtb7eiLEUwVgGFMmYprLs+q85hCKDZ2EgM7DJPHm6bT6F7AFD0H/bGVQInQfPxVsx/UIEfJZtR/7Oo+C9aDPydxqJptOWw33hBpQdOguuC9aj2pCZqDt5CSZde4TQSw+VCl3PfRdRcth0hB68ghGHbiCvb3/02nkG4y6GsbZ9DsbevdDtwGVUm7ESlcYs4Th3MP6CXGbUSGvgB0kr6aNQWqgx6Kr8Nd7etzJcpMUsWFr3XY5CFUqrOTOtUMbawTd53G7IMYxGn9N3EbTjDDpsPY0uW06j55Yz6LH1DDpvOonuO89jxDm57BzJYxWFgdc53a0EjLoQBqfggRh56JLysgflWS7OdxjHGcLffDYeRodNx9Bl03F0Z7cHs7UeW45g8IGLmHJNmrxHKmVSHmSfsH0XfAN9sFLJtFKat/cJVLqnmSGd6dmZdElB7nl1wlFmS1vbuWGtd3Ps6RmkPFS8o6M3tvi3xUFmWoq0KCYNnXGanCXnenR5jTSrF2mdFGk1prQOnsFcZlkTWIHUK60LD0Rac96QlmOVJoqw2q3ah9HnH2Dy4fMYvWgFcufVvP39+vWbyO9QDHMXLcbaHTtx4Op11Ok1CLNFWlfDFGlpmm2+LSxBXyBRUfmn0Epr2KUolJr2Pcoz8xlHEUxg4J/M4DL9RgI8lmxH+QEzMPl0OGZejMGkE/eRMygU/TYeR63Ri9B51X7MZQDqtvYQ7IKGoMmkpSjZayLafbMFId/vRAcycOtJlO86Bn5fb+A8oxggwjH+ViJ677+EQgMnIfTAFQz86QJsPftg4sm7mMQgM/bUHZh69kBv/laLGVxNZnvjTkcobzQYeUXuWcUqwlKl9Xny9r6VbEuOibTq1Eir6rw1irSGX4tBKDOsQRTQkJuJ6MtsP/RmEjMwzeMQw1lORxB5OFketxh2mcdfuaepefRhyE3+fuEhCnYegiGHL2D4hfuKGEOlUQ+XN4xlYiTHG6FclozFqKvyYH0sRrOsj6TcZPlD2S/3QuVtKuO374ZPu7TSCkhpOKG5jHeWshIkWzrTMwQnerTHsZ6BON67HY718icBONLdD8cpsBM9gimqDjjZnVlb95Qsi5xTpKVBBHaK8zoulxv7dsWIpo2xLkVaUlH7YGlJU1vZibLho87dx8Qj5/HdkTMoUqKqIiz5FChYCrMXLlKkte/KNVTu2IPSYo1QkZbUBlRpqXyeaKUlDSS8Nh5D7qEzEbDlOEacD2clLRy9dl+E34/74NxnKkL3XcO0sxHovOYw8nQajSE7zqP2mG8Q/ONeLLwZjy7rDyNf55HwnLcWVZhVjdt/BQsvRmH8wWsYd+Aqao2Yh9pjF2L40ausFT9A3+O3FWmVGjkTw45cx9gT95A7ZDh6bT6GKRcj0GPbCRgHDcKwU3dRe+F61Jq/njXoaKXl4jAGHAkwGkGl3L96A6nRS5CUczdt8Hw/qrT+Ht7et5ryprQqpFDkTUI15q+F+5oDGH+DZZDHUioicvw0z+AlUmIaNOWVx5RlVXn27zJFRIZTYkqli/OcRPEU7j0GQ49dwdir4ZQShSRlm4JS7m8RpeGOsgxt2WGGR4aItJTLiZEYd/khpbUPvu3bU1r9sK9PR8pJ7jtpWvmd6xmsfD+rdDWcUe51tWfGJZcRpauLDNPeD0vlDKeTeWnmx2GUnjx4fLRHOxzsFoDhTRtQWqfTSkuEpfn7Khpp3VUuD86mtMYr0uKGKtKSHR7PE+0hRu0/hTXnb2D3yfPI71gSbu6B+HHDFly4cQtHLlzEyv0HUb1b3zekpV4eVPlckSCiNMRgjbT/qXuoMGslik76Fs2W/6Q0pKgxaxV67bmEypPlHtVSuDLrKjZ0LvxX7MXYY3dQd+pyBKzah694wnffeRqFh0xH/+2nUW7wTDSYvAztvv8JdSd+i96bjmPgjjMo2HcSms5fhUaL1qMxM7C+R66ixJg5aPHtFky5HINWCzag+PC5aPrNRpQd/zVaL92GMQxwDb/bQXYq995Cpfk8A48EHU2mFcd+CXK6yE1/jbQ+BX1BWOXj0L9fKS15FIHHdMrtZDRYsJ7HeAeGsCwNOHobfY/eQm9BKjS6nLiDPscJu31P3EU/0l+6MkymO3ILww5fh0vPMeix/Sj6H7iIAQevY8ChW+h76Cb6HLpOrqF3Cr0Ejt/zNVf5/RI5j4GHzqDfmi1oEhiEuUP6YVWvTthKSW3pFYTNlNBmZlqbe3Yk0g3BJn4XNjJD2tC7E9brYUNv+S0EGziesDFlGs28UpDhHGdt7w74rosferVpidVcn7ks8+MvRIu0xFoiLM0fDNNI6x6lNU+R1gRKaxSlJSnqkJuPlVrCyAsRCN1zEt8cO4+9HGfphk04cukSth4+il0nz2DZlu1YuO0n1Ow9BDMv3FFe7jjiaiRrAfLMwtvCUqWl8m8jwUWkpTz3dCkKfU/eQ6u1B1GTwmqwbAd6HJCWhNEYdf4R2q7Yh7oLNiJg/TFMpjjGnmM2xEys/9GbGHstCgNO3ka7Lcc4/CEGMMtqs2Sb0mDDb+V+jD39AFMvRaL3rnNoLi0Nl2xFt0M3lPe+tdt6BC1/oJA4jtxw9t9wFHUWb4LH2gMYyWmG8zwMYdDpxPHlmTKNsOQZnTgMlK68pkfpj035rnl2R1tDl4zrY9FIT+VT0bdPNeLSVJLkcQV5/srzh72oMeUHtP5mK8vLdrRasgUteOxbklaLN6INKy9aWrPctGK3BWnO35pxnCZLNrOCswWtFm1Bm7lrUab/NHZXow1l6Pr1ZrizDLpynm05riuncScenF5wFxZvhpvy23oufzVaf7sSbZesQOs538I1dAyGjRyByUP6Y8bQPpg8rDcmDeuLKaEDMXXooNdMCdUwOXQwJoYOwYRhQzBeB/k+cdhgTjsIk5TxNMg0uvMRJg0ZwPEGYyxl2a3fAHx37Cpd8gjjlIYYymtydaWF19Kac+k2Jkh6KZcHb3BH33hM8SQrz6R023ocwcs2os/yDegy71sMWLoSvRevQM9FP6DzgmXo8u0qeC9cgakXH1BanMcVafae8lCdKi2VzxBNtkUZyDNU7I5k0JdnXEZLl8FlBEUgDxCP5DBhlHy/Ii8Y1XyXceXSjtwXGHE1BmPYP4ZdadAxmjVq6dcy/kYcJlAyo2R6imUMlzGW59kYDpd5yHNaMk95KeowOXc4TC7lKPdBlMqfwMCoSEnzaqd3w3H0bK/Kv4fEQbnypJQzVnz6HL6F9lvPIHjbWXQgHbedQcetp9FJaYBxCl1JtxSkv8vWU+hMOhEZT8bvxOm6ch49+Xsf0nPrSXTn7935e3f+3k1Qvp9CjxR6Chy3l9LI47QyrNu24+QoOYJe249h+I4jmLJlF2Zu3IZZm7biq81byDZM37wDMzbtfIPpm3fyNw3TyFQd5Lsu2vEEmU5BO58N27m8HZi96SdM3LQHM8/cwsRLjzD2ojR5V/6KlghLV1r30XPefErrjkZa0ojiBmVzIxnDrj/BiMtMbU+HYzBT0tDjNzHi2DWMPHoNw8mwI1cReoTdEzcx/PQ9jOOCxshT2TwwUjuUtFh5aS7lp4vmFSQqKv8eyqWcFHEJmnsEqaTKQhe5N5GW1N8lMMm7497FsJQb7MrNdU6ruxx5LZM0Zdfca5BLf9rLf28GQOVlqZx2AOnPdR6Qggz7y8LiPhl0ReWT4f7Tu195XOSelWRbGjRvZJFXfMnb/+X1YKMZZ8deSmAM1Y/89ibxHB5LYkg0iUrpCjIs7i3GkwkX5YHkBA2cz3jOZzznM57TTeA85M+WTL70EFMuyQtrH7D/05kkXH6AiXqQ4YKMN43JzswLDzD7/ENMI6Mu3ud+eYTRymucXkvrN8hfMdZI6wGltQBzL93FREpr5LVIDGINsP/NZAy88QQDrz7GgEs8INy4odzoERdjMPJitPKgo+bPNUjNlCc/u/K78t4z5RquBAZKitMPvfbkDWSYisq/S7JSRrXP1ygvPKXMtMilbf1wute8+ZvuvY13oSyTAU6Wpx0m75PTojuu8hvnO/h1ZU/DIA4TBvJ3LdphGiF/GrrrofJp6N2vynHh7ylIxeJ15UI5ziwTRF6E++FIGZJK17tIKdNp0PxlAN0308t3aakYrzTckObvw6/KlbK/jjS7D02DNNfXJZTjjbgib4uJwtjL9AoTn2GXw7mejyivsPdJayHmX7yLycrlwUeUVgylxZoca4YDuIMGygl64ykGsjYQSoZflveqsebIjVV2wvXHrEmKnDQ7XxMQBA67+oQr+/QNhnCYisq/i0ZcWqS8yp+P+BSGEu18BjMQfCq66/MamXcatPLSC6eR9dG3nu9Duw361kvlz9EeL737NYXBZFAaZNinIceby/4I5NaMprKlWa9UZBgrVAra7F8uTf81lCsG1/Wj/D2wlH4ZT+7ZKq0cpck+BRZ6OfLDpDXpShhGXZPXhDxi7S0Sg2m+IUwbQ5luyjMC8gfNxnCYNMEVxlyOIbFKc1x5L5qgyb40zxaMeMvqKSh/kEzTP4zd18h3FZV/DE2l668jz9BoKnShl+I/Dk4j075G5qUz77R/m0mXoRxfi+5wme7Nv6/156Rug6yTyseiPXZv79cUUjKdN96ekTLsU46XNHsffoXJw0ciV8VGXk5MgwyTmC3PAgoSw/86culTLoHqIsO0yF84kMukyr1l9kt30MVIlmdmYW9Li7yW1kNK62vMU6QVjjEU1tCLDzDk3D2MvRCOKWTG+XDMJHPYP//8AywkC849YP9DhblkzvkwhdkK4Qry1ndh5vmINznHeWrh71pmcv4qKv8cYZ89Mz6BWTzZVT4PZr+j/+/h4Ucj6/BuGLf/Zma9h5lc5ldkCtdrwoX7mMDuKPpj2CWNuEZxHAOaitJKaT34hzxcTGndD0PPud8or2CaqEgrEiMvhWHuvURsSXyJ3TEvcTL2BU6TM3EvcC72Oc7rIN/P8bezWjiOIONqeP4Wp2Of4ZTC05Suisq/Actf3N/DaYVnOB3/DGc+EBlXIc28dDn5CSjrojv/D0Df+ql8PG/tV5YJLWf1IMOl3JziuCc/Ch7r+CcfzSlOp0GzzDd5/rdy8h1ofzvB7T5GDnF99pKVd6Mx+extjLworzyLprSkIYbynFbKw8X0l0ZaEegxdwnNp3nZrbQeHHk5AisTfsVFjnP35f8h5vmviH/+M+K0PHuFBHYTX8rwV0o38dVv7P8FCTLsxc9vkPCSw1/9wnFkPB04rvym/a6Mp0VnvCTOW7rxKioqKukIiWN/hr7p/pxf/gL65vdvQGeQmJ9/RTiTqJ0RsZhx4S5GMdMadln+LmPaF+a+ltYjSutbjnwPY6XFhryT6nI4ViX+ihscJ+rF73jy7BmeP3uK58+f4WkKT548Ufj555/x8uVLvHr1Ck+fyjjP8UzGZzctL168UJBxZRxBvktXppX5pB1XO/6LV/zt5QsVFRUVlXTMM/KUvBBvvHilDEv87Vfsjoiih+4of0dOXlc1+tIbL8wlb0nrPsZcidT84TpmWlppRYq0nlIulNbTp0+w/+ABXL56RRGMiEa4cuUKTpw4gbi4OEU48pvIRiugtCLSCu7+/fvKNNrxdafRfteOr0pLRUVFJf3z4dJSXuOkT1oR6D53CaZTWtJW/n3SevL0Mbx8vDF95kxERkUpmVZ8fDxGjhyJ0aNHIzo6+rV4dLOotMjvEREROHDgAB48ePA6U9OVly7K8JSNVVFRUVFJ34i0nr94iZfPNcnIR0orNdN6n7RePtdIq1KVyhg9ZjROnTqlSOvIkSPo2rUr+vfvr4goLCwMFy9exL1795CYmIg7d+7g7t27uHHjBsLDw5UM6/r168p4V69eVboiMRmuZFSUlL5s6zl59oIyVFFRUVFJtzxN4Rlj+stnqdLa805pibDektZSjvwAYygteRfasBRpXf/9bWlVrV4Ny1eswI8//qiISTKsZcuWYdCgQbh06RLmzZuHwYMHY9KkSTh//jzGjBmDuXPnYsqUKVi1ahViY2PRt29fXLt2DRcuXMCaNWsU2UkGpissfdLS/U1FRUVFJf3xjIi0nj9PkRZje+Jvv2BPeOT7pJW2IUaKtOT1GymZ1uoEjbQe6ZHW3v37sHjxYqxduxbTpk3D/v37MWDAAOzYsQO9e/fGnDlzMHHixNfDt27dimPHjinDb9++DT8/P9y6dQtnz55V5iOXCJOTk19nWlp56UpLO0xFRUVFJX0jGdcLSusVpfWC/Ym/pkjr/G1FVnqkJU3etc9paaV1X5FW6LUYRVprEn/DNW2mJfehlIYYj1GjVk2cPX9OEZZkTLt27VIu/Ymctm3bhoEDByrZ0+HDh5VMbNSoUTh37pzSWEOkJZcGu3XrpjTc2LdvH2bPnq00yJBWiO+7PKhKS0VFReXLQL+0Hn2MtJYp0hpNaQ0VaV2JwNoUaT16mSKtp08orSdwc3fDlWvXcPr0aSVLkoxJ7llNmDABZ86cUcQ0ffp0LF++XLmfJVK6fPmyIqulS5cqgpLLiXK5cOrUqZgxY4YyTC4PSoML3Q1LK60XMkxFRUVFJd2iSIu8TJGWfE/45WfsCaO0zr1TWjqvcVKk9R1mKplWtCKtEe+R1vadOxAXH69cztPei5IWhHJ/6vHjx8q9qs2bNytZl2Ra0igjJiZGadouvyUlJSmNL7Zs2YKdO3cqWZhMr2yILCdlowRdYb0UOExFRUVFJX0j8hJp/SyZFvsTKa29Dz9BWmP1SuuP19J69uwpkp88Vlp7aB8q1qIVjnS1/SIb6deKJ62MtN/TykqLdjxBlZaKiorKl4GI6hWl9ctTjbSS/rq0Hr1TWk+JSOulznNVIhitrKTpurZfS1oZpUU7jq7ItN9VaamoqKh8Wfyt0pKGGCMu6788+Ia0UoSlFU1aUemiKyJ9aMfRzkuLdv6CKi0VFRWVL4O/RVqzLj6gtKT1oLx7MLX1oEZalEgaackrOLRC0YrnXeiKSB/acbTz0qKdv4J8J/p2gIqKiopK+kDiuMR3bUMM+S73tPZ8fKaleU5rmFZaCb/h6h8aaT2ltOQ1TlppSXNFXbno8iGS+lS04lJRUVFRSZ9ILJfWg9om7/JdWg/u/tjWg7N0pCVvxFitldaL3z5KWioqKioqKu9D9zkt+f6J0nqoSktFRUVF5X+OKi0VFRUVlXSDKi0VFRUVlXSDKi0VFRUVlXSDKi0VFRUVlXSDKi0VFRUVlXSDKi0VFRUVlXSDKi0VFRUVlXSDKi0VFRUVlXSDKi0VFRUVlXSDKi0VFZX/APJC7Y9F33xU/m1UaamoqHzhaCUkQe5jUMX1OaJKS0VF5QvnU4SlRRXX54YqLRUVlS8cVVpfEqq0VFRUvnBUaX1JqNJSUVH5wlGl9SWhSktFReULR5XWl4QqLRUVlS8cVVpfEqq0VFRUvnBUaX1JqNJSUVH5wlGl9SWhSktFReULR5XWl4QqLRUVlS8cVVpfEqq0VFRUvnBUaX1JqNJSUVH5wlGl9SWhSktFReU/wKeISxXW54gqLRUVlf8IIqGPQd88VP5tVGmpqKioqKQbVGmpqKioqKQbVGmpqKioqKQbVGmpqKioqKQbVGmpqKioqKQbVGmpqKj8R3j2DvSNq/K5okpLRUXlP4DI6akeVGmlN1Rpqaio/AdQpfWloEpLRUXlP4AqrS8FVVoqKir/AVRpfSmo0lJRUfkPoErrS0GVloqKyn8AkdO70De+yueKKi0VFRUVlXSDKi0VFRUVlXSDKi0VFRUVlXSDKi0VFRUVlXSDKi0VFRUVlXSDKi0VFRUVlXSDKi0VFRUVlXSDKi0VFRUVlXSDKi0VFRUVlXSDKi0VFRUVlXSDKi0VFRUVlXSDKi0VFRUVlXSDKi0VFRUVlXSDKi2Vz44X70DfuCoqKp8P+s7b96FvHn+GKi2Vzw4pzC/TkLaQPxNYltIVOuuv8uWSLsvmJ6K73frO2/ehSkvli+Fdhf8NabEcPU1nqGX/v0F6LJufiu52f6y0BN3pPxRVWiqfHaq0VNIzqrQ+HN3pPxRVWiqfHZ8qrecvX3zevCA626DyhaLv2H8BpD3flHNOZ7tVaan8Z5HCn/YEeENYRN8J9Iwn1ueMSEu9r/VloxxfPcf+S0DvOaez7Zrz9sUb5+370D2nPwZVWiqfJVpxaZFhUnYEfSePgpxYnyFvnPxcT5UvHJ3jra88pFu4bRqeveaZkHJ+PqdIRCYa3j6H06J7vn8Mso9VaamkC6TsvCGptOg70T4TXgcxfeut8kXxRQpLIWUbXzKWa1HExW3Wc76m8uI96Bv//ajS+hd49owHmjx9+hRPnjxR0A7Th755/BdJz9J6jb71Vvmy0HfcvwSU7ZMMSyssrbRSsi45R7Xn6uv4Jd9FLvpQpZWuePHiBe7evYuLFy8iOjoaSUlJePz4sSIyLWmllVoQ3hye3km7Xe/aNlVaKukG7bFOe/zTM1phKTzRQTNMuVSowO3mOayB5y0FpQ+NuN4+z/8MVVr/Ek8eP8HKH1di6pSpOH78OG7fvo3IyEhFXpJ56Urrfeibd3pC7zaRd10DV2pzclKQtJfbtJdlPmu025AGpWUhf9eibxx9fOg0b4wn+0rPOJ8M5/fG/PWNk4LueF8qumXzreOfjnn+Uo4fz09mWak8UXhGeWnRyE17Xsp+eKkXjbg4z49Elda/gATmp0+eYtWPq7Ds22VYu2YtNm/ajLNnzyEsLByJiYmKuGRcOTi6032JiKS0/SKnlywzr9hNS9qWR68DYTpBV8AqXy5yrHVF/bqcpqmYpCdeCIosnpInGiioFy+SuV1JCs9S0GRfWnGp0vpieMkDtmHdBhw6cAhhD8OxaeMmrFq1GleuXMWjR5FITnrM8XhgXr5SuvrmIZcY0ycvU+D2CbItPBmey4lAcb0Unj7DKx3ku/AiBRHda4lxHi85v8+dV+TnNMj2K9vA8+Q1Kdslv6UdX8srlol3Tfeh46Ud91NRlqE9bjrz1l3/18OVdUgZ94tDU7l6IV1u82uJ8Tdt5Sw98/I5z0Wep694nmp5SWm9eJFIAcVTXAmE/S8eU0qqtBTkwMfGxqZ7YmJiEBsTh++WLsfB/Yfw2y+/IS4uHuvWbsDGDZtw5sw53Lx5BxHhkRw3FlFRUW8RLURHK8j80hXRcVzvOPbHIj46BolyTy8mAk9iwvCC/Bwdhl+jw/Ebh/1OpCv8qktsBH6JfUS03XRAzCOu++fDL8q+1P/bX0M73//V/D9PfouJVLrKcY6NVLpaftbpT69otlPOvfAUeJ7GPcQv8Q/xcyLP2ydRFJuIS6Ql97koa0rrWYqg3kZ/ZfzP+Kylpb1kpO2X+zzfffcd5syZg1mzZinMnDkzXTJj+kyEBHfE1s3b8Ptv3Kf/93+ICIvExvWbMX7sRIwYPgoTxk3ClMlT8dW06Rx/BmamZcYMzCD65v95I8dvLmbOmoPZ/L5o5gys/GoibmxchkfrZiJhzVQkrZqG5FXTyQwySyFp1Wwkr56DJGHNHCSmN7jegrL+uvA3vegbV4u+8bV8ynh/BX3zFj5knC+SuUhaq495Osx/i8Q18z5z5iokCNyehLVzFGLXzUPcTyvwB+X1a1IMxaWVlsR7xnBFTvqQOC/xXR9v+0DLZyctuWSk7dcnrSJFisDS0hKmpqYwMTGBkZFRuiSLuSWyWWbH90t/wO+//oFff9aIKyoyGmNHjUfu3HmQwzInsphYwMTIFKZGJiQzMVIwIZlT5pW+MIaxcRYeu6wwMbOAWWZj2HB4w1zm2NHfDwfaFccJLxucd7fFRXc7kp844qKbEy64O7PfGRc8XHBeReUz5YJnIVzwKpyKp1CEFE2hGCmehmKc9nOmKM55FMFZbseZNBzzKoWzAwOBiJv442kipZWMpy81rQqfkfdLSH5PyxcmLWdnZ0VYEgAzZcqEDBkywMDAIJ2Rgest654RP/6wEn/89gdecV/99vP/4fmTV7h0/iq6dOwBc2MrZDDICCODzMickZLi9upiRAyJ7Ic/I2PGjHrW498gI9fHBJkMzZGBIjbJmAm2HF7bzACrgxriaGAxXPe1RphndkS4CzlJHmJNbBHhoSHcU0Xl8yTCyw6P0iDDIrzsEa6QXz+e/O2zJh/PS7u3uOlDKff1YsC/jT+SYvHyqTTG0GRbGmkJb8d6Dbqy0vKFSatw4cKvMyxDQ8O3gnN6wDCTIbOkzDAzyYI1q9bi1ctfkBCfjCfJz3H+zGWMHjEegX7ByJ3DFlmMs8LU0AwmmYxhYsgMi9usxZgYEdkP70Lf8v9dZJ1MkNGI0jJmtszjaMuKRz0LA2zr3hpnQ0rjvr8NYr2zId4zK+I9rEhOxLvnJnmQ4JGHw1VUPl8SvfLqJYHEkzjv9Ig1sSG2iPPK9wYPfYvgdLfWQNQd/PE4Hq+YbT19wWxLKy1FXG/Heg26stLyBUpLm2UJkkFItpWekHWWdTczM8cPP6xAVGQMvl28DHt3HcDqletRsVw1NGvcCpUqVEOB/M7IYZVLuTyokVYqxuRjpKVvXf55ZD2MYWBkBgNjVj4MmWlxeD1zA2zq0BgXO5RBWABPBp8cDAAUFjOueM9ciPPITTTSEhJVVD5XPCkpXXSl5Z2HgT83K2XpiTyE0mK2GMeMMM7L8Q0e+hbH2Z6uQCQzreQ4SouZllwiVKWVKi3dAKz/EtTnjwhFMsYxY8Zi6pRpKFOqHIYMHIZD+4+iR9c+6N2jHzzcvFGhbCU45CsICzNmXEbMTAxFXpJ1GVNamd+SVFq0wvqcLg8aGGSGAbNHg8zGMMqUETYcXp+Z1uaQJrgUXBrhAfaUFrMrT8m2RF4aaWkzrUQPBgEVlc+UJE/rt0gUvKwVccV5sQJGGaQPRLKSaTHLei0tB0VWutI6J9J6dOu1tJ5RWoqsFGEJb8d6DdrfdfnCpFW0aNHPKAB/OiKSzJkzo0yZssiZMyesc9sxu2qBY4eP47ulK9C/zyB4e/qhaqXqKFW8DDMuJyXjMpeGGQz4mTMwS8kkl0g1l0nfhVZauuhbn3+OFGllMlGkZUhp5eXw+pap0oqgtOJ9cqUIS+SlKy3WWD0YAFRUPlOSPG2Q7Gn7miSilZY243r78huH+1BqnyU2SPC2JfYkP3Egjq8Jo7TO92irSOv/Hsfh52dJeP4smWKRB5Elfr9PQtrf06JvXA2fpbT0iUuE9SVJS7JEkYpsS8ECzmhQryEG9R+M2TPm4v7dMLRv1xFNGjZD6eJlUdSlOFwKFkF+W0fkzmkNS7NszLqyIDOzrkwUl9wnSisrfegT2D+PrAeFJZmWkTH7MyKPIaWVzQAbKa2L7UtRWqzNsZb3prRyEhEZxcUAoIpL5XPlbWnZpEiLmZiSbVkjXo+0PldkXRO8KC5mWvFe+RTevKdV9A1p/cJM68Wzx8rDyCIX7VtC/i5Uaf1DpL2UKd+NjU1gbW0LN1dPfL1gETZv3Ip5sxfg1ImzmDNzPpo2aoGSRcuikFNxFHEuwYyrHJwLFEaeXLbIYmIFYyNzZioS+N+fbQm64pD99+8hyzdmpmWqkZZhJuSltOqJtDo2wQVKK9zfnieLPmlJvwznSSQoWZeKyueD9vJgsg6ay4MiLB1psV9kkB6QzFCklUhpJVBSCV72XP9UwnyK4kIaab2ktF4x9r+kWP5ucanS+h8jcpL1FVnoiksakzg4OKJtW1csWPA1Tp08g7u372HD2k1YtGAJlnzzHULad0H7gBA0b9IalcpVQ7nSlVGhTBUUKlhMEZeFuRWMmG0Zprm3pSsofWjX4d8h5fKggWRbxkpDEmujDKiX3QAbKK1zQSUR5pdWWjkorOxEc38rbWstFZXPgQQiDTGSKKhkHeS7boMM7SXC9ESiSMvTjuQj+YnDayJ8iuFi91Rp/UppvXqqkZaI5aUqrfQhLW1moRWFyEQrLbmXJc+beXh4YuHCRThz+hwe3A/Dg3vh2L1zH0aNGIdunXth6qQZmPnVHAzqH8qsqxWqVqqF6lXqoGK5qsrlwjy5bWBhYcX5ibg+TFhC2nX9Z0kjrUwaadWltNbrlZaGOI9sirg0EtMfNFRU/m0+VFrpTVxvSitVWFppXUqR1h/6pPVMlVa6kZYIQisSyayktaDg6OgIb28fCutrXLhwUWnyfvf2fRw7chIzp8+Fv097+Hq1UzKuNSs3sPst+vYahLatvFC/TlNUrViTWVclFHYuChtrO1haWqU8cG3M5ck9Ls19Lg2fv7RsdDKt8+1L4aFfvjSZllwaFHFpv+sPGCoq/zb/DWm9nWm9W1ryMuX/kLS0wvrcpaVPDNrMRxBhSXZlZWUFJycnCssbixYtVi4JRkfH4/HjZzh+9CQWzvuGwgpCk4Yt0aFdZ/zw3Srs/ukANm/Yjm8WLsWAvkPh4eqHOjUaKOKqWL4qCrkUU+6LWVpmg5lZFi7HjMsz5XIl+3r70qEg6/fv7cNUaWWQB6YpLTuRVjYDbOrUHBfal6a0JNOSIKCRVIKX9MtlQS1vBgoVlc+F/4a0dMXlSGkVp7TaMODf1JFWMqXyTCMties6Mf6vokrrLyKX/N4UFqWgNEMXWWSGkTGzCXlnoLkZChQoADc3NyxesoQZ1iVEREQjPDwKly9dx/y5XyPANwgli5RByaLl0M6/A1b+sAaHDhzDnp0HsHHdVnw9fwkG9QuFl7s/GtVvjprV6iniKlq4BGxt8yN7tlwwN7OEqTHlJY00DEVemvXQ5d+QVup+EmlKq0czrospzLiv8hlmQP2slFZIc1wMKoMw3xRpeWmyLDlptEFBGmC864TXDR4qKv8GX760tGgvExagtErgUg+ttOJ1Mq2nRPMnaf5T0hJRabvyhxE/J2nJemhlpcliKCtpEZeZQVkHU3NzOBcqBB8/XyxZ+i2uXruG+IREREbF4uzZS/jhh9Xw8fRHqWJlkDNLLhQpUBQh7Tpi5fJV2L/7IA7uPYKftu/F5vU7sGzxDwgdOBLBgZ3RvHEb1K/TBLVr1EP5MhXhaO+E7Ja5YWFqBdPMlhRXFkUMqVlXahP5f19apjBipmXBfWafidKyNMDG4Ga4FFSO0sqPGLk86M2silmWcoJ7aJq5KzAAyE3vtAFD38mWXki7LSrpky9XWoKIS4tWWgUprZKUVisG/Bsp0mKW9Vpa8ne43ictfc9oCfrG1fBZS0ubXaUXaUlGZWhMORhTFMbMJIiFVXa4FClKYflh6XfLcEWElZhIknDh4lVmXcvRvVtfVKlUA/ltHJHDIgdcHJzh4+6D5d8ux6G9h3Fo31El29q78yB2bN6DxQu/w4QxUxES1BVtW3qgScMWFFd9lC5eHgXsXZAjax5mW1m5TpJtSUajKy3JtP5taUkzfXk42hhZKdH8GTOgQRYD7OjiisvtKlBaDpSWPIlPabGrPJSpPKCZgnxPc1Kld/QFQJX0x5ctrRSUJvySbWmlJZlWSwb86ynSorAUackfinz6J9L6Qt6IkV6llVkuBZqYIrMpMxwTcxixW7ZCJXTs0gXfLluGazduIDH5sSKtm7fu4LvvV6JDSFdUr1YH5cpUQPEiJeBo50BpFUSzhk0wc+oMbN24DUcOHFPEdfTASezfdRhbmHGt/mEdJo2bhk4dusG1tSdaNm1LcTVQmsU75HOCZZacMHotLWmkocm4Pg9pUe4UljG7VpSWA39rYG6An7q6KdJ6SGlFp0grwUdOFFVaKumD/4S0BOVclPtaWmm1YMC/9g5pyUPG+uP9FyEtLSIqLdrvn5u0dBFpmZmZwYhZlhGFlS1XXhQrWRohnbpg9dr1uHn7Lp4+/xnPX/yCu/fDsGbtBvTo1Rv1GzRChQoVUbVyFVIZpYoVQ+GCBVGmWHH4SwvDOfOxdcNW7PtpX4q8jmDvTwfw09bdWMYsbdL4acrzXF7ufvB080WLpq1RvkwlODkWQu7c0kAjB0xNLSgtTcb1+Ugrsx5puX+0tCRQpD3B0iNpg59K+uS/Iy25RKhK6w3Sm7QkKIu0zLNYwNzCCkWKFkenLl2xbv1GSuohnjx9SV7h3v0IDtuKgYNC4ebhgdq1a6Nq1SqoWb0a6tSohoplSqKoc0Hkt86DkoWLoL1/IGZ/NRPrV6/HgT0HKa3DOLDrIPbt3I8NazZTXD9g3KhJ6Na5N4ICQuDaygMN6jVRLjcWKVwCNjb2sLLKmZJxmVEYcmlOpPXPNn3/MGlpMi25PKhKSyU9okpLlVa6kpa5uTly5cqD0qXLoUuXbti0eQsePAjjej9HYuJTXL9+F6tWbUD//kPRtq0HmjZthgYN6qNO7VqoXKkCKlcsj+JFXVDA3gbWOa1gnS07ypcohU5BwZg5ZTq2MeM6uPsQ9mzbq3R3sSviWr70R0wcOwU9u/SBt7u/cp+rZfO2qFW9LkqWKAMb6/wwMsyiIA0gDAxEHP9stqVPWkYZjGBlaKSRlqkBdnZqg8sB5RHmkyqtP7unJYEi7QmWHkkb/FTSJ6q0PkZaEtsFVVr/cyQAS1fWQ9sv3ezZc6BUqTKKsDZu3ITw8Ag8fvwU8fFJuHDhClb+uBYDBzLDcvVGw4ZN0KhRIzRp3AgNG9RDqZLFUbRIIdjbWSMvhZU3W1ZYZ80Kx9x5UJ0S7OTXDvOmzsKWNVuwd9s+HN5zhNnWAWzf9BM2r9uOpd8sx9gRE9A1pAd8PQOUS4Vyr6t2zXooUawsslvlhZmxFTLJe/8MRB7ajCt1G/6X6JNWZkorm2Hm19LaHtKK0iqHcB9HxHjLyzpVaamkL1Rpfai0tMJ6F2nHT0WV1iegKypZF0EeHK5YsSK6deuONWvW4t69+9yxL/Hq5c+4ceMWli//EQMHDIGHuw8aN2qORg2bohkzrWZNm6Je7doo5OICW1tr5KSssjFjy2lqilymJshrYg57i6yoWYri8gnC7IkzsW3dDuzbcQC7Ka+fNu/Bjk27sGntNiyevxRjhk9Alw494ENx+Xm3Q+sWbqhXpxGKFS4J61x2MDOx4LrLeotA/rm/S5ZWWoq4UqTlyN/qmxhga/sWuOxf9k+lpbzlXSdQ6DvJ0hu6gU8l/aJKK620nlBa8idK9GVT75fTu1Cl9Ylog700wMiWLRvKlCmD7t27Y93adXhw/wGePXmGp8yywh9GYN2a9ejXpz883LzQpFFTNGrQmNJqgqaNm6J+3fqoVL4i7GxsKaycyEFB5TSzQB5jc+QypLgMTZDT2Bj5sudCxRJlEOwbjOkU17oVGxVZ7dy8G3u3i8D2Y/2Pm16Lq1fXfgjkuAG+7ZWMq26thijJjMs6dz4YG5lSGpq//vxPCEvQlVYGrbQyUlrcNgd5uNjYAFuCmuOy3wdIy+PNIK/vJEtv6G6PSvpFldaHSksrLv3x/32o0voEtAFY1kO6JUqUQMeOHbFlyxaEh4XzIL3Es6fPER0ZjQ3rN6J/3wGUVTPlb2YpwiL169RH3Zp1Ubl8ZTg5FlSEld3CCnmyZoc9+x2tcsLB0gp2FhbIbWoMy4wGyGmeBZVKloOvqy+mjJ2CtcvXKVmXSOvgrsPYSYmtX6kR19QJ09GtY0+EBHVRxCWtC+vWaoBiRUoiTx5bZobZlYYj2n0p2yEC1m5X2m3+q+hKy4DCEt6QlumnSUvfCZYe0Q18KukXVVqqtD5bacm7BOUltcWKFUPnzp2xfv16xMTE4OWLl3j14hXu332AH75fgZ7de6FNqzaoXb026tSog8YUlsirauVqKF60OPLnyw/bPHmRyyorsyxz5M1qjuL57VCrZHHUKlEUVQoVQPE82eFokRn5zIyQP1t2lCpYGJ4t3TB+2Fis+PZHJdvatWWvcqlw6/qdWEmZLV64FFMmfIWBfYeia6deCPQLhoerN2XZEKVLlUX+/A7ImtUqRSRvCut/kX2llZZkW/qlVeYtaSmvblKlpZIOUKWlSuuzlJYsXy4JSoYVEBCAtWvX4uHDh3j5kjuR23v/7n1s3bQVvSisRvUbo2G9RqjDrKperXr83gj1atdDWYrDMb8jclhZIWcWc9iYGKFIziyo4mQH12rl0L11U/T3bI2Q+rXQskgBVOFvxUwzwYYZl425BcoWLg635m0xctBIrPxuNbZv+EnJtH7askd5+Hj9mi1Kc/gpE2coL9rtHNIDQQEd4Onuo1yaLF26DDOuvIp4jSkOkbC+bf270JWW9vKgEaVlldkY+SmteiKt9pSWfxmE+chrnFJbD6rSUkkvqNJSpfWvSkuWo8k8ZHmpZGagLV26NLp164ZVq1YpwpJ1fJz8GLdv3cGGtRsweMBgtG7RGrWYYTWitBrUboD6NeuhQa0GqFKxCpwLOMEmV25YmRjD2iQTSpgZoIljNnSsVQoT/FpgdrAHZgd5YJa/G4bWqwJ/ZxvUzWYEpwwGsDPMiHyWViju6AL3Zm6YMGICvlv0HTau3oQdm37Cji27sX7dFvywfDUWzl+CCeOmoF/vQejauSdCgjvD18cfjRo1RomSJWFja6sI2MzMnNsq97je3FYNfz3z0pWWpiEGRZnBCFkNU6W1tWMrXAoog4fe+RDjlQtxXjlJrhRpSYtBnihEvmuCRG6eUCIuLfpPuPRA2uCnkj7RSist+qSli74y8Tnx1jp/sLSk9aBIS+K4PiTeyxuQ0vK2E7So0tKDzF8TXAXN36fKkMGQv2WAiYkZihQphq5du2HDho24e/cu14vr+fQ57ty+Q1lQWAOHom1rNzRq0ARNGjZDq2Zt0KRuE9SoWAOli5RBoYIuyJvdCjZZjJDfJAPKZc8EryJWGFTXCUs6Nsam/p5Y5lcLi9tWw+aOrlgd0ATTG5ZASEFT1MligBIUl3NGQxTMbIVy+YvCq7kbRg4chq/nLMTGtZuwdfMOpXn9jyvWYs3qjVj09VJMHD8VQ4eMRK9e/RHcoRN8fP3RolUblK9YGfnyO8Aqew4Ym1JchpJxybbqIg8i/zVxvZlpGRN596AJLCgtect7XXNmWp1a4mK70njgbYtY5Q3v2UgOxHsw42JA0D15NJKS4an8k+JK9KZEPwF981L5ckgN6mnQ/e0d6JufFn1/Bl/+ZL++cf8XvLW+HyWt9z1cLIIS+ejyfnGp0tJDqrQ0l7EyZjTicEOYm1uiQAFnBAUFY/36jQgPi8CrVz9z/V7i/v0HWLNmHQYyw3Jr64FG9ZuieZOWykO+LZu0Qt1qdVGuWHkUsC4A29x5kMs0E/IzuyhtYYAWDiYYWisfVnSsgUMj3XFgQFOsciuMH5o4Y49/LZzs1hLb/avjqxrW6OiYEY2ZlVXiehZjFlTQ0AJl7Z3h1bQVQvsPxqKFi5j9rVNYs2YjNm/agVUr12Phgm8xaeJ0DB06Gt179EXHTt0QFNwRrV3dlPcj2to7wDJbDmTKbAoDZkB/t7jevKdlQsyQkV350yTy97RqU8abO1Na7ctQWtaUlvyVYisif7FY84cfpZm75iTSCEsjLc1fNtb+3a20J9v/Cn1C+hD0zUvly+Gt4P6R6JunEEdJpUXEpW/c/wVvrevfIi19wtKiSuuj0ZVWBgZxU9MsqMisJCSkE9auXY87d+7h5ctUYcmwPr37oW0bdzRu0BQtmrWGe1svNGvcCvVq1EfZosyw7FxgnSU3clIMeTMaoGTWDGjqYIZeVfPj+/ZVcGq8By5N8cC+HpXwQ9PsWF4vF3a0LYWrPVvjdEh9bHYti+lV8qGHvTnaZM6AylzPQsSJwb9sPkd4MnMa0H8Q5s7/GitXMsuitNas2aRkW0u/XYGZM+Zj3LgpGDhoGPr0G4ievfuiQ8fOaNXWVSOufA4woZgNUiT9Nn+vtORFviaUlvzl4lqU9+YurXEhuCzueaWVlkhJc/lFcxKp0lL5PHkruH8k+uYpqNJKRZVWGiS4Cpp380mQNYaZmQWKFy+JAQMGYdPGLXj4MBwJCUlITn6Cu3fvY926Dejbpx9aURqNGzYlzdC6hSvatHRFnZr1UaF0JbjYOsHeIi/yZKCwuJyiphnQoqA5BtV1wZKA6jgW2gx3vnLDzYnNcKBTESyva4QllQywtVF+XO/UEFfa1cAZvyrY0aoM5le0R3+7LHBltlYpA+fF+TlTBhVdCqF542boz4xr4ddLlMuDK35Yo9zbEmnNm/sNZkyfh3Hjp2DYiNEYEjocvfv2R/sOHdHG1R3lK1VBbmtb5S31GfSK6++VViYjUxinkdbF4HLvkJb8+X190tL8oUhVWiqfA28F949E3zwFVVqpqNJKg8xbmn9rLhEaIUeO3ChfvhJ69eqDLVu2KcL65effkJz0BLdu3lGENWjQELi5eqBu3QaoX68hmjRqjqaNWqB+nUYoXbwsCto5wc4iD2wyZYFDxswobJKJGZYFBtd3xspO9XFsSGvcndAKkVOb497oWjjULh++r5IJ35Y1wI761rgTXAt3Airijn8FXPGrhJ2NC2NBeWv05zxammVUxFWE6+5kYooi9o5oWL8J+vYdjLlzvsa3S5Yrwlq8+HvMn78Yc+Z+jVmz5mP8hCkYNXosBg8JRY+evdG5Szd4evuiUpXqsGHGZWpmiYwU9puXCv8Zad1ncI/1ElFppKWRkv5M601Uaan8u7wV3D8SffMUVGmlokorDRJcTUxMYGWVDRYWVqhAYfXu3Rdbt27HvXsPlHcJPnn8TGklKMIaOmQYvDx90KxZSzRu3BSNGjVVXptUo1odlC1ZHnZ58yOXRW7kMc4GO2ZZpSyzoaGjDfo2LI1lnRrg2AgP3BznjrCxjRE5pi7uDa2Cg955sKRUBnxTxACbqmXHraDquOdfHg/8SuNuQDmcdiuBTU0KYUZle3RxsEQziqss192ZUrDLkhVO9s6oW6ex8sclp06ZhYULl+KbxcuwYOESzJu/iNKaiwkTJmH06DEYOWIkhg4NVcTbvUcv+PoFoEbNOnAs4ATLrNlgSLFo7+n929KSe1qak0a6udKQm8gJJmLQwhNbuQlOYShIv2b6BI6v4f2iU254C2mG6xPSh6A7D5XPnbTl5P1lRUgtY5+GvnkKqrRS+c9LS3deElgFeVNEvnz5uKziDPw9sXnzVqXRRWJiEpKSknHz5m2sX68RljQfb9miDZo2bY4WLVpTWs1QuVJN5ZVJ+fMVQBZjc1gwY8mVSTIsEzRztkevBuXxbefmODDMDVfHeeDhhNaIGl0PkaHVcH9gZRxwt8HCQhkx19EAqyrkxNWgGsyyyiOM0opsX479ZXDWrzw2tSmLyZUd0M3BHM1MDVCS21BAJGBOceUriHq1G6Jzxx6YPGUmFn6zFHPmf43Zc+ZQWrMxccJEjBk9GqNGjKC4RmDMmLEYPmwE+vcfiMDAINSpUw9OToVgaZldufekEVeqtDQC+vDXQH2KtBK8shHN/Sr90sqZgkZYSnN4L1tiw/GtX6N5VyGl8VpcEoS02Zn8WX9dKUlGx99TgsLrAPH695STOI2MPhTdeah8jmjlpEVTTjTlTb7rmyaV10H9E9E3T+F15UkXPeP9r3hrXVVpvc0/IS2ZjzboSle+y0O2efLkQeXKVdCpUxclw4qIiMTTp88RGxOnNMCQYcMY4Nu0dkXr1m0VmjRpjubNW6FWzXooWqiE8o6/HMzUTDIYIIexARyzGqCmjTH61i2K5V2a4NwEPzyY5omIiS3xaHR9JIysifjh1fGgXxXsaemA6fkyYUxOAywpnx+n29fFtYAKiPAriQS/4kgk0YFlcMW/Ara2KI75FXJjYL4MaENxVeS2FMrE5ZmbolC+/KhXqwE6duqBiZO/wgzKavLkSfhq2jRMHD8O48eOwaQJ45WuCGzi+AkYq2Rfo9Clc3dFwLa2Dtw3lIyeTOtjjsPHSEvuacVIhuWVmmlJC8IEDwYODwrLk11PSs0zO08gCSYUglc+nlyCHccXcUmXEvOQ3+S7Lb9rpZEajOQBZnmQOZZBIE7my9/iPXIoz4fFaodTNvFchm4Wp09IH0LaYKDyb/LmMdWQWjaEeJYP6WqlJQFbysK7hPFWcP9I9M3zc+Ctdf0oab3vOS2Rkz70e0H4z2daggRTeSuE/D0sW1tb5Q8z9uzZC1u3bKOk7uLJY1n/F7h54za2bduhXFqTbKRpkxZK4wtXaeLeqAkaNWyMimUrwTaXLbKbWSGbkRFyUCAFs2VATZcs6FynAL4JqYWDI1vj/lfuiJvWHDHj6yJqRBXEDy2PuKGVcb9PFWxrkh/jcmfCoCwGmFUyPw4F1MIFv7J46ENhebvgCQtKArsP/EvhHDOuXc0L4+tyudDP3gStzDJo7nEZUlxZKC77Aqhdqz7aB3fEiBHDMXniWEwcN5pyGomxo0ZgHLujhodi+JAhGDNyFCZRXF9N+Yq/T0DPHn3RuFELFHYpDivLHBSP7Pc3M1NttqWV/7v469Ji8HBnRuXBE0agtBJTpKUJNpQSpRWXBhmWih3Hs0s58TSBSIJSrLdkW5qWiJK5xXtk47Q5leG64koNbJw+jYw+lLTBQOXfRFNuUpFMXYZrhcVyRxKUbF6V1ht8sLTUN2L8rdKSQCrzMqJcLCwsYGNjwwyrMvr27YuNGzcyw3qkCCspMRn37z/Ehg2blCzE378d3N09lQyrbVt3NG3aAlWqVEf5shXgZF8QOU0sKStD2FAchRiM67qYo2MDZ8zrVAt7R7bClSltEDm9GeIn10Lc2IqIGV4asYNLIHpgOdzqUR7r6ufBEE7XLaMBJhXJhX2+1XDWuxTueBVCrIcDEt3tmBU4UGIuuBFYGud9y1JcxTCnoj165TdHK3OKi7J0MTJAforY2S4/KlWoBH9fL4wIHYCxI0MxZoSG0cOGYEj/PhjQpzfFNRQTx47DvNnzMG/OAsyaMQehQ4Yr7ywsVqQEpW7B/SUZV+q+04joz1+y+0nS8sz6WlrxHrkpLZ4sHrZEThgJItkp7+wpwUUEY4tobztEUUyR3g6I9CnAbgF+L6iB+yzWK3+KwCRgaWrVyiVGLifRIyuSZF4eVhpp+TALIyIvmX/86/sblCdFpk9Kf4a+gKDyb/Eh0pLL1NmRxDKYlHJ5WiowcW/MJ5W3gvtHom+enwNvrasqrbf5p6Ql969EWrly5UK1atUUYW3YsAGPKCx5j+BzZljSAGPL5m0YMiQUbm4eaNmyDWXlptCK/dWr11LekiEvv7W2yg5rI0PYUTjFzA3Q1NkQvRraU1jVsWdkC1yd0grh05ogblINJI4pjfjhRRE7tCjiBhXHo35lcKVLGayonQu9zQwQxHUc6ZIVOzzL4wwLxh1PJ0S78+RyZe3f3RqPGJwf+Dnivn9RXPEqhZ1Ni+DrSrYYUtAcbS0zojzXwSVjBtibmMAxT15Uq1AO7Xw80L9XdwwfPAAjhwzE8IH9MKBXD/Tu1g0DevfBqNDhmD19FhZ//S2+XbxM6Y4cPgZeHj4oXqwUsmXLrsjnY1+w+7HS0jZ5F4G8lpZkWAwsyknDgJLoTan5WDCIWCDGOxv3hzUeeBAK6x6Ffs+vOG4zO73NfXfLuxhuexbBXQ9nPPCkzHwLIpICi3SjjFxZm25jiSS3bHgsgnLPynlSVj65Ef1aXJqsTBvQNMLTf4KrpBfeL604rxyI8ZJKkxWSmdUny+Vpz7wsC6q0VGnp4X8prdQAmokZliVsbe2YKVWhsPph69atuHPnjvLHG58+eaY0wNix4yeMHj0WPj7+aNasBdq0cYWHhzdatGilNFgoWbI07OwckDN7LthaZoGzeUaUoLAaF8iEgU3yYXGXStg9uimuTqWwpjZG/KSaSBpdGsmhLkgcVBBx/V0Q068IwvuUwvkOJbCsZg505fTelM5gSmuLW2mc9SuJu95OiGGWkeDGLMCdwZTBPIYnVqxPPjzyLoTLbiWwv3lRfFfdDv2dTdDE0gBluL0Fub/ymTHjymuNmuXLwbt1K/Tu0glD+/bG0H690a97V3Tv1Il0xiDugykTJmMphbXih1VYu2oDvlv2A6ZO/gp+vgEoU6YscubMqbSwNKRw0l4yfBf6pKXv4eKLweVTpJVDk/HIpTq5xyTS0r4Oh/JI9MmGBAor1sec2VUWZlU5EdbOBdd9nXHNvxgu+ZfBxaCqOO1fBcd9K+MYOeFbCad9y+GsRzFc4Yl2k/v0PisCEW3yIqola9MUXjJlJMtM8LNBrG8eCosolwjzUFoiKqltq8L6MniftHiOUVjRcomaGXiyOys0POcSmW0p0mKm/fb8UsrnX0DfPD8H3lrXD5EWhaVK6y9IS3caCaASdOVFsfKmc7kf1a9ff0VOjx5FcVkvkJz8THkma9eufRg/fjI6BHeCv187+PsGwsfLDz7e/sozWeXKVUDBgi7K36jKkS0n7LKYoriVARoWtGCG5YIV/Rvi8KS2uDSjLe5Pa4aocbWZYVVBUmhRPB7kjIQ+BRDd0xlRPQvhfvdiON2uCJbUyIZOlJZ7JgP0L2SFja6lcca/NO74OCPa0w4JPHmUIM6TKdHTlLXAbAzk+RHuXQLXvcrhQOtSmF0zP0IKZ0G9rAYoyvnYM/uzN8sCl9y5UbFIYXi1aI7eHTuif/du6NutK3p27oLOHULQKbgjBvYbhPlzv8aqH9di88at2EI2bdiCGTNmo1279so2Z8+ek/tUWhTKftU8iK27v9OiK61MlJahoTmMUqRlbZgBtSnYzZ1b41JwBdz3ttO8MFcRVjYKWiMtTUMKniwMGnLpRoKKSDvKMzfCuP1X2pfB0cByONSuMrYxO13ZqiwWNSqOOfUKYzZZ0LAYvm1WEmvblsM2jwo4EFAd5wIq4oaXC+662yPCMx8SfO0477xI8s+HOB9bCkugRIkEudTm85rv+k5wlfTCu6Ql97GkMQ7LHqWVwMpTsmThrCxKphXHMiJlI9HHhuVSMv7UcpDaQvXTSF23z4u31vUDpfVSldbfJK2MGWBmbg4bZliVq1TDiJGjsX79Jty79xCPmV09f/EL+8Mosd2YPHk6Qjp0g79/MMXVBSHE1zsArVq2RaVK1eBSqCjyM8uyy5kHdlmzoWi2zGhU0BTd6zlgUbfaODPTG7cWeODBnBZ4NKkuYkdVxpMR5fBkQCE87eOEhG6OiO3mgkhyr1sxnAgojK+rZUOQiQFaGRqgZ6HsWNO2FE4FlMUt30LKJUFplCCXy5J4Mj3xMMMzyuuZnHTeLnjkUxLX/cphc9timFQ7HzoWMkcjSrQsxVXYMBMKmpoq8qpStBjF1QKdAwMVYfXp3pPS6ogAnwB0CArBsCEjsGDe11i/ZgO2bNqBPbv3Y8vmHZg5Yy6CgjqgVKnyyJpVxMWsyUBesisC08pLi1w2TG2dqSutzIZmMDY0hpmhoSKtWpTWps6Ue3AlSsueNdzciGWGFcMarkgr3o2SdmdwoLTjfeX3vMwurZkp2eGOhxMueZWkqMphfiNnjK6QBz1czOGfzxAtcxigPisAtTMYoIGZAZpnN4Cvgwm6FsuOUTUKYkmz4jhIcUml4LIP92+7Qojxz484P0rLV8SVn8KyZwCz57LteZIK0phDgtznJC1NFvgm+sb7b/JW0FXQVD7kWb7UY8lyxgpRgrdGWnHezLqlwY80BPLIyzJpi1h/J0T5FECMH7tSJn3yKfNLSpmfZt6ajPzjeHOdPwx9x/1D0Dev9/PmuupKqzguKtK6rkjrlzekpW09qEpLCYQfQ0YGbAPKKmOmjDC1MEcOZhw1atXBwEFDsXPXXtylpJ49f4Wff/4VEY+isYkBetKkr9CzxwC0D+pKYXVHcPtuCPTvgOZNWqFC2cpwcCwEa2t72Oe2RgGrHCjJzK2xoyV61bHGwpBy2D+uMcKXeCFibiNETq+JmHEVkTCsNJIHFMbTXgXwvKsjkkIYDDs7I7KLM+52LopjfoUwp6IVfIwN0JjS6lIoB75vVRIn2lXANUorjCeIXK6SAv6YJ9Izj+x4ye5LD2s8k0Lk5YQI38K40L401nsWwvTqudHX2RjuFgaonvLKJ0fDLChu7YCqJUqhef0G8Pf2QaeQjghpH4JAvyBFyu0DO2D40JGYN3sBxbUZu3cdxN49h/HTT/uVt2x06tgD5ctXRa6ctsyaslBKIi/dt2cIWklpLsXKfTAjZlbGhiYwNSLsNzfMCGsKtaZlBmzs6IpL7StTWg6I4vYplz8ly3LLhWR3WyS5yvNXFEiACx6wpnePgr/gUww/NXLA1+XyoLujBVrkNEA17rfScj+P83Vgf35SkN8d+N1OhnHfFuH+qJHHCN7MiMfUyI+lLYpitw/F1a4EHgYVRjilFe1HYflK4w1HBrCCDFoFGLwc2ZUgJS0R/z5p6TbWeBvW6t9C85tmeglCDLYp92I0fHpw+sfwkYCvn7eeSdKibz5/gkYib6O8gFmHOO5DuY8V761p4JPgw7LHrtIoh8c62rsAwnl+hfkWxw1XF9zyLIp7bg48Hx2QzErME47zWJGWnJ/SwOdjkOP3scdLxk973D+ET1vWm9sl2ykVOEeE8xy82KMlA/4NSisRPz+lrIi2ubsqrb8grUyZjWBmkQX5CzhSWLUwaGgotu34CQ8ePuK6vSI/42FYFLbv2IPRYyajffsulFU3yqo7M6yeFFZneHu2Q5WKNVHQ3gU5s+dBDsussM9qjlI5sqKJoy0G1C+BH3s2wNEJbXB1RnPEfd0ScTNrIXZCOcSNKIaEgS5I6u2IJ13z4WlHeyQH88B3ckJ4SAFKqxgOeDhgWmlzuGdmhkDJhLhkx9KWJXG0XUVc8SuCB37MMnw0J90Tz9x45i7CyoNX7nnxgsH0MQNsrK8T7gaXwBmKc6dHaXxdww4DHTOjbRYDVOQ8C1IoTllzwZnZYTHHgqjBbLNVy9Zwd/WAl6cvu15o2aw1Aiiwgf2HMONajI0btmP37kM4cuQ09u87hm8WfYeOId1RsUJ15MhhA2NjC4rLmPtaV1qGeqVlIhlWZlNKy1CRlrw8uKalIdaHuOFSUFXc9ymISNZ+o7l90XIpVLIsV54wbqzlehbAAy9nZpNFlOxzRVNnDCmQBW7MosqIkDgvex5vW25nbvbnorBycbgtyWukeWYuG/dtbtOMKJjFCOUsMqFxNkOEOFliXuNiyqXFqx3K4HZAQYQHOCKS+ztGm2l5MMMiCdJ68W8UlvCmpNIikuKyX5NWWvoC16cEpn8YPbLSon2oOy0iLr3zeg9pZfUaeeaPyPN/sr+UZ/aU7MqK0rJS7pvGM9OSBjmRzLof+hfDDe8SONzADhvKW+Bwy8K4xoAd4eeCeFYmk3g8kmT9pKWpNNpJabjzppxSefuYfYq09M3nQ/iry5Jh+Sh7B0VaF96QFkUlUEyqtD5BWnJZKgPHz2ScGVmyWiJHHsmwamHg4CHY8dNuJat68vQVXrz6HQ/Do5l1HcCYsVMQGNgZHh6BlFYPhHTohaDAbnBt448GdVugqFMJ2GbPixympsjD4Fc8hyGaF8qDPnXL4ruOTXFqgg9uzfTEw1nNED+zLpKnVUXCmJKIG8zaeh8W7m7WeNLJBs+YZSW1s0VChwIIC3bEnc4lsKtlXkwoagQ3BtZ6XP9gZyssaVkKhwMr4jJPmnv+9ojy1Zx0r6VFXrnlwXN3OzxmthXnw/m1K8z5VcClkFrY2bY0Fla3QT9nMzRnRlNCshAzU+Q3NkbuzCZwsM6HcmUroFbNumjd0pXb6YFmjVvAtbU7/LwD0b/vEMydvYji2oHDh07h5ImL2LP7sPJ6qE6delBc1ZA7ly3FZMp9/mfSMlTuY5llzvxaWnkomBqWRoq0pPHEfR8nPPJkzZa13yhuW4x7bsS45kScpx3CPArimldxHGNWtLBOPgQ7GKOeWUaUMTaEDcUkz8XlJUpGRQoSZ4pLcCT5KC5rdvMy67Ym+bjsIqSaSUZ45DLDjJr2+Mm7JM4y47rV3gUPA/IzYNlBntVKYOaXSKT7d0vhTUmlRZWWlv+JtNxzMoOTFqI5lYYXcT6W3LcWlJa0Ts2GKL+8eOBfEBe8i2NTLVtMyWuIIawA/ljPBec7VMGdgKLMyh0Q52vLaWXdNX91WxBx6ROW8PYx+6si+Rj+6rJkmCqtN/i7pCVIlmViYY68draoVrMmhTUIP+3eg4jIKOX+1eOnLxCX8IQZ1l6MGz8NnTr3hq9fR7Rr1xXtg7oruLYNQPVqjeHsUArOdk5wyGYBe7MMKJbdAC0KZ8GQRsXwQ+fmODXWD3ene+Ph9OaI/Ko24iaVR8K4EogfXggJ/SipHtZ43CkXnobkwbNgOyQHUWLMtMKCCyjS2t40O8a6GMA1RVpBBSwwr6EL9vuWxZWAErjP2n+Un9TorPGUQf2FZFmCNtNiIYrzdkSEPzOS4GK4HVIJ59pVwi6PEvi6Xj70KmKGJjkzoWzmDChMeeXLQGmYmKGAnQPKlCqvvOS3dYu2irAE+fMqAb7tMaDfMMybsxjbt+3F0SNnceL4eXbPYNmyH9GZ4qpQviqyZ8/F/f0h0jJ8h7TccbF9NTz0dUGUly0DiDWiRFzcVrlcGM5ht3yK4qx/FSytXQD+2TOhMjMsEZL89WNrzscuU0aUy26OqhZGaGSVEa55zdGKlYpW+SzRyNoMdXMaoYI5jxvl5UShFciUAQUyZIKDQQYU5fStOc/RVfJgWzsKv3sl3O5QGGF++bkuEuCyUVpWDHDZGIzk+Z1POfn186ak0qJKS8v/Vlo5EO2dFbFeFBalJa1To7zMmXHb4FpQMSypZIreOVi5YTlpxXNzau0iOBhSG1cCyzDbckKMjz2zMqngSMMdjbhUaanS+iRpZWZGkZMZVqWqVdB/4ABmUz/hUVQ0s6ufmWW9xO07D3Dg4DFMnDwDwSHd4R9IYQV1VTIsb68OcHcLRI3qTeBcsAysTKzhlMceLtlNUTKXARoVMkf/Rs74sUdjnJ0QiPtf+SNyaitETaqL6LHlEDuyEGIG50N0Xx7k7nnwpHMePO2QE8+CcuNpkA0zLQahTs4Ia++AWx2LYHNDK4wqaIC2DKp1GVQD8rP2X8tekU5aaT1hQFcyLbdcSqb1zN0Wjz3seWI7aC5nMEu4E1gMt4LL4nJweexhhjK/bj70LJ4bzbJnVi4VFub+sc9kAmuz7HDO54wKZSqiXq36aN28DdzbeMKttQfc2njBz6e9cn9v4YJl2LljP06dvISzZ64w8zqJ75atQNeuPVGW2VrWrDkoJhNKSvO3yP5UWpTM29JypiRsFGnJZcJwniAPGITvUx7nfItjWW17dMzNabiPbLj+OYlkTOVNM1DIJggqYodBFQriKwaVeXUKYy6ZVqcQJtcqjIk1i2BwBTsEFsiI+qwtSwMVZ06f1yCj8idjiou4rI0wvZkz9nesxP1WEnd8nbguPE7Kq6OsNC3KFGnpZlzvQ/fk1wmaKSjDUiT0NtJaUiSVFs3vmvnLOsi66KJZL91l/POkLl/veuiRlRbtPSxN1pKKPHbw7vtamv2tbSyQ+l2WnTr8NR6Ux3ukFe9tjkgfc9wLyIet9c3RixXUJiwjVQVW+IbXLY3dHRvhvH855T5ynI8jpSWXk23eIS1m6imkHqdUEcg6pd2WVDT38zTbnjpcV4KC7vzej2aeaZcVr6Adrov8LtNp11uG2aVIqyilpW2IoUrrb5FWzly5UKtObQwJHYrtO3cg/NEjvHj5kuvzAnfuPcDGTdsUYfXsPRC+/h3gH9ARQe27wce7A5o382CG1QhOBUohZ9b8sDLOC6fcNiid1wT15dVM9Z3wTZd6ODHBB/dnBiFyclvEjqmjvOUiakB+xPTNjdhe2RDXzQqJnbNTWDnwrF12PAvIhSf+PPB+NohjlnXXX2pzzlhXNwtC8xugJQNyTa67t40JJlTIge1tCrNGVxJ3Gbgf8WRO9KS0eMI9o7BeuOYkuSgtuTxozxOFmYGPDbMtW4T5M4sLKIoH7Urgsn9p7PUog3kNSqFnURu0smSmwiBd1CAznIytkN8iN4oUKITyJcujXvV6cGvhDo/WXnBt4YG2LT3h0dafGddwzGXGtXvXIRw/fg4XL1zDkSMn8O2336F7916oUaMWrPPawdjY7IOkZcZjmYvbWd0ikyKtS5RWmI8zYrl9sRRWFLthDAIP/OxwzTc/NrXIj575DVGD0xRjNirCy8dMq5KFAXoUtabgi2FF22rY064+DgdWxVGf0jjuUxbHfCvhhF81nA6oiQO+lfFjYwdMKGeCdnaGqMp97cL52HKeTszYKjB761zaCis8SuOoX2nclhcVeznxBJW3YkgzaLnX8XbQ0XwXmWmR7yKP1JM/bRB/jRzTN2SlR1LKeCmyUoK7zFPmz2Up92GypnQ1y9a8SFgCmyyD478mdX3eRWqA/DCUPx2jBDZNvybIvbl8hdeZEn/n+seLoJRtsSG2SlcRlsyH48QrbyPRXGrTIMM0gfU1yvI4T08eg5RLuArKMZH9kxtJgvIWFS1cNxmf51CctE7lsLcyLUorxi8r7gY64PuKJnCnqKpIuWOZLWWYEUPqsiIY0gKXfCvyfCvM8R0orjelpfvuQs0x0TT0iOeypAy98XvKuy+1+07546YcrhWJJtuU+XKbOF3qtqTyZnl8F5oKTSpSrmU5sn9lf8syNPv2zfFYnqVsKeVL5iGPCNgj3LcILvRsBkRepbTiUxpiqNLCU+6Ej5WWvE/QysoK1WvUwIhRI7Frzx4KKwKPOa/nlNaDsHBKbDdGj5mIDh27o32Hroq0vH3bw8evAxo0aIXKletSWMWRwyIvshllg22W3CiRKwcauWRD17qOmB9SDYfHtMTdaW0QPbk5YkdVR/yQEojtR3F0t0J8N54AXbMgqZMFkoOz4nE7Kzz1y4Znfrnx2JcnrJ8tonlS3Pa1w6VAF/xYxwL9KS1pOViN2+CaOzNCi1tifSvWZtqVV2r9j6TZt3s+PHGzwzNXGzxvY41nba3xlMOS+VsCg1qUbx6E+zFL8bNHJMUV6VuIhUseqK2Ife5VsIhZyCBnS3haZkAtLqsMBeJsbIICWZlx5bZFWefiaFq7Mdyau8K1mRvaNHNHKwrc2zMInTv1xvx5S7DrpwM4f+4Kzp+/goMHj2LFilXKnzipXq0msmXLSUlJxmWkyEpXWqZGmntaZtLVlVZHkVZ1SqsghcUTh0R7UrzkppcjTnqXwMRilmjNDKkM17mweQa4sL9m3szoXsYam3zq4lhAXZz2q4qrgRVxnbXfa9wftxhMbngWwG2fQrjnXxy3g0riYmARHPFzxrJGtujikBkNTA1QiutROHNGFKXEGtsaY1y9ItjmU4Pzqsl1Ks6TWJq5M+AomZacwAKDQEoQ0QShlJZnAgOUJjgyaJMkgYFAUIZpAzkDQiIDhUZcggR3ybC0aMfTNKtOYmBP9GXAUO5tSiBkhUgyAy8zLjeL5rsSAGUaCk9Zb0GCjEZaGpGIUCQYaUWiIU7kLEGLpI6r6VeCZwqvpSHfPRjsRB5cVzl28T4SaLkOXA95/dFjLjuZvyXJdvpwv/lwP7Irr8qSh7hjeS7EibAEzu91MOV+jeM4cRxX3gOoFZfcY4whsRSfvGYrgcOUoM9An+QhTdSJEvSl6bochxw8N/ib7C/lmMn6sULJbY1xz85153pwnBgvkZYlf5d7WlkQ75+dlRZ7LK1ojGaUVsmMGVCA5baoUSYMrlcJe0Na45JPJUrLhdPYc/3lGS7uA26/8uovhZT1l+0WWXHb40iMn6DZLkVQXA9FvLJeLD8xrIDE+nCduP3RnE/qQ+6y/twmn2zcLnn/ppQBDW+KifFFK5uUfZBakdEIVIbLq6pE2LFcvxjlmGiOS4KP7FdZZy1SruXSOFHmKWXJjnGlEKXVhNK6QmnFUVrJlJae5u4v0pAepaUrJn3ojifSEj5UWhIk7ezsUKtWLQwbPly5JCgZ1i+//opkyi8sIoLDdmPCpKkI6dQdfgHBaBfUGYFBneDpHYhmLVxRrnx1ODgWRjZmINkMzWCX2QyFs1qhrkNudKtZEPODqmDv8Ma4OaEewkeVR0xoCcT1c0R8TxaKnjyoXcyQ3NkMjzua4nGwOZLbWeCxvyWesDA+lgLEk1keXg1n7ew6OeVfGItrWqJLPgPUkeyB29E8uwl6O1lgeXNp9l4VN7yLIcKNQd3NCcmuTnjapgCetnbE4zYOeOyenwGCJz/nHcECFuabiwUqL6J9eTJ5FeTyCiPGsySDd0UcalMa39W0w/BCJvDNboDaxgzaDNYFWYO0kXs8FtlQtVhZNKxeH60btUbrpq5o1qgtmjZ2Zfbpjq5d+yoNMfbsPpQirsvMvE5izZp16Nu3P8qVq4ScOfPAxMT0LWkpwqIgJdMyzZABObid1bJkxNoObkqmFe5TQAkiUoOO9rClpPPjknsh/FjTER0sjFGdmaE8MF3MgsK1NULvqvmxNrAernRrhjvtquGOVwk8lOdHuC8e8WR7xBMynCd6BAPJI2a24YF2eBCUD3eDHXCufTGsbFYAfR0zKxWF0nK5kFlXCeMM8C9shyVtauNM+0a451eWJ7Ydg152IpJgsODJnZhyciuB1ZcByFeCElGkJeNKc/1cytsU5BEFaTzzmCQLShCnELhumrd8MEgoUARK9kEUgaWIg2JQ4Pd4CfK+EoAkaElWYMZ9ZsR9ZszjbEm4bpS9PFMmgSWO8tPWniVoyfIfcx8nS6AXuSjBTGrcDIzs6t4/UmSpSDZFXByuqfWnEsNjJZlxLJcTLQ+CSxYo68As5jGR+6/KtvN4JPnI/SIT7rMsiPNndsN9FuMnbx+ReVHI8gyQEmy5Txkc47g/YxnkFZQAyyCutOjLjWhOF81hSlAVUblnQ5J7Vg3yZhN5FRj3R4KHJY9DVm6vHDuOz+lFADHc1mjKIsaD8+X0sZ5ZuUxLrgcrmcyykljBlKsbS5lpNaa05EXU+UwzoAjLx5C6lFYHkVZFrosTt1mky21gOYvluglyjOJ4HsawbET7URBSPnyZrftasTJphUf+2bjd8hA9ZenK/SLy4vpFe1sikpletK8FK6Acl+NEcxuV14mx3MUrWbWMLxUUiSWCiEQqTxqxxzG2xPJ4KVcGKGOlRaRyrEVYWbkfZFhWLj8rlyNwGdzeGD/Kkv1xvqxYcNmvUcYXoUtXyrccI55Pvs6UViNK6yL+eBJDaSVRWo/fkNYzSkp4moLm+39QWu+Tl7wAV4QVGhqKnT+JsCLw/NVLPHv5ghnWQ+zgsFFjxqFDSBcKqz0C2nVEQGBHZllBaN7SFVWq1YZz4eKwtMoJcyNT2JgYo5CZEarZ5UZI9WJYFFwXOwc3xpnRDXBrRDk8HOCI6L72iO3GAtE1O5K7sFB0MMKTjmZ40t4EjwNNeAJQXD6WDF6sIbmxVuPKQOqWF7cZWM4zu9jrVQhTypnCP7fmWSP5w44Ns2VBR0crLGpSBvv9a+CidxnccSuMcPdiLOTFkNimCBJbF0FCG9b03J1Y+O2VZuIRPHkjWJCjlUJqiyce+fHcvQCeMPhHUVzXvcthf5viWFLLDoMLG8M1F5dpxmCd2QAOXK5jZhMUzmmDSkXLoEG1emhWvzma1G9BabVF40Zt0LSJqyKuuXMW4aed+3D69HlcuXwVp06dwbp169Gv7wDUrVtfeWu+5pVPhgqZiebyoDFMKDITLksrrTXBbXE5uCblUpDBlycgg1y0O2tyrMUeb+WCkdZGaM1pyhmYoCCnKZs1I0LK5cZij8o43IHHoWNthAWUR4RXEW63PD9DYTPgRfPkk24UiWQAiWCWG+afGw/8cuF2eyecbV8GS2rnRSAlKJdLZd75SdUsRpjSpDL2+tTC7cAKDBq2DHrZ8NTDijLiMZTgIbVSzjNaCUqawBTDEz/Oh9kY5faYx+Apg+IzN2bX7lZ4xmmfMjA+YSB9zJM/mUjwSFQu60lNVgKSSJDBhmKKlWyKXUVubvzdleNx38RzeBTHjwuQgGjB8cy4fpm5zaZcJwm6mpf+yrNHIiEJ0MolK5YHkdVzj5xcn2wsF8z+uU3K9ig1ce53kSYzOQnoIqlkyuiJh6YrWZN0RWBKhkWxxnD9onxtuX9tmRlTYCzXCUJrbn9bbm/brNz+HNz2nHjKffLE25jbnYHbbIQkf3nPI9dftoVBMJ5BMEl5WFeTDSgvTJZt4T6KY+CUYC8BVYJslK8lRSaZURalIiFiiieJbhZIogAec38/lmPFYUluHMfVFIltKXV3ZlGynRJ0uT3KNlG0Ca4iOU0z9xgev0TuxycsOw9Y6VuWIi0Xnh82zMoLs5IXWrc89nVoTmmVQ6QfK1rMGEVQSsYi5SElm4qVjIrrG0viUoilEKO57VEBsg1cb08KSNaLZUOEEutpwn2ZkeVYyMT1MeZ0HE8RnkicXe6XeHnwWYRF6SYIIiwKOUYRuzUieUwjWUmI9jHlPKRsZOE4zMZZTrTEs8Ijr0OL4W8xfgJl6cfyRGJ8TQgrRL6sYHAcuc8n0yuXoZXyYU1pFaS06lNa5ymtKEorUa+0tMJKFdd/SFraeyRa9EmratWqGD16NPbs2YNHkcywfvtVEVZ0bAx27dmNSVOmMqsKhq9/EIKCOyGQ0nL39Eez5m1RoVJ1FC9ZDjly5YG5qSmyG2WCs1kGVM9rhnZVimF2UBMcHOGBs2Oa48roWrg3vAwiBrkgul9BxHRjLZEkdGKhDeIBDuYJF8RCGGDFE40BVIIRa8DRng546OGIm56OuODtjEN+JbCOMhlUPAta5zBAeUqrpIEhalvlgL99XsxsVAVb/RrguG9VXPQoixueFXDPozzC3MohzFUog3CP0ghjNhXGeT70sGPwtmOBlwDgyGDhxCBVkNJyZo2yGO77lMUFv4rY5VoWC+s4ol+RzGgjjRsoghLMNooYGqGASRYUzmuPsi4lULVcVdSv3ZjSaoMWzT1Qu1YTNGP21blTT8yetQDbt/+ES5eu4tq16zhNca1ftxFjx45Ho0aNXotLXkxszCxLe09LKy1pSCHSWhXUGlfaV2cwKoBkkS2DSaRHPtz0cMbKSrkRzEBRneMW5XSlc2RGy4JZsMinBva1r43LnO6aRyFEB5ZEvH8RBrJ8SpCOYvCIlP0uQmF/FDMiybweUWDh5D4FcY1Z7u4WthhXOKPyxzSLG2SgtDKiGJfVqUgu7PCrxcBUHI8Y5CQIingSGeQTRFqcZxzlFyPZggQTEsfAotRsGYBEWk8oh6cCp3vCYcmeEmTNGRQFTRBJYO1eWiYqAYjBQGrs0X4a5FKbXFZLklcGMTAlicgCKQku976nOcIk4ARSzKy5R0vtnBKQ9zHGKF0GRyUIcx05jxgly8vLspCH65QTj91ErFwnrm8SBZbAClUSg12iny2zDwnsqdJ6zO5jTqcVmFy2FLnKIxiP/JjVcl0fUYhxzHAT3SkfN2vuLxtmOBxf7rcya1buK3Gdk7woLC8KhPsh3sNcyTQ0mZxIy479Ii0GYe4T5W3/rOHHMmjH+FloAquvKQNtZu6bzBzHkOsvmWYWnlfcXspK3qSivGSZZUhzr4sZjAhJMgyKRdmHPPYJrEwkUVZPPbhdkg1zHRJlOySjY/lI9M+DOxTS4komaCTSMjFAXpYR6Q6pVxa7OzbFOT+ef4HOPB4UPecbLeKQDFCRFvc9j0ssg34i5fEaiiuBv8VL9kUBSOOeGG6r8qJoLjeW48SKaLwNWY4zcT8bcTozzX5g2VMuKbKcSOak7FMRllxelEyM8pSsLIrlJoLzCuOywlixieC+i2I3jvNOYtlIknt3Uu6kLHN7JaOV7EoyrWhlXDMKLzPPG+5riizOl/FMUMQllSzuV+6vcJ6vF3rWVaUl6I6XVlqSZaWVlvTnypUb1avXwMCBg7B7927ExMTg5atXCnJ5cN+BA5g4eQo6dekKH78AJcvy9ReCUa9BcxQvVRF2+V2Qx9oBVlbZYSXP/7B2Vc3aFJ2rF8KMwMbYPMANZ0e1xtVR9XF9WGXcGVwK9/oVxYNexfGgexE87OKCBx0ccKedDW61s8bNABuSDzf8C+AWA+rdoLK43aEKrneqiYtdauNE94bY3qUR1vVsjXGtKqBzzVLwq1YJbhWqwK9SbQxo0BRzPN2xqaMvjnZ1xxnW7s6Tyx2aMcg3xbWgprjRrgmuBdTDVbmf41sWV31K4oZvSZ5wJfGQRPJ7lFcxRHkUZWApgft+FXCjQ21c6NAIu71q45uGJTG4lB3cbC1Ry8IIZYwM4ERZ25mYwyGXNYo4FUH5slVQt04T5fJgo4at2d8UjRu3Qo/ufbFg/iJWEPbj4sXLuMyM68SJU1i1ag2GDBmKBg0awtHRUbm/aGpsokhLyMxjaMzjptzTypIJu/q1V+SjkZYEb2s8dM+Pc55FMcbOAE05nojEmetWzioT+lV3xK6QutwHlRERUIonmjNPPAcGKBslYElWIdJ6JLXeFGkpb23nvOUSaiyDmDyb84g107v+zlhXwwqdWWGQm+2FKa1yRhnhxgx0k3c1Cp77zIPZgIcFa+Ws8SoPnTLAUBzyuh/lTeByrZ+1+afMGp5wWGxbc0S2scQjZhkRAgNxGMURzgB/n5nWI9bAIxlQHjFTkEAk92GSOd5jCbQiLQafSLlsxnVM5nTJzLCecLgE3HgG1jAGugfkLpd91z0rHnD6h3KJyZ/Bk5lCrEiMAo3k9BEMLndaZuO2FmRZcGYZKKBcdo30YJbkygDKfRXHoBfHzOgJM6bYNpJ9pdxHY0DXkkwev5aWZFrMrPxJO1bGgkRcORHOdX3obo17rjbcXhc89C7CClZx3HPj+eFRmOvgzGnkuSa5nMbjRKHEUjLKJUpOKzV4pVEBs4i00or1t2ClhKLzM+G0hhzfkMEzEwUgmUE2POT63KVMb3tr7mXeYRZw178g7rUriNsU8W3ui4esbEQz207gPlSCPrf7sSuPGbPDJ96a13c9lHlQBje4vWf8i2FOzdyozThQ0MwAeSgsF3MD9KxTFJs6N8eJDjVxM5gxwKcAIrhPo+Xhc2ZnSnZLQcb7yyU/My5LygYrLG6Zuf+Y/cm2clkRrAhE+NnjAffJXX6/622jVKYeMJsKZyYZJceSxFNoyj6hXJOkEsFtlDdwJEu2yApGPPehcj9LpMVMMpJl/QG39V6ALW6yTDwIKYSw9s6I8LbnPOwQ05KVEnd7PAksjkg3R9xrnhcRrEjLn/QJVy6ts/yxTEfL8llO4ym8BOF1pqVK6y10x9OVlu5lQeXhYeW9dobIkSMn6tdvgHHjJuDQwSN4FBHJjXuJZ9zA+w8fMsPai6lffYXuPXvBPzAIHl7elJZ0/dCilTtKlKyIPDYFYGaRG9lzWCNn1qywtTBB6byWCKzqgjnBTbFpqB8ODHPH+WGNcWFAFVweUA63hlTCnYFVcLtfNVzrVgHXulAanUrjUkgpnAsuhjPBJXA2pCzOd66Ky93rcVw33B0RgNsTOuHm9N64NncwLiwciXPLpmLnnDFYM3081s2dizWzF+CHSbOxYcpc7J8xB+dmTcPNaSNxZ+IA3B3XD3dG98b1oZ1xuX8wLvUOxIUurjjHmt+ZkHo4HSz3YmriXPsamiykXRVKsyJu+pTDbd+KlGlNSrMx17Utzga3xV7flljSvA56ly2KNna5UJ3b7ZI5I6yZEeU2t4RNLhs4FSiCihVqoH69FsrlwYYNWjLjasT+1ujerTe+/noxfvppD44eOY7Tp8/h8KFjWLtmA4YOHa78VWd5sbC5WRZk5rHKzAqGEY+bEY+hvLGielZD7OjTTmnyHh3gxAAuJ6Atg11BbKtjja4MFtJiUJqny6WZVoVzYLZrBRwLqY47gSVYwy3AQM9aOk8kCe7y94/k2r5IKlJHWso9AQbJJEFOciL3MyJZoTjtWhAjbA3QjMuoRGlVy5wBrlkN8HUNW+7D8rjhaknxM8ArGZXUSKVmKq+aYu3VnTVpqeW3YhBlEJT7O7daWOJcs2w40cYWRxkU9rs6YDfZ51EAR7wK4By387xPPlxmZnHXz04J9tHSDFu5j0VZMfjIg63S0EC+a6UlwUIu+97lcq655sZlT3ucc8uHi272/M6g2577g9lBFDPICEr8HiVxzq0ADrd0wN6WBbGrhRN2t3LBEdeiOO3ugkuc7jaz8YfejpwmH/ebNaIp26d++bifNPeztA1ItEiwUl57xPUSccUzKCYGc5ntKQcei8veBXGKGfIh92LY1aoEtjUljYpjT4sSOOZRBhcDy+K6nwuDdH5EMFhHMPDGShDk8ZKMKLWhACsEDJySAWjus8glMu5rZgFJFFWinyni/M2Uy2z3GZyvUMpnfArhsHch7HRzwjZ3dr2KYqd3YezifjjsVxDnAxxxtz0F0z4/YgLsKE0Gb1YWkikPqfCEMzO84815+TnibFBx7O1QFaOqWqOyWQbl2cxcLH8OLI8d65XG6l4e2NulMU4HVcQFDxfKhpVC94JI9ivM7eC+FLlTzPGUVLyHCZK53jHuRojytKDYWVmiJG5Qimf9S2K3WyHsaOOEHa0dsY/zOOZbCOcCi/DcdcYd//w8jrYsI5q/GRdLucr5IX+ZQHOPlPtOOWe431hmRFoPKfxbPD7nuE2nfJxwpVNlXAwqh2uszN71Ko5broVYXgrhTAtnHKhvjz318uGEawlc8a+EG4HlcdO3MCu8PDasJMmldXnoWiMsydC00mJFTKTVS5WWgu54b0or9WWsIitDw8zK80F16tTH2DETlGAZF5vI8V/g5YufERERhR07dymXBINDOqFdUDACAuU+VjD8/IMoLLmHVQe29s7IYpkbRsZWyGaVC3mzWqK0gzW86lbE5A6tsS60HX4aGYADQ9vieP/6ONqzIk72qYQrwxviJjOvO2N9cGuUN+6M8aVUAnBvYjvcmRSEe191Qtic3ohZFIqEb8fhyYrpeLJ2AZI2L0Hczh8QvXsVog9swKPD23Bz/xZc2rMTF/bsw5mde3F6616cWL0dF9dsxu3VqxD2w2I8WjoHEUtm4cFCSmzmWNz4ahSuTByCiyN74ezQDjg1OAAnydF+3jjSxx3He7XFye4tcIqSOhPSCBdCmuJCJ2ZrXdvgbCc3Zm4+ON4hAJsCvDGtZWN0KV8Gze1tUTKrOWxMjZDD1AyWZpbIkS0vXJxLonLlOmhQvyWzrDasJDRDHeWyoUZc8+YuxNYtO3Hs6CmcOnkeR46cwoYN2zBq1ATUrdsIObLngrzKSaSVkXIwFGkxc6qRPTO29PTDecpVBCKNGOJ4Yt5kIPimhDE8OF55ItKqlM0EfeuUwJogirldWdzzd2JAY9DkiZXMk+mJZD1SK+WJK62hRFZyj0HuNchlFbkEl0xRyZu7JbOIYi1b3mhwy7cIFhQ1RLuMGnG5W2VGv0JWWFm/AM4zW7jFacIorUhfuXwil+MkcyMMrtGcZ7TIj8H8IWuql1wZBBrlwvc1LTG5bBYMdDJHZ3tTdLAzQXf2h5ayxPyGdljeoiC2e5fEieCSuNSuAG7752MAZrCTDITEyp9IoRREWklcTrLcN2GweMQgf5eZxM6aWbChbh6sa+SAjY0pXr/KuOBegvutBO54lcH5NsWwu6kLltZ1wLiyOdE9vyna25iik30WDC2ZDVMr5cWPjZyxx70MLnWohjusYN2Ty37+8uiE/KkWjaQkq9I0ENGgNMBgwNK08mRmxwAdHVCYwbUE9rbIj7UNbbCoZk6MKpUd3QtYooO1BULyWqC/sxUmVLLF141csLEtxcmAfb0zAyQF8ZDLkUtrsXKpkOKSRi/S4CVeqSSkNHKhvBJIIo9Bop8VpcNjQm4FMCPydcHWFi74tk4+jCtjhR5OpghxMEPXohboVtICQ6pkxYwGNljdpgAOMSCfDyiEq5TmPW5DJDPzGPeciHLLxUwkP+5yW/a3ssOKZvkxo0khtC+eEyWzZISNmRFyZs6E3MYZ0LgUKzmtqmNB28r4lmVkdY08ONGqKLPf0tw3xRDvxqzflfuyjVxO5rFk+XxE6YYH5aU4rHGkVR5srJ8LS6rn5vpyPzlboGOBLOhMBnH9J9S0xYJmhbHWrSgOBZbEmaCSuEKJ3msnD7yniN5V/mRKTmZc0qxfKmoUMKUVxbLzgJnlBS97rKtlhh/q2+DH5sWwpIYdtrYpg1Md6uNwQHVsbFkM00tbYpiTCfqxbI4ukQPzaxXEZo/KONauGq63L8PKgBPXm9vByoPmcmLKJUVlecyqfR1UaWnRHU8rrSJF5PKg9k9iiLQyK4KpWaMOhg8bhT17DuDhw0f49dff8OTJC4Sxf/++Q/hq+ix07twdPr4B8PUNpKzawdcvkIG3BSpXqQEHRxdYZs0FU7OsyJEzNwo45Eelksw66lbByK5+WD1pAPZ8NRD7p/TEsSldcXpyCM5NYYYzozNuLuyPO0tG4OHySYhaPQvJW77B0+3LkLT1WzzdtRxPdv+Ilwc34vfTe/B/Zw7gjzOH8NuZI/j57DG8uHgajy+eQdy5U4i7dB4Pz5/F/XPnce3ISZzddQCntu3BqS27cHXXHtzZuwt3d27BrU2rcXvjatxauwKXly/G5e+/wflv5uLUvGk4PnsCjs4cjWOzxmDH6D7YPb4fdg7vgl1DO2L3gCDs6u2HPb38sI/s7emLXZ29sbuzP3Z3DcbWHp2xJDgQ41zboGP1aqhTqCCK2dvAwdYGNta2ysuBHRyLoHCRctxn9SihZmhCcTVu1Bq1ajZEk4Yt0a2rNIdfhB3bd+PI4ZPKuwrPnrmMlSs3KJcRS5UsC4ssWWFslBkZKIZMRGqu1bMbYV0Xd5wJrIgIBrA4BqxHvvlwzqcIRrkYoG4GZljMyBzYbchMcLF3Q+zzq4pr/D2c2YFkPIk+lJVPVp7AKQ0l5DIgT2K5vCYBQ5r2Ssss+TP9ScqbuyktZlpRbtmVN3A8ZNA70NgOs5yNMLFIVsyqaI11TYvgtGdZ3GZNXV7nJDVOuVwT5ZuVATMX+xloffIrz3E98iuOOwEVsK2hPeaWt8QAR0ME2GRE0+zcvswGqEA5l+W2lmMtvbKlARrlMIQPg2q/0rkxh8LZHlCCGTLlGGivZIcxcp+BMlYyGQZzpbWitErzyYNw1uCv+xTFBOsM6GKZCe0p/Z62JljtURu7A+thn39trGteEpNL50AnDm9iaYwqDLqy/BJcD6GCZUbUz2YKPxsrDC3lgOWtquCAP6UXWBxRXcpQIKzFc7lPKcnHFFS8XKoksQyKjwMduH/tKCtHhDG7u+vugPPMFFZWyY6RhYwpKSO4Zc+AWlkyoDS3t6jcKzTnMpm51s1piNa5TdC1kBmm1c2HjTzmxxgcrzILesgsItqDmbKXBQUt935YoxdhMQPTNhuX+0yJ/rm4DyyVTOIiKy273QpiXg0b9CpoAQ8rQ9Tj/q5sxO3ldpbmckvlMEAZHocG2QzR0d4M06vaYi2D94mQ2rjsWxR3mcWE+WSnsHJzHZgtcj/MsMuMjlZGaJ3VGFXNM6GgsSHympkiV2ZiaIpCltlQLZu8pDkL2loYoX1WQ/zA7OuqXw08ci1MYeXDE2bCiS0tEefKcuLnhNsBDjjG/fZD3awYXTIzAvJkVB63qMj1LUKcTAiPUXELA1TJngnNbIwRwkrOlBqsCHhXx5GQerjSoRJuMoMOpzRiWxvjqXtWPOFxkr+6He+bS6moRTKDvMHMeWuD/OhhmQE+WY3gmcMEbtyOkZULY2PXtljoWhl9S2dHS/5ek8uuwsqaXAJtaWmIri7ZsaRFWZzm/rnZrozS2EIy6yTuc+XeK89PzSMe3F/MlM/3rMOAfw5/PNZI69Wzx3hFKb0kaqZVpDgzLe3bxDPBJLM5ihUrjZ49+yo1/Pv3wpllJSEp8YnSv23bT8qfF5Hfvb390aaVB1xdveDm5o0WzdugYvmqKFGiLJwKFoKTUyGUKlUaNRiwmzasi+7BAZg0tC82fjMdJ1Z9jctrF+H+tqWI2/cjkg+uxuMja/HkxCY8ObMDLy7tx6srx/DbzbP4vwdX8X/3r+Hn6+fx261LeHH1LF5eu4ifb1/HL7dv4dnVa0i6eAkJ5PH1Wwg/cxEPzlxA2MVreHDxOm6evoBjO3Zj/ZLvse37lbh88CiuHj6CU9u3Y+/KlTi4Zg0Or16tcGLdWhz6YTn2LFmCQ8u/x/5lS7B7yQL8tHgeVk8dg3XTx2DV+FCsGj0Iq0f0w+qhvbBmcHesHdgFa/uGYE3vYKzp04F0wpp+PbGsZ1fM6RiCYd5e8G1UD41rV6eQqqNS5SqoULEKu7VQpWp9VK/REA0pq5YtPNFSaZjRCNWr1EXrFu4Y0Hco5s5aiI3rt+HEiQu4fOkOdv10ELNmLYCnpx/3c2GYm8ub4Q2QkeTkiVotZyas6eyG0wHlECZ/eoQB+z6zjn0eBRFiy4DDEyo/A5CTqTH8ShbCtvatcNa7Iu65F1BqyXE+lJQPTyiSRKlopKXJtjQnlwhLhrGGyJNOc68kG2v1zJqULIm1Uy9H3KMET7Swx2lmP6fci+Cye2HclfswngU4vVyWyY1H0sQ8OA8zi5wMcnnwwC0/s6uyuOVXDdsaFMbg/EZwlZaIXOeiRETrSOyJLb/nMTRAbm6LPBgtr9KqapIBXo5mGMMAvimgNC51KYV7AdZ4JPffUloQipQTuI1S25VnduTZtasBFdGTEmjI+dRgsGnC/gX+rbCyiwdmtKyIjoWzop5ZBkVQ9vzdlsExHwViR6y5z/OYmMLBNCuKZTJHPUsrdHLOh4WNS+Mga9jXQsojnAFWAuFzT2n1l0u5fxdDWUgjg+ftnRHvYY9Y/zJ4EFAeB5rmw9eljdGDomrKeZeWbSPyhv1c/G7BZVoxEOdh11GCModX4Do1ZdDuXi4bvmnlgqPtSuEqhRHGCoTS5Nyf0mI2lcjlKo8VcF/HsrIhDRYSAu2YbdjjYkBxrG6UDyOKmMCVQiqXMQOKMC44GWRBAcOsyM9ttKM4c1hlRHYu35HLrMp18LWxZDZTEMva1mCWWwOXAwriJisiDxj077g74opXdQzh/mrOinElzq9wxkywMczMbTFHTsMsyJHJCnkyZlMa7BTn76XYrcHtnVq7Ao5710SYR1EK3wFPWTafs1J1r2kuPAysgAOuTphWKhOCROjcB06cRvtWFwuWBWPuKyNizvXMyUpaQf5egd3mFGf3Yg6Y16QiTnRpyO1muaSooloZ4qmbBaUljxKwnPvJvSwrRAY54LKHM1bUdkYbzlfu05Y3yYzyXNeQimUxq707gis4onq2jMojHtJaVnAkxeRyPcvNoAoFcLhLU1xpV5Eid0Gcck9TWmPKpUFNWZRKhLx551zP2inSitRI67lGWoIqLUVa8qYF+VMYhrCwyI42rd3x7bffMzhex6NHcYiKTMD16/ewbu0WDAsdC3+/DhzHE82atkHz5q5oFxiCrl16kZ7o0rkH6U6p9UH//gMxcsQoTJs8CQtmTsfGFd/j0Jb1uHl0L2LPH0XiuYN4STH9eusUEHYJvz+8hFcPLuPnRzfxa/QD/BEfid/jhGi8in6EpPt3EXfrBiKuXEHE1euIvnUH8fce4tbZSzi97wguMQu5e+E69m3cgV1c13uXbiDy1gOc3HsYi76ai46eAZg4eCTOHziOC/uPY/WCbzGeQpgyaARmcLsWTfwK25evwt41G/HTj+uwcfF32LrsB/avxM4fV2D9N4uwav4srCUb5s7E+hlTsXbqeKwcPwIrRg3C8tDeWD60J74b3APLBlFYg/piVueOmNWjO8Z37YK+QQHoEOiLwEB/eHn7wMPLB27uvmjtqsHNzV+hVUsvNKjfArVrNGK21Qoerv7o3qUfZk1fiAP7TuLM6evYu+c4tmzehbFjJjI7aw4b23zIwJMpIwNqDgaRKpTW2m4eOBVYHveZYUXxZLgT6Ig1DbKjFccrTvIZZkBhE0P0rl4Whzq3wY3AqhSGI6IYGOTFpsoloxRpiZx0H7zUfTBSGk0oLclIlJslwtuYK5e5ItvkQIJfIdxrbcOT1Fn5MxThrC0/asEMo41cBpNGEbk5nDVnSuuRf3bWzm1x16swrlGgW2o6IFRe7cUTXx5Ulqbz8sZ5GwYFeeu8DYNUXgniJAe/SwMU2wwZUNTYCBUtWKvOmwnDatpjCyVwqUNxPAxyQqS/PUVhjfgALpuyjPIwZ1Yn9yvy4UpQNQRLjZzzKcn9U5X9M4I98ZVvU7g5WipZlaxDIQsGbqMMsOP+yy8BikFJJGZjmAmOZlnhYMCswcAINc2Z/ThZYWmTwjjVoQruBhVRGhM8TpGW5qFg7k/ug8c+johxd0ZYYCUcdiuDCYWywpvHshaXV4JI8CvAdZI/A2PP42vLbMeOOFAE8q5Iec5O/nSMC/sl6+xcwgI/epTAyQ7lcdVX/twFa/IBPB6UpDQskGfWYpntxchlPLdcyt+0uuVXFOvq5Udfm0zKPi9O5K0m+RiYHTKYUpgm3OaMyMP1ys7ttZQuEWlW4P6ul90Y3YrbYp1PFZzuUAbX2zkgrJ0jy19hXPWviX6UR33OrzRxymjIyoYZhZUVuTPnQnYTa1iZ5IaDiSUKGxqiJJdZg9s7pV4lHPGphvteRXi8WHbaZkO4hy2us+Jz3KsSxhczhzv3QWXOU16hlo/Iy51tuF5SmckpsuJy88p+43cn/i6XxItx/tUsssDfOQ8WM0M81qUqLrdzwr02FLtbNkorD8u9VChyIcInKx4F5ccVTxesqOWClpxeLq2XMDFSBOtboQL6tWyKqnmyw47rLOXQhnJ2NMhMTLmtJqhgbog+lZxwtFdLVuCK4L5yvHMimedLqrSkgUYOVlrsVWlp0R1PK61ixUrA0NBYeU2QiUkWFCpUFAMHDMX+/Ydx9244IsJjcedOBHbuOEBhjYOnRyAzAXelsYBIy98vGKGhozH9qzlYsGCx8t685cxmfvhhNVav3oCtW3fiwJ59OHXoCK6fPYubZ89QOhcRf/0SYi6eQsKV03h6m8KipF5G3EPUjSu4c/4cbp5npsSsKTEiCslRcbh+7jJ2btyK1Zz/hhVr2b8D185dQ8yDGJw8dBrrV2zEuh824PDuo1g06xvMmjQTl09dwN2rt7Fr8w6MGTwKDZm59AnphQNb9uIEx/t+zlIM6TwAwW3boXe7Hpg2YjLWfLsKO9dtx7rv12Lm+OlYOn8JNq1chx+Xfo9ZU6dh8pjRmDd1ChZNm4qlM77C8lnTsXjKOHwzcRQWTxiObyeOwMJRgzF/5GAsHjsSYzp3wpS+fTFp4ECMGtAfg/r1pcwHoFfvfhR7P3Tt1heduvRFx8590KFDTwQFdeM+DuL+dUPjRm3RuGEb1K3VDK1aeKFPr1CsXrUVRw6fx969J7Bv7zEsplg7deoGZ5dCMDTORJh1MNhWzpER63t64ySldc/HnllGHtwKcsHiaiaoy5OqUEbWCM3MUD1XVoxpUB4nOjbB/XaVEOGaH3Hu0lAhG5IprSSRFk8mfdKSTEu5qe8lzzCxS2lFu1sgvLUxA7I14tyy44lfPkS0NOdwZmbSSosBMrEt5+PG7x5yyS4Xa7LMsPykGXEOhAdRWKxBb21SBCPtjOBGKZTk+krttRCDURnTDKiRwxT1rC1Q38YCDWzZzWuOmtkzowwDVEmOUyIza+sMKCWMM6JuTgMMrWqHPR2q4lJIWdz2L8hl2aXck8vK5VtS6Hnw0MsBFwKrIIAiKMPlyct/S5hnRM/mDdCuSgnWqhnEjSlEiqpKDhM0yZcNrfNng5u9JVrbmqNBjsyozHFKcx1cuG9FroWYpdTk8ehT3Aqb/argrH8xSjkf5HmsZAojKeUSlDwzFuPBAO9TGic8ymFaudxoJceQ08sbI4pynkUZcCtaZES9XJnR3MYErfOZoY29OVrkNUaT7JlQm4G7PGUmjWoKs792LiP0rpALK7zK4Gj7MrhBWUcym4r1s+XyrXl8bJXKiVyylJaH9/wLYW9zB/TLy0yT6y6ZnRMDvz2R5dfIaYLGec3Q2MYUjey4/9mtYW2CUjnkLSoZUTBzBhTj/q6V1RADK9tge3BVXOxUAbcDi+EOg/QVbv8Q7tvW3I6aPD4luS9tMmVGDkMLZDfMzopWXuS1yIPiWbOiigmPG39vxe2Y26A0zvhVxH13BzxsRXkwO7/hVRAnvcvjq+K54Mp5SgZeMkNGZjSZKJLM3E9GaGBtieZ2WdHKPitak1b2WdAoG0UoZUj2qaE5K2xZUJrLaFckK5Z4lMbhkIrMpuwRzQpMkk9+ngPyhp3clBbLdPt8uOpVCD/WdmG2qBGviwkzUEq8UYniaFauLJwtzJW/ZSeZngvXqVymDKhglAnlOU69LAYYW8cFJ7rXxTkvex5rnh8ePMd0pCXPicX4ZlelpYvueFppFSlSDJkzm8LMzAKODk7w9fHHoq+XKG9kuHMnDFcu38ZPPx1UMiw/3w6s1bdF9Wr10aBBC/j6tsfwYWMoqdXYuHE7dmzfiz17DjMLOMKAepTiO4ZDB0/ihNyHOX4WV89extXTF3D/8jVcPnoUx3ZsxcENa3H58AEkMouKv/cA+zdvx6qlK7HquzU4RLHcuxGGB7cpzS17MHzwGLTzDcGAXkMxnoI5sOsokmOeY8eGPZg4chpGDhyHzau3Y/qEWZg4ahIunLqIW1dvYfP6LejdtQ+a1mmGvsxYNlBwx/cw6G8+gGXc3/6tA9GjfR/MnboQ61Zswo5NezBv5iJ0Ce6JyROm44flqzF79nyl0Yl/YAD6Uzx9unfHuOHDsWjOLHaHYvTQgZg2nuKaOwMzJozBVArr23lzMLR3b4wcQGENHoKxI0dh7OgxGD58FAYODKW8QtG33zD06TscPblNXbsOQOdOfRHg3wVuroFo0VwyrjaoXrURatVoyu/emDplPjZt3It9zLgOMFtcu3YjJk+ehmrVayBrdkuYmGeitDKgopUBVnVuy0yrAmt1DjzxbHHBtwCmlsmoPJvlmDETChiaomFuC8xtVh4XO9TBQ9/iiHW1R6J7HiR752DtXx7WfVtamkuEck9L3qiQnTVgnnAUl+Ydgtkpr6zKpZU4tyxI9snBmrwxRWiCBDcTPOawJ+5WSJaWWdLknfOSllkRzOwe+ObFg5Ay2N26CEYUMEMrBoBqDMJODACFGDxrZDXC/7P31nFWXVnaf7m7u7srhUNRuJX7veUU7g7BCQGCBgsa3J0Ei5OQhODu7lBI0p3umZ6Z9/k9a98qrNPp7un5Tc/7Dn+sz7l16957ztnnnPVdz95rr10e7IiJzSMxJ70BFsqAfU4ylqTHYmZaEPoEU524mqAxHWM4z1GqzQdQEbWmg5+VGYcvujbBMTrRqxof3JPuTQ33LxNriyTd3Q9HihKhpROMEfUkDpuOuG1cNFJc7RHN32xiY0JI2WJogyDMaRuDlRlJWJeTghWZCZjdMgAj42xQ5KqHFB63RPTejLYD6CAzAuwxh5/9mkHBJSlerDLVJKNRggMqn0JP3C2OwCltA8xv6IZ8/kaChSFCGISEEwQyPpnta42BKe6Y1SYUyzpEYE3naKzjOS1rH4ZpDVwxKNgK+e6GSCE4ZcJupJU+GjnoYXAzf+ysbobDZRG4WkqlKRF+jhv364nbVBS36JivlwXjUGEIJoeaoDOduMwrlG7IcHsqPR8zFIU4YHxqKBZ0iMWiDlH4sEM05nVIwLvNIlAaYK0WHA3j56U7LIDW1scYk9tH4osuqThZlsz9JlHF18fiCCuMpvLsH+2BLH8qUrazo6ER7A3N4UKFleIfAG18BHpH++CdOE+MjbTGls6hOFMUzmDKjcGQNRUXHXphJJY2cIfGTF8VDJDJ+wEEVpK5MfICXDEwKQALMhpgVWZ9rEtPwfrOKVibkYJpye7o42qITLZtPWNzhJhb8TobINFSH5Uxzlhd1BA/FMfjRlEYnvI+kWxFSd65WWiFm+UeOMM2EmjJVBFZwcCb+5fpO2FuTgj3cEGQrSli7YzQ3ssBpSEuqA5xRLcgG1TyugwMNsP6nBgcqYjBBZmkLL0UeVJV5C20ftNe/ZwAS2oPirIyZ8RhbW2HmOg4jKZD3bHjY8LqPI5S3cjYyftT5yAjvQCpzTugaRM60KZtkZujxbChY7D8o7XYuuVjguqAcqJSsfzzz77DAaqfLz7/Hp/u/waf7TuA7w8cwVd8/dW+r3H2yGmql02YMGIkqouKsXbxEiqrE7hw4jRmUSHNfH8eQbiF3/8BlwisCxdvYuvWPZg0eTaGDZ+AdyfOxLDB47Bty17cu/0UG9fuRPeKfshol4/pk+dg4ujJmDxxGo79eBJnTp7HxvVb0KO6N3p26U24TMDKRavx7aff4fDXR7Fz/cfoXtITI/qPxrIFK/Ex9yOAnPLuTBTllmLSu9Owes0GTJ/xAcoqq1DRtQuGjRiGinKqs969MXvmDIwZNRKlWg2VUgWmTp2M4cOGYNCA/pgzezZGjngH3bv1QHlZJWE3hMc+GRPGT8aIEeMxdCjhNXQcbQIGDhpH9TUKvXuPQNfqASgr7Ym83HKqrWw0qN8K9ZJbIDkxlUDriXlzV/K6fEtwHcQnH++jql2HIo0GPv4+MLcygqNE3bZ6+KikHX4sY5RaHIg7xf74MT8AY0MNUI8PnZeUljIwQScqllU5DXC6rD4dWjge53gSWjJw71ALrF+BFtWBjGtJUoaY1JiTSZxiUntNxr9q8mxxP8uUasqaEaUFnaQNf9cCT3Ot8FQGnmu7E+W7Omg5q8H7w1R6H8bbQGuhr7p8YhmhRhMkrd1NMahegALFp0Up+KGqKY52qY8jdMZHNSE4VByJvTmRWNTUDT09qcboRIMIDVliJZYKpTreGRsIhe9K43FJE4A73OcjlWIvY1pOuFXgi6OEVhn3JV2RUjTYmY4pzN6BEbkZUhgxV/g4YiaBuVvTGN+XJOJYSQyOamNxuEQKAUdjf0E4ZjawQz5hIZPZpVK+h6kp4hzMMKCBPz6jEz+riaTD8ue5y5wsSQKh2in2xWVtHD7uHIlSR0M0s9PndwwRSqfYwN4IVVFO+KBjBLZr43GoSzJOl8cSAtHKTpVF4dv8QOxI98XkZDuU+ZojkZAPF2XIc+nsb4GZnaJwsJLg0EqSTRDu51BBUPXey5fJ4D44pYnBhjQflLOdGhDW/vyudD828DZDv2aBVCH1sJ9t96MmkWCn8ilOwvHKVvimpCU+ahHJ9ia4JLCQdqMlOhigKsEDW6ra4GBpQ1zkPXiZ8DqcF4vP8utjU2FTXksPRBLorgSkPcHhZWKI0kbJWFyWjU1FrbBP0xz7csLxozYM56lOr1Op3yHkT/HYd3X0xQBPc7TkPkO4P+nClKAmi6p3Zsdk7Chtim94Px8lgM4UxeIct+cZvP1YGIWtLZ0xOtAImQRVgokRwaWvuleb2BljVOMgfF5UH5c1sagpi2dA5cvr40xVZIkb5ZKoI9AKVl2nUhBaEp4c2VbeVHaxLmboHOKMASlsr8wG2FrUANsKE7ApIwyrm7mwfZ3xdW4gLpUHUelLeS8CK1/mKFrzWbDhcyNVSvg8MMi7/nZM66W9+jkFrec/ISQkDFaWtrC1dUDjxs0wc+YH2LnzE5w8cVaBaPnydWoBR5lLVD8lFU0at1Fqq3evwZg/bxl2bN/Lz+/nZ79VgFuyeA02bviY4Poee/ccwJrVW7How1XY+8mXWDx/JdZ8tBHHfjiJTWs2o3/PfmiU1BDLFi7B+VPncOLwCYweMQ5jx0zB6rXb8DVBd/naPZw+fw2r1m3F1BnzMOG9GZg7fxmd/rtYv34H7tx5gs3cX0lRV9RLaA5NYRV69xikFNLJ4+dwiraR3+3bcyCmTZmJ+bM+xIezF+OrvV/j9OEz2Ld9P/pR3UwdPx0bVm3GJzyfvR9TuU18n79Vhvf5nRUrVmPW7Dno2bsPBg4dginTpqBLZQV69+yJqVOmEvRj0KFTZzRPbYl+Awaha/ee6NGrD96fPhODhoxAobYcGdn5qK7uiTFjJmIigTqc8B0wcLSC1aDBAq0JVFxj0b//GPTtM5KKa6BSXOmdixS0EuObIiqiPpo37YSh/PzO7Z+xvb9WWYU7GWQMHDgIicmJsLW3gD0VQiKd/erKTjhcnqJbBLI4iNAKxVA/KdukB3c9Q0bGRsjyssMWTSodVwKjvFA6M1c1KVfmjagEjNfGtGSCsswlcSa0nPmQvWnS1eWMZwSCAO5RrkycdFTjXmLyG6qsD52lZDOKMhOVJkkid4s8cJlKcHdLdwx1o8KhI5Gki0gbPaS5GGFwA29sLGxEWKTgdKGkggfjdrks42CL23zo7/JBv1Qahu8LgrEmzZGO1Agp/L4kbEh3WZqzASa2CMJn5Q1wrjSK3/NUad/SRSgLFcoE0dOlKaiyptNl+3jzuy6GBnDX10e0uSlyna2wsEUsvixoiAtVjajWAqgMqVJKvHAxzxkXC7xxQRuEL/OCMDrSBK0tdIP+9gYGCLWzQEmUM3aUU3mUxOIOr4dUuZB5Y3dpN0sC8WNRNKbEmKM5na9kBoby+kmWYEGQFVVDNL7u3hg/lIbiamUI7koav0wHoFq9wfa8SoV6piQA+3PCMCc1WFUhkW5KmTSeQKdaFWqJz8ub8PwSqVRC2O5eDCbsCWw3XKHy+yorDiO9bdGGxyuJDL68f+JcDFFJsKwta4bvujbFcX7vap4XbuR64XpBIK4XReFaWWMcya6HD2PcUSKAZbuJ0grlvjv62WJ+XhN8VtIIZ7jfs9n+VJlROFteHwermmFqM08kEVoyLunIz0t792uegm1dMvBZQQMGBPVwtiSCwPHEJd53N4qlVJg7DuV7YUasIzoyGEmQ60uTrtxWbiaY0j4aX/RoiYNafk8TiNtSxUXUErcPGBhcL/TA2UIv7OkcgDHhdmhDFR7N85WFTSXJJdvDGuszU3Cle0ueXzjvD1kaRQIqS9wsc8VFTTDWpQap7lM5Tzset51Ai9tmThaY2CYGW4oa4aCmHo7xep4qicRJXutTeX44xXa7KJmc5T6o0TjxGbHCc8nopD0lwHTQ4jMjkNT6vYVWnb35uWfPniM4OAQ2NvZqompOdh4WLFiEXTt3Y//+L+kM92DyezPRrElbREXVQ3RUioJXWWl3vj8LGwiNrVs+4ef3M+L/QgGqT69hmEK1c/DbE1i7ZjtGDn8PPbsNwQczFmPiuGlUQDNx+vgFqqBTmDV9LtI7ZGP/ns+omB7g3OkLeGc4oTX6PSxbupaOeR8uX7yFS1Raa9dsVcqkqrIX+vUdhvcmzcSBrw7hHqG1k+DpQSffqF5LNExOU+CaM3sRTp/kfg6fwuoV6zGKMFzD7YcfLMJY7mM/j/n4d8exf8d+9O/WH1MmvI8dm3dh76792PfJp5j63nQU5WsxdfJ0rCS0PpgzD9VUTKPHjce8+QtQSdXVnXCaTsiPGTcRaW07ICgsCtn5RSgoLkXXHn0xZ/4iDB0xGiXl1aposFS9HzT4HUx9fy6Gj5iI3n2GK1ANGjyR6m0K+g8cR5CN43tj0KvXcFRW9EFeTjkVbicqrVSkUG01qN8axYXdqES3qkSMXbt28xpsJwzHok3b1nByYQBCR5BI57u+W46ClkyGvVNMNZIfju6WOmh56Mm4iyFyfFywVdsax4tiVL03GWeqke4Kpa5q55BILb8igkx1Z7nprIhwo9XQXgVXXQXrJ2K1iQaqPJN0JypFJt2KkgQh3XOSQeeEO7lSO84PZ/JCsTDRDVmMYFWiCJ1JOCPhslAZm6HzrGhMJxaJa7keBJX8FlVcvgke5pnhboEtnbc7zhZ54UR5FJan+aGAqlOSGMSpxRACmkgbrNE0wNEqqk9NEO5pJO2cSo/O4nahN8GdiG5UGDLI7s79m9ORBdiaogXVztTUKHxD6Jwl2G6XxeJqtjVuFJngcpEermcZ4GG2dHN64QrBuaalE/Kd6Lz5fRf+VoStEXKDqWgLU3CEqkwKoj7M477piGWy89WKCGxs44VSN1kxmo7YjsBx1UOncFvMya2HfV3oxLsn4mK3KNypClYTj2sYkYvJXCs5/us875OlCTjYqwMGR1gjjc40Rsa3CK5Uvl7WJgHf5VJt5erWVpPrI6n2l7Sh2NLCn8pWT6fA5XgN9VHg54DFmfXwXXUTnKOaO9/JCjc76eFOjjGha49r2VZ4VBKMe8Wx+JHqd4y7HVrxu5IMIYkO9c0N8U6TMOzVEloEtdS7vEcIXC8JwsmqRExLskYjto8kRzjyGGUMcEDzZHxc1RaHqHQuMMi6zsDiJu8pKVZ9v9Qd10rcsa+zC3q5GygVHsLvyfHWszLEqLQAfNEnDYe7ROBEDoMY3pcyQfhnVVTZWQVbcs/d4vsXqVR3Z8ejh4uJWvlBlJYkUAjgJ6Ul4HDfLJwsFFXqo7L5JPNS5hBe0fhjXQs/lUwiXZL2hJUkeojKKwp0wOriejjA3z7F5+1agT/u5vuoqR/3+Lzc536lmsfTEhcGgTJnTlf2SYAlz5hASy2xIt2Rb6H10t78nEArMDBYqazgoFDk5RVg7twFSllIIsWSJSuVokpKbIL4uIaIjW2A1q3S0avnICxauFKprO3b9mLbtj3c7sOK5RvRrXoAxo2dhsM/nsWmjbvRo/sQtErLQvfqgRg8YBTmfbAUJ46exUWqp0ULPkJOZiEOfX8UTx49xxlCZtjgURgy8B0snPcRNm/cRZBdwZVLt7Bx/XYMHTQK7dtkIr1jPubMWoSzp67g9o3H2Ln1U4wZOQX5dPDNGrVHcX4XvE9wnjl5CT/+cELtp3/vwZg3eyEmjZuCXl36YNu6bTj67VEqrX3oU90Xk8ZOwbZNO7GH0Nq7+1NCeToKCK0phNaKFWswc/ZcVFV3x6jR4zFn7ocor6hGt269Ca05GDlmPLLyNYiMS0bLdp3RtlMWunTvi4VLVmDQsFEKVlLtvkhTQRXWv7abcyJfD0affqMw8p33Cb5ZGDz0XSqu8QpcfWrVlqa4Kzq0y0Ojhm3Uwpn1kltCW9yDIN2MbVv3YMvmHVS2m3lcoxW0HJ0JLT5ESVQoG6VElVJaAq0wKq1odKczUU5ZT5+OwgBZ3i7Yom2LY8UxuMOHRZViypeCq6KSXoUWVdar0KoFl0CrbrkInbnwPbGX2XHyWoCmqonni3PnA0ynKUkQUk5HMgjvFvjR+YVhXJCdqtTha2AIL0b8jVwtMa1DY3xe0RYniuNxLS8A93Pd8DCXD3qedDea4EmuKR7kWlIF2OISoSsQ+CwzEoPczZHKthDFE0j1keppiEntwvBtZWNc0ITjXqmPyiJ8FVo9CPtk7l+yEm0liqbjz3Azx5rsRjhZ2RQ3ShLpgESt0AHm6+NqgR7u5hrheQ7bJ9sZd+iU92d5o8rDQKXGe9AZBvM3OvqY4cP0GBwqjcNNDb8v0CI072i9cLokHDMSrdCOwJTsP0mfD7XXR9/mwdjZNQ3f8P8neW0uaX1wW1L2qWRliRCVwcn2fVLkppTEmdwAnOjSBBvSI1DqrI9knrd02TXkb44J98KXuY1xngrpXqEnnmld8IDQOst7Y2G8M9L5GckWlHG4ZFMTjGoYhX0lLXCqVMZ4AnAnw4LKQJZpMeG1MsbNbH080brhUZ4/rhSkYGWyH3JMDFRAlMxzbmWtj6Gx7tidJ5U6oggRKbjsittUS2erojEzyUqltMu0BSfuW6A1kND6pLIFjmhCec96q+7Au1Tk96ikH5S44XKJN9Y2tUUhAxCVTUpgBDAgyfG3IzDq48fu9QhIDwLVUin+n3kv/I6K9CcGOGqOoah6tp0sinpCk4KFDbzUuKmMf4qiDjbVR2mUD3Z26YDjXZJwKV+mBYgq0o3RXtd4E1reKpFJjtee19WZxxDHZ2pII3/sLK+HQ+VBBK4Xbue542meB02AWdtzwUBQ5j1KncInbMuafEuabOVZE2jJNXXFLW0AjvWum6f1vxRadf9/1eT9p0+fwd8/CHZ2jqqbMCMjC1OnTFNdhLNnz+d2HirKu6NhgzSk1GuOxPjGaNcuCwP6j8RHy9Zj8+ZPqLZ20mnuovPczfc2oGePwRg/bjoO/XCaCmAvhg2dgA7t81Ba0h09ug1QsDlClXXpwg0sW7KGoNHih4OE1uOfcfrERYx5512qoglYs2oz9n7yBS6eu47LF25i+5bdmDBuKirLetB6YumiNbhw9gahVYNd27/AtMkfYvjgd9G1agAqSnth+tT5CloynjaDyqZH136Y+u5MDOk3HNkd8rBm6bpapfUp+lb3x3vj3ie0dmE3obVnz+dqEcu8ghJMlu7BleswbcYclFV0pUIai1kfLFCvq7v1wfQZcwmtiajk61YdM5FVoEXn7EL197yFy9Ct1wAUl3Th57sjN0+LkrJuGD9xOpXVRFQRSj17j8TosTMx7t0PMGzkZIJrApXXeJ3a6jkM5WW9kJ1Vis6dCmlFaJGajmqe44L5K7Fq1SYCdS3WrFmHkSPf+XNo9cyrhVYIoRWBQ3mElplOacmqwjL+kO3jSqWlg9ZtrS+jUcmokyKxlnxgBVhSauZNaEkSgWxfmpQhUsaHTkCmA9dLUxUp+D8pl/RAKjXIXC4+uPf44D6mM7pTFIpPW/qip71uCRlfAzoRK2NkBLlhnaYDnUEaLhREUpX54XEO95/rQGDJQLa1spocKZDKqDzXSdVuO1EQjwXxbirTS7oZJaIXtdUryQ1fVDTHWU007pQF4lGpB89V6vv50pEloTvbTdrHhc7Mmu0o6exVEZ7YV94Op4uTlbKoKQzGc6liUWBGAFBlEZzPcwjnLKpGra5c0OBwG8Rxn6IWAwmhtl4mmN0+DN8LBKhuHuRK5p50Bfni+7wgDPMxV8ojgN+RJJA0byvMzWuAA91a4Lg2GBeLPAgPDzpxwobgV6WS2J6yDtjzEn/8VB5OJ++Hq6WR+KEkAWPDrJDG3xLn3oiOtburBXak16NqqkdYB+BZKa9BiSdO5AdhcoClGqeJZKAQbGKGVAdrLMpJw4/VbXCe6lwq/Ev7/p4BzM9UBxLM3M42VtB9kOfLc0jGpx3i0NfBDB24rxw7fVR6GGFchA32dpJjD8OdAqoOXh9Z2kegNSvZCk1roSVTFkS5DGpeD7sJraOaMFwnhO/yfrunoGWNe1pXnGdbfRBpjA78jgA2lNBIsTDEmNQw7Oc1PUFFeI1t9JBtJPUDZQmbZzKxmm0lY7G6bmn+Zr6k4Sfhy+xk9HIzUm3kY2yMQCtztHS3wKLCJvihazLO8z6XYOvnPDv8JEEKobW+hZeCli/vKQczfQWtZGtTTO2YiP1UxEfLpSajB4/bjcCSycOy75fQkmVvpKjxEymSW2DB4IP3P01XMFd6KNxwW0pj/W+GVt3/3jT5n0DLzy9QQSs4OAzt23fEO++MUZUwxo2bhDGj6YwreqpirpKA0aRRK2RlFmHggHcwb+5HWLVyM9at3U6nuY3Q2oMli9fS0Q7BhPHT8f13J9R7M2d8qD4/ZvQUqqgxClonjp4jcK5hBcGXn1OC7749gscPnuPU8QuYQMUzZuS7WMn/7f74M6W0xLYRkPPnLsWs6fMJqDlYsnA1vv/2BO7f+Ql7Pj5ABbcC8+esxAezlqE/Vcq0KfNxihDcvnU3VddsjCYklixYgVFDx6EgoxgrFq7CESotgVb/bgMxefw0QutjfLJrH3bv+QwT3n0fUvT3/WkfEFrr8f70Oajs0hP9+g/D+AlTUFhUjm49+hJmcwmdSejVfyi0ld3Re+AwlFX3QlfC6v2Zc1Hdox9K+X4XQkyWaSkltIYMHYuBbIvSyj6opDIdNvI9jJ0wEyNHT8WIdyYrFSbQ6tN7BLp3G4SKCkmF742yst4oLOiKvn3ewYzpC7Fo0SosJBgXLVyCocOGo1WbVoSWnYoAJRFDB636dABhuE3H8X125J9Dy7cWWppaaNEhPSiUZTl00Kpb7+fPofWXTMoT1YGrVokpYInSoqOm05A1ou7lyaCzrYLWA6qNa8VRWF/fFUUWuonP4uxjbIzQv0ks9pZ3wJnSRgRLGAHhi5pcSRdmBCtrS+U4K2A84/Yx1c5DvveIUfqV/DB8mRGHIkbQCXRykhQhKdwFgdbYnt8AxwtjcYuO/n6JD1WAO4FAR6Gtj25sN1GirjwGO35HutfGpabgYFUnXCyIxSMe59OCQDoxd1UppCbfHDXZFtw/nWMOHSKBeaQ4HO8mOqM+HZoPz8OX1yPVxRDvtw7CwbJEqrUw3KNavEPHdqUkGDtae6DCzkil2st5SxWH8gQfbChvjYPljXCG0LrGNrpNQN0TpyyFcTWeqNF4oUbrjSclAXhSGoJHjNBvFAfhCEGzIMUVWZb66lxk7CfT0gQftY3HsVIGMQXeeKz1xN1SPxzI8MMgZwM05+eijE0RbmqKXD837KjsjONs8+vZ/riXYY8/0BE/zzLDT3TgUmz4Xr5kujEIyZdiuOE4mhuLBZFWmBxhjen1nLGkuR+2tgnA9xlBuEow3svz5ndccJP3wgmez8xEC5W84SXQYhvL2OPg1HrYU5XG6xChqkJIF5+U9RJoScX7w7z2I90NkMpjFXUkK223sjTGitwGOFLRFFcJuwe8B2X1ZAGGbr00UTrcinH/arXsXJlsH6WWJZrDe07mgwWamCDAxgax0q2ZGoIvKhNwplhWNnDH7xgISQX/O3w+1qe9Di0XXts2vk5YWtgcX1en4GS5L64SsBKQCLCkJqdMH1HrbSl7CS1ZZLTO6qq8yyKltzVBb5XWm/+TvyUR48mTpwpakjko27S01ujWrSe6de2JXr36o3evgYz0u6kqDdItmM5taUk3DB40GjMIo4+Wrse6NdtVpt/mTbsVtAYNHK2y+747eEKpsNmzFhNcC7H8ow1K8az8aD1hcoEguoyN67ZhIJXPga9+wIN7T6i0LmDyuzOomEbjvYnTCLW1OPrjaVw4dw37936FLVRCu7bvw9rVWwitVdi/5wBuXnuMLz89hFUf8Rg27KE6O4DZM7nPaQvUd7dt+gSLFizHGkmh//w7LKejH06luIF/Hz5wGLupEMcTErOnzMUOgnHXjr3YRXBNmjxTAWrWBx9i2XLpHlxASPWjYuqGfgOGET5d0X/gSAWzseOnYPBwQobvjyLs+xJcfQcOx6QpM5TS6sF2HDhopFrNubprH/TuOwy9ed5FbMvcwkoqrgGE2FilvkaNnowRIydh0KCxVLSjdUaADRw4lu+Nw5DBE/DOyCmYNnUB5s5drFLxP5g9l8c6AM1bNFdjWk50/MmvKK0bmnDcKgjBwYwwdDN5HVpZPi7YrGmDo0XRfFhkafM6aFn8F0NLp7RUpW5+TuoLqnWQCK47/PtKWQIWJTuqlGuZkyTKKMXeCO93bIxvK9syek3kMVEZ0UnKUjQSyUoyw7NcT2VPCTLVFVNbmfsWHdP5svoY7KKPhjxPlRZNx9jJ2Qir2sfhWFEyrpdTbZX4UYV6M0IPxVFtQ3QltKR93GkyHiVqaUFmWxzp0pGfieYxh7I9/AkuN0bxUkXelrCy5TFIgVgZu6DK00Ti/TgXNOV3RalJskF9G31MauGHb8uSca2EqijPndfEExdKw7GisRMyed6qm8rIEOFWZhjUMgk7u2bgh6pUnOHnL5f4Ely+vJZUNrRbGj9lNzX+NBn/CcI1HtelwhCcpGJclRqMYlup2KA79+ZmxpiRFoUfyhriQg4BwnO+URKEj1t7o5yQlCSKcKqsaFrvpAh8yvM9Tad+L4cKqaMp/pXO+GmOJc/ZkY6f50kHK0pIis3eKvDH9dJYfJfhj6+zw/BNXiS+z4/G8fxIXJAJ03n+uJ/He4vX6ybvhyMFvpiRYKZg4clrItVMpJtvSIt62NulpYLWLYJY5s/JfDqBllTy/7yDF7pTLcs4lFQ+iWS7lviZ4JOSpjhVzPuD1+aZjNdRYUkGbA3vB1n8VFflXsa46kwW8AygkgrB1s5B6Chtb2IMH0tLBBkYoFuiB/ZVpTBQClFdqT9RFYtJUFcHLT/u247HLcuq5Mf4YHNVW3zfJQnnyr0IXKmhKQuWihFY8vzUjl29hdbfCK1XTWBV91lRWr6+gTAxsVSr4qakNEBBfhGqq3swsq9GZWUPWk8UF1chL7cEJdpqdK3uRzCNwlQ6+cWLVmPlik1qLGv9uh1qK0kYCz9cqdLdN238mJ9Zgw3rduLzTw9iK6HwqWTtUQEJtL75+hDWrNqE0yfP496dR7h66Sb27f4cG9ZuJdzWEkLbqb7O49aN+/zOeSqrwzh+9DS+++YwFdFn+Ir7uHrpLn/rGj7bfxDff3MCJ49d4vuHsJn7PEZofb7vAHbv/JTvHcQZKrnP93yN+TMX4mPC6sDeb7B3C2FL9becKkygtX3LJ9i4aSfmzl+KadPnYcHC5Vi4aAU+XLQco8cQSP2GYviIcRg8dDTGTXgf7743i8prKmEjyRRUqOMnY/hwgobgGsptt5790avPIAwZMgq9eg/i68Ho03cI+vYfjvLKXsgvrEA51WzXrgwSeg9F/34jMGyYZFC+TzB9iOnTFhH6hPDMpcpmTF+EiRNmc/sh3ps0A5MnT8OUKe/zNyqRmJwEeydbOFowwrZ+BVp0egKtbzuHoruxoRqzkTRhmVeT4eGEDQWtcIiO5gYfUB20zOmMzPhg67qC/jPQejVRQwcuMSkO666gJaqrbkzrFgFwqSIJU8OM0IrRs2RzSVWDlu42WFrUDocq0nCFSvBeoS9hx4ea378h601JHUHJhMuXyuLu3NJRSUkiOos7dKw3ujfAByl2SkVIarRYGzropXTepwmDq+UxhJY/7hIC1xilH6Wy6ErYS/vIAL+0URId01ptNo5VteM+eQwyz6qIDphOUOaZPc21Iyy5zaPa4zHcK/LHaW0UZsS6ozkdsvyOLMoZx/2Oa+aDb8rrUV2FqzGPG4U+dIxRWNTEGe3o/MRxOxuZIczOFgPbN8O6qgx8WUknXhGP01SFp8sicKo0Aif4nWMl0ThaEkeLJ2wTaclqe7ikHg5XtsLyNvEotLdQE7MlQGlABTG6gT8OaBvgbC5BXeRL5eiLDU3cVOUNgVuAnj4iqEwnd0rD1wwUzhdE4wEDgscCZElaoQOW7rUHVJn3eP3u0ck+ENXM87hN9XSV53WpNBpXSmU17whcKQjFzfxA3M3zI7S8CS03XjtXqlx/zIw3Q2O2j0BLugcDCaGhqcnYX90SJ0oicLtUoMV90fnfK7Bi23tiV5obStlG0n0cys9HcDukgSe+6dES54pjeC8FUP3y/uS1UKsO0x4zgJEgRhIxJDFDVpiW5WFu8z69WOqPzxlgFDhRZZrqq4DBn23QJdEHu7s0wgkppMtzrVG/58zgQMa0PNX9JAGfDc3L0hDl9YKxp0dnHO6SiAvlnjxWB7WUjWTLvoXWf7J78NW/ZW5W3ecFWgEBQTA2NlddhLGx8cjKykVVZTdotRWqPFOXqt4EVy9Ucdutaz9Ud+mLfn2HY/J7s7FwwUosX7ZBmWQOrl61BfPnfaSqNuza8ZlKed+z+2t8+cUP+PbAEewnQA5+ewQnCaITR88QNpdUEsaVKzdx4/odXOX2yuWbOHvqAi6ev4pLF65RSd3Gzau3ceXSdZw/cxEXzl7i6xu4fOE6zp29ohvzungb585c4/+vEVoXcPzwWRwgpE4fO4cj3x/HF59+o+w7KquvuN1GBbh7yx6lsj7h6w1L1mKLJDYQvNs37MJ6nsdHS9Zg0fyP8OG8ZVg4bylmzZiH996djunvf4AZ0+aoLsdJE2dgwrj38c7wsRg9agJGyHYk1RCB1atHX6rVfqoLsWv3Pkq5dqdS60Hl1a//UJVF2L1Hf8KqL9XTKPTpM4Rt21sp24EDRnA/c7GeKnbr5r3Yse0zZdu37sOiD1fj/alzGRzMxsiRY/HOO6MxdOhw5OUXICIqUk0wlm6LBKqtjT0ke7AebmrD6TxC8H1GOHqZGqrMK3GmAq1MD2esy0nDkbxo3CAQpLTRg0JTBS1Zc0lWANbZq9D6LfPAU0bfslV/K2jRgRB6YmplYv6WmpTM37+fb8P9uuNsZQpG+OihCR2oDLBLTbtOXg7YUJGBI+XS9ROOu1LFgeCTcZEbWleVlCCrHz/g/hQIqd4eS5cdHcVdOqkb1XFY0dILnQkMUTGS1SYVEWY1C8WpHm1wuTwWd7T+uCdrL2lCcKS0AaqptCSLTgbaBVoyWXdrVR6OEQQ3CCNZG0mWKJESSLIW05M8to1MEVBjJ1Qgxf44w8/NjPFQ3Vji3BxokaZ6GNXEF1+XNyC0InXQKvIjhKIxt5Ez0ggtmRvmaGIBX2s7FDVOwqSM5liaWR8bMyKwJSMIGzqHYG2nEKzsGIKP2gVjWbswWgSWt4/B8g5xWN6R59spEYtaJ2B4QiBa2pi9mMcUy3uib4Ir9pWk4FRBEG4W+uECFdKKFHvk8tjiCY9QCysqS0PMyW2Hb8pa4nJxNB6qtawYiEjhWHXNpIuX50l4SVKDVKeX1ZVvUYncyHNTNRxv0e4ykBB19TDfl7/hrYMWr/NdQutUUSBmx5urRAzVPcjzDqINa5GET6vTCK0Q3Ckl6Hi/iPO/R2d/TeOFTYS7rE4g3aiBokj53QltovF1dQvCMpbH481rIICSsSHCiveaJFLInEJ5Ty2xI2NbfP9WsSMul3nj69IwlLiyfXjfScaoPBNlcZKM0RRHyyOort0IW3t+xxnXtV5YWwsteX6sab4WhqhOCcP+7h1wvCqev8nzJ7QkGFPQUs9OHbBeh5ZuTEusbkyrDloyptWiFlqvF8z9X6O06v4nKuvZs2cvPq9LeQ9TZZyki1BKOrVp0x4FBRoUFZWhpESg1Qs9e1Ih9ByMQYNGKSUg3YPv0mF/SEW1bOk6lZSxhI5/+UcbqZy2YvPGT7B29TZ88vGX2P3Jl9x+zu3nhNiX2LfvK3z+2QF89cW3BNYR/PDDUZw4cQanT5+vtQs4SztHcJ0/dZ5bsXM4e/IMldJpgug0Th49heNHTuLY4ZM4fOgEDv1wAt8dPKq6GaUL8KvPvsVX+w/gy/1f48AXB7Gf6m33rv3YvH47tm/ciU2rN2Pd0rVYt2Q1NlAtbvhwFdbR1vB8VhPEKwjehVQyosDmTv4A08dPxeTRkzBh5ARMHDkek0a9S5uEie+8i3HDJ2LMMMKDymvogOEY3Hcw+nbvjS5lVaiu6qYyDLt27aWsmtaluicDgO4MBLqhsqIrIdWFAUIlyhkglJdWoYLbyZPex9ZN23Ho4BGcOXlRZVUeInz3s/3mz12CdyfIPK9xGNB/CPr370/g9UHz1BZwdnOFta017E0NFLQ2dM8itBLpbGX15WAczo7CUCdD1b3iy4jSX88AOR6uWNu5OU4W8nMyVsSo9mGhiYKWLntQN7/qKUGjKznkokwi1zpTqwArc2Ok64Wf8/3xU4EfnhEo6rNF9nR6VjQ+oLRHRVRxRZZ0/LY0BzpQb0KhHsp5zGpSLh2IHy3DxxE7qrNxtKyBLkVdxlCKZeVkmlYWpHSlU6NTUepNUu/FQenmhMlYyJWyEGzuFASptSiLXYpDkvlLgxOd8X3PVoyKY3CXSusBHaKkYh+lKq0itERpSZeapEHXJ0w+6VGIY+WpjLQjVPefzPuR8RFZ3VYmSdfNX5MI/l6xH86WRGFWrCfSan/HniaVxoc19sdX5Y0JrSgFLan0faQoHKMDrVCfDtjDSB/2JtZws3FEUpAP2ga5Id/HFmWepijzMobG2xyFPhYoEPOtMyv+bYNCXztoA5xRGuSOXF8XtHC2UiWd3HgOTvxtf7ZrcZg9tlc2wnFtBK7zPM7lB2Car660kpS/8jcyRpKFMZaWZOLbklS2eRTb05PQEpUswYYY21lKEPG6qnFKnrcAXPcetwKFPN4vsoJzjgOe8zxr8ggw3hcCOxnHO10YjNlxtdBi2zhy3zItYXhqAj7v2gIn6bTvlDAYKZKkIGsGINa4ovXG0ngTZPDz6loaGyGMqnBaZnN8060NLjFQuK8CJrkWtgoCkkIuwZHMf5JkCFmKRv4vy7Hc1TpSaXvgu4owVLoTWmwnyfSUe6QD23tTRWMq1khcZtB1J5/HoXVh4OSBNanuqh6kHLctzZ8Ktieh9WlVK5yqiMPVUk8GQgzKinlfSO+E1PCsKzrNY9LNe7RWpsD1wnTQersI5Bsm0Hr69Cl++eUX9XmBVkhIOAwNTWFlZQtvbz/ExSagffvOBJeWVoLSkmqltgYOGKlqD456ZxLGjJmslNZsOvWZdO7SJThu7PvKJr07SyVfzJi+AHM+WIoPZi/BnDlLMG/uUv69CB8uWEZlthqrPlqNjas2YO2Ktdi6cSt2bduJnbQdst2yA7votD+m7ZL6hcq2YNfGLXxvKz7euA07+d522pZ1W7Bp7Raqo01YtWwtVi9dg9WE0aolq7CStmIJwbpoORYtWIoFHyzE3JnzMXf6XHwwZTbmTJqB+VRPH06cjoXvzqTNoMnf0zDrnYmYO3YyZhNM0wmISQT2+P7DMa7fMEwc+A7eJbgnDhqDCQPHYEx/tg3V55AeAzGoG5Vol+7oVlaJHl26obqyGlWEkwJURTVKSiuh0ZSjuKgUhQwO8nIKkJ2Zi+yMHHQl5CaMGY+d23dQiR7D/dt38eThYzy4c48K8zw+3fsZJr/7PgYNGMbgYQh69OhDGFajqLAY4RERVFn2sLCygD0faOmO2tCDKqUyidAKYfRLaGVFYKy3IZryYZOuoAB9A2S4uTBCb0ZHkYIbjJAfEloPFLTM1YP059ASq41m34CWDNA/p1r7iVG22HNG4LIUh6xA/JQO6AmtptiWDk5S6qXsE50gI/YbRb44VJaAYgJFJntK/TYZM8j2c2bEm4njZSlUQlREhJWsu3VP1t5SJut6yfwXqdouTlTqIcrDz9/WuOAiAbIzM0w5Ol06t27wvkekFb7s2gxna8e0Hmg8Ca0AAj4ZFbXdgwF0iOKYRGl90oNKq7wJbmjC2C6+eMRzk/GzpwItOkMpa6UW8CO073Kf56ieBFpq7IMmzs3PVB9DmgTiS/7OZYEW21pSyQ9mB2C4jxlSeN5uhoaElg0crR3gam8NL0bxkjwixXDFpF5kiKEBgvlaFcd9YfoINTLguRki2twEoWZG8KGyksooFjx+a5o72zMzwBGbu6TieEWCmrt3Jj8Qk+iwZa0zybD0NTJCsrkRPtKm4/uSZrxvIqhWRGlJ24o6FmhJJighphysjBnxPTG+94BOWsp5PcmzwU85Nvg5x5b3AT+bL12IoopdudVVlpgTa6FLeee+HbhvmSs1IlVKbTXDKVG/JYQg7xe5V+7R0V+h8loQZ6COVboGPY0NVTr/jMwW+LZra7Yprw2PoU7ZSMAl98JDQkMqTajJ7WJSOLjYjsGKPa5XuOMQodXVQ5f8I9Dy5nVPdTTEKm0KfqiMwiWBlvQ+lDjjssYdq1u4q+dH7iU7WgADxN71w/BldWucqYjFdULrrpawfANasszPy8n6BNZbaNXu/FdAVWcCrDpo1X2+riKGLE1iaWkDB3sneHr6okGDJsjMyENWZgEK8qm4tNUYPmycmtA77f25CkpzPliikizemzQLQ4eMUwkYw4eNx/hx7/O92dxOI+DeU5mEU6hWZkyfh6lTZlEpLFLAWrtkOTYuXY41CxZhy0craMuxZfkKbF2+Ejs+WoWdH63ELrFlK2jLaR9hJ+1jfk69t3QFdtC2Leb3Fn2EjYuWYd3CpVi7YAnV0hKs/HAJls1bhIWz52PRvIWY98F8fDh3IWZN+wBzZ8zDvOlzsGDKTCyaNA1LJ07FsglTsHzCZCwf/y6WjxuPhSNHYvHo0fhwxDuYN2QkZvYfiml9BmF6v8GYPWgEZg9+BzOlG48gm9x7MCZ2H4CxBNYYqqzhXbqib2k5+gmwiktQUVyG0uJyaAVWmjK1/lhxUQmK8ouRn5OPXAKrKK8Q746bgN07P8bNa1fxC2/SP/3rH7l9hpqH93H0xx+xeMFC9OvdD6XaCnQT1cb95ObmokWLNLi7e8Dc0hJm5mZwMDFGLKPs9d0640gVFRRVyp2CIBzJCMHUECPlTKUMTaCBPto6O2JBh2Y4UtqITiqQD75Et2YKWvLQ69J1aRLB0mm9sFegpRZUrDNG3bLasaz+qowPoXSbPS7yogPxUfOJ7hd5QyZd3s3Xde/dZGR9UBODAh6TjFO40nH40Qln+7kQWhk4USrJJH6ElT3NTm3vax0JG4GWCx0EI/ximQsm0bU4Kyo4rRsuUMHtzY1CFn8zhpCWOUiS5FEZYIB95Q1wujRCZdDdJ/Sua/3wY0USKmqVViCPQRxTilJaOYQW20cjA/M+dNS6+TcCLRk/05W0ku4oQotwrYOWdA9KdXYZ+/AmtAYpaDXFRW0k7vDYrlONftXRA0OkZiA/40Jo2RlZw9bMFjZmprC30FeD/Q48Zkc6VEcqY0c9QzVGJpXEXzUXHq+0mxvbzdPSFK42hrC104M5zYbn5EdwZVGBbapsiaMVybhcHIITBcEY66qroh/O3/chEOuZGWKFthN+KGmMm1ToT+ion6i2ZXtLkMHz1AFLdw/UyCRvmb7A6yD1I++Kqqb6lCU31LIbvBckMNGNf+mmO5wXaMVYqJR3UTYvoRWrgonTClpS5krUOYHBa36tMghzonXHKqAWVSrrwc3Mao6D1S1wmfeuQPMJv1MHA7kXJNFHTO4J3disPR7z9+5qbXGz0oNqKhzdCS3JsBRoeRoYoR4V/5KiJHxfFY1LhPSdAks8LHPGJY0bVqd56uYRynHT/Hl9+jYM53G3wumKKAY/7uoefVhMcBKQNQTVY/WaUFImANNB6yWw3kLrV60OWmJ1n6+Dlr6+MczMLGFubq0UV3iYdBN2QlZGAdVAKcrLuqNH94EE0FQCawFV0zLMn7ccH1BJvT91HqZNW6C2AjIZ35LuwoULV1FVrcCypetVNYtNG3di88Yd+GT7bhzY9zl+3P8pju3ejVN7PsHlz/fh8me7cfnT3biybzeu027s2Y2btOuf7MTVXdtwZedWXKap7Xbatq24tG0Lzm3aiFPr1+PImjX4Yc1qHFy7Fp+tWIF9q2UpEQHYh1i5aDE+WrwYSxcvxWLCbPE8/j1/sQLclnkLsHXmDOyYNhUfT30XuyePw+733sGuiYOxc8IgbB07GBtGDMTqQf2wvH9vrBjYF6sH98cq/v1Rv55Y1qcHFvfugUU9u+ODqnLMoE2uLMPI4kIMLi5GL6qpypwilOeXoDCXkMotUiYKK7NzJsFVhAF9+mPcqLHY8zHP+9o1/P7nn/B//v3feIP8O/7wu+e4cuk81q1ehQF9+/F7eQwiyqncuiE/vxBNmzaBr6+fqmpiZm5BM4WDqYmCllJaAi1G//foIC9rE7C4nrOa0R+loKWHxvY2mNSyPr4pa4Ir5ZG4LV1vfPDv8UGSKFW3dpY4ZnldZ440eV/nwOpMHjp5XxzaU0bYT6kmfiqLws28QJzPCeL+k3CppD5+bOuNy4URuJrnjztUG7fKIvBNcTRyeVwvoWX4Alon/wFo7cn+c2hVh5hhL9XbKUbnd6m0JEK/qhW1l/gSWrRfh5a3Svr4W6El5X5eg1ZFU5xX43O+uJLjiS86uGGQm65SuYs+QaNvBWczO3jwOrqaEEB0irLsiVRbl/R5GQOSMSqpJP6myfuiDn0YjPhwf96WfN+af/McpPuv0NMe6+iM5Z44VxqKg4XBGOSsWy5E1ItMC3gJrUYKWk8FWtI1SLUtFSVURROaGs8jnARQ9wmn+2z/m/m2PC/+X+4N9Vld99x93jNiut9w/VVoSXWL4akx+KK6Kc6U6KD1mPeh2H0qo+tVIZgd9RJaohylSO+snCb4tlrUqwREBEKhIc2I96Ipr4vcwwIuuSd06ktMgHK72IrQ8sKRP4OWMRrZG2GpJgXfd4kh3HlNCZhHZaLcXV5ASylEmhT97dMoDF90a4HT5RG4IZPVNVa8Hy1p3C9NtxV41QKMIK55C63anf8VWInJe3WffQktI5iaWMDU1IrQsqPa8kNKShN0aJ/BSF6jqruXlUqq+yiltmbNXKi6/upMFNesmYsUtGQ7ZvRk9O83UimwOrU1md+b+t4MzJ46EyvnfojtHy7A3g9n47N50/DFrEn4ZuYEfEc7RDsyYwKOzZyIEzPfxfHp43Dk/dE4PGXUS5s8CkfeG40jk0bhx4mjcHDccHw9fgS+ePcd7H13FDaNGYp5A/pgfLdqDK2soOIpR/eKMjr6EpSXckul0r2kCoPKqjC2vBTTKksIn2ps7FeFHX20+LhfPnb2ycSO3hnY1iMbG6qysLEqG+sqsrCmLBPrynNoGVhT2oHWHiuL23ObgaWF7bFYm4EPKwowXZuL8UX56NKmA3KatEL7hi3QlG2aktQASQkpiI9NRGx0PNq1bo/BA4dg/dr1uHj+Ap49eYY//MIb6A+/4F/++EfcunUDn+zahZHDR1D9ZiGXyqyyoppKrQzNm6fx+gXDngrZzMISRmbmMDEzgYOxkYLWmqr2fCgJLSqbB1Q210pisalVENL5oMnSCuKYE60tMKRxAj4tT8W5ihhVT+82I8I7fKhkIFzXJSTjArpuFp3pHJPOBBZvGBVWTZ4HHucRSAUxONwpGGvjzLCleSD2padgd5sInNQ0wPmCcAI1BDfKo3CgFloyXuHO43u1e1CU1vVaaN3X2NDoJLV0gBoeHyGrugaLZN9ybLrCo1Lt4QLBsDsnSnUPSjkngZBAq2e0LfZX1MdJbSjulIjyc8U1jS9+LEtQ0JJEDAG6cuL/ILSke/AltIIIrWY4Xxymxr6u5Hri604eL6HFz9nqWyLQzhmtwwKRFemNwignaKMtaWYoirJCcYQlNOF8HWZMM6HJa0uaDYpD7WkO0IY5oSTCGaVRtGhHVEY7oWeYA95NssPewiicYXBylsf5bUmEWopElLdAS4BYj4pshbYDodUQtxS03AgtARXbXhaMZECixq0UsOiE83if5FoRGE64lWvJ9nEioJy4daBCoaJhAHG3wILftWC7EUD5zirV/FVoyYKNUgppWGo0odUEZyXdXaBF5/6YcBGldbU8AB/UKS0BDBWlwGtWTiN8U12fwZDUcjQlsPR5vHq8FkYEnrnqXpSpG3XQkq1A61aRJW5Vef8qtBo7SBdpA/xQpYPWvcJXoeX9Alpy3HJ9BVqfdWtOaIXiZgnVpEaAZUYTeFmr/T0isHQmrwkssbfQ+tuhVff+q9CSDEJJfRdoWVs7IsA/FI0aNkPnTtkooNqSZUi6VvfBiOHjCaFpmPb+fAWpuXOWKVCJvf/+PAWpyoo+SEvtjCaN2qJxI6kK315ViG/RtA3aNmuFcjrfMeVafNivGmuGdMWaHvnY1i0Hu7pm4pPqDOytSse+qs50LJ0YEbfFbm0rfKJJo7XAJ8Ut8HFRGnYXt8K+4tb4lPZJYSvs4HZreUes1rTGjIzGqEqOROeIEDQLDkBigB8i/Lx4Tu7w9/FAkI8/ov2C0SAgCJqUBIxOb4W5mk5Yp22PXYXNsLsgmQ93HD7Ji+HretiRXR87slKwIzOZrxvi4/wm2F3YiP9L4jYRewobYK82FVv5/tbSNtjCc1lRmYnpxVkoSm6Ixj5hCLV1h6etMxxsHWFj6wB7RxeEhUehsrILVqxYhdOnzuDZs5/wL//yJ9q/4vnzn3HlynVs27qDwcIwNQaWk12oxhoLC0rQrl06IiJi4OrqRpVlCyNeP0MTUxga6sPORJc9uKVPnhrTulnsxSiXkTCd1P7sGJQ60TnxAZXlM6JMjFAVH4J91W1wujIeVzXeuEknJV09kswgS40/LJJsKEbKr0BLlwFYBzVnZTI4L9XLa+iMa3L86eCicS4/BStiPdCLDqorQTrc1xLToxzwRV49nKHyu0oHfkUbjq8LIxW0ZOzJTZwZHZKCVnUmjqkxLcJFY0uHQMenoSPQyriVLC1CB6qARWfKre54qMLoxC4QdDuywtWifQJDgVYMnfLg+u74smsTnC4htGRRSMLmGiFyuCwJFVY6peUvTuy/CFqSZSbQGtw4EF9VNsNZKpx7Wn9cL/TDwSxfjPA2UMup6KBljiR3H4zs1AZLGQit17bA1qIEWiQ2FEdiS2E4tueHYnteSK2FYXtuBC0KOwlonUVjV04cLREf5yTjk+xkfNw5Ft/yM2eLg6lw3XE51w3Hy+Lwjo9Oacm94KlngCSquhV8Dr4vaYAb2iA8YftK1psA6kG+dBG68l6SqhwMDPLpzAmj+3lmhAshlW2p/n8nzwG3+P8bhNZNOvw7heb8rDHbyhJSEUXOX6DVrBZa0r1ZB60vpdYhldZ9Le8lOnZRLPeKbXGtMhjz4g3Rjp+Vrm13QkuOeWZeA3xVnYQLpS4MaqiwFLD0eE/o0yQDlmrtVWDR7vP31HIjorSqItBNxrT4mx76BqqQdGMqrVWE9g8V0bw/ZUI34SwFcwtdsbqlz4vuQTlu2fZpFI7Puqa+gNZDQutxLbQe1kLroYzlvoUWD/TvhNab70v6e0hIKKFloDIIjY3N1NiWpYUtHB1cERoahSaN05DeOY9Os1yprZ49BlJBjVXqSUA1d+5HumQLKi7d3KHZGD5sgloLKjamETzdw+DqFAQ3pwB4OvoiyNUHjcPDUd68ASYXdcLqXhpsJaw+re6AA1Wt8V1VS3xf2QKHKlJxpLwZjpY2xFFNPRwpTsThongcLozHj4UJOFKYhOOFyThBO0r7vqg+DmibYmdRE8xuQ8cc4o6mjjaIsbNGkJ0tPCSrzs4cdrbmcKaT9+f5xTq5ICvcH+92bo71pR3xeWlLHCquj2NFMapg5ol8KgLu9wjhdKw4BScYfR3XNsJJHtOp0no4XiSz6mWBu2icLEnAoZJ6+LaqBT7t3hFryltjUmYqcqLjkOToDT8TGzibWcPK3Aq29g4ICg1DTl4eFi5ajPOisJ4+x5/+9G/493//D17LP+DK5avYsmU7Ro4YjYyMHGRnF6C8rBoZ6blomdYeiQn14UP4Ojg4MtCwhqmZhYKWAZ29qohhrYfNvXMJrWRCy5PRsa1SFd/mBWOIn5GqRiARa4SxAXIDPbClsh1+7FIf59REW6lcIBMkBVjikGuhRatTWwIwGUMQqD0gLCQV+lGhO52bB57l++FpbiAj7licKG6G0Z4WSt214P7aEqY9XQ0YANTDqbKGjGTDcVkTii8KQlFuo4dY5Tzo5PnZTEJrG4OYo2WJhBYjaY0FHQIdIJ3CQy2dEKH1mE5VVuJV2WyExgM6RTmWByXeuFQWjE2dg9CZDlFS3gUg9Sz1MKaZPw50b4rT2hBCxpvn5c5z9sPR8nqo4P9V9iCPwZXbZEJrt0CLx/qfgZY4NYGWDwOJIY0CcaAyFWcEWlQTt7n/wwUhGB9qjmaEhezPVt8MDT28MC2rHfZ3z8eP1a1xqjIGZ+i0T1YG4kyZP86Xch+Ens4CcZ7HdZFteIUBwOV8QoltebUwApeoZC8WRFLRRihVe537u6f1VIkTt3kOp0vj8G6IOVrxXCUxx40OW1ZnXsIA8LuyeqrL9LEkFFAhPRVI5fFa8xrrynCJ8uJ1yDfh1pj3ih1/U6YhBOBygR/VFI+NgcBFKvcbKuCRbFSZtO6C0wVBmBNrruaxyTVx4TaU0B7WnNDqQmjxvB7I8h2ikhig3BWlVRWCJQ1sFbRk6oKbzKni96ZkJeKzLnE4W0ZQag0Z0Ojx83oEmD7vB9mnjHFJt6EOWg+KbFQX8w1ur5W54XBlhErEECXuomdE00drXzusLW2EHwktSbWXicI15R6EljvWtPRV0NIdt9Tv1EPvhhH4VBJIKkIILQZyvE910CLElVLUwUsHLFFfMlZHewutX4dWnf0atJ4/l+zBEEJLn9AyYpRuRLVlBjNTSwUuFxdPhIZEUy21QE5WETSaSgUuGd8aMXyiApSMZwmsJJNQugkVvGYsVGtCSXVyf79oONr4wMrYGRaGlnC3tEOEmwvahXqjX9M4zMtrjZ1dOuFgt9Y4WtWcD2gTnKyojzPlybjIh+oqo8vrfMiv5fvS6FDzxHzVOMnNvCBl1+mILxEwp4uS8WVhQ8xvFYnqUHc0sjJGhKUpfC0s4WRGFWluBgszE9ibmcPL0haRNnbICPbCjPRm+KyiA34k+M5RHVwvDOED6I+7fNDvEGDXC3nzcntNE4cr/P+VvHBGauG4TYdzj8d2nzfZnZIQXCmPw8mqRvi0rCnmdo5Gl3gPNHdzQ7ipHfxMreDCgMBaZt0HB6OwuBhLl32Es2fPqmzOfyOw/vSnP+EPv/wRlwmsbdt2EFgjUZBfwKAhg9ti5OUVo1mzloiKSoS3dyCcHF2pim1gxvMxNTeHkSmhxYdflkxIttXDWrbrkaoUQsuDjtacDssOp+iI5ifYoZM4cgUufaQ5mGNOVmN80z2VAYAPLtGJ36ADlqoHugF3ccwCKR2w5LUCFx9m6UK8L5NAC6UWn4dKb35W4E8nF4hbbLe9neNQSlA1IEwjCYBwbkucDbBb0wonyxoRWIQWnelXbPPBIYSKjN/wuKSrqqOPEzZWdSRM4uhwpdvFhA7BlI6JzkBDByDQIjR1k5dl4N6DkbwrzZ3n6oPrMk+rlRfa8VwlKpeKGE0Ixukdo3GgWyOc1RIeRV78ri6T72hZfVTwGAVadd0/4sT39BRoUXn8ndCS+TzyO5Y0P0JrGJXWN4SWpHwLtO6WheGkNgrT4uzRkvuRcSk7fWM0cHHFrMw2+KKyI05XNKZzJeBKpYyQHX9fFLAjj0NMuuFcCRF3HhPbncHCg3aOeEb19jjLG/dyvHCHqvcW/3c9z4NbmahrjqcE/cNiH8IvDnOTXdGW7SPQctU3VJXhZ+c0YvCYgoslVOhUCE8L6PjzJNtT2lbmaHFL5XWfv/WgwIDHYEJl7oi7FRE4kRXIgDKeAVx9Bp31GeBF8vp6US0RGgSFZBCeyg/AnDizF9CSklmSETm0WS20in3p7J35eaqkEsKQCvtyl1CqHG+VPSjX0olKSwKbMR0i8Vn3ZPoLZ9woM8atEj3coN3W6vP+rIVW7RwpgdZ9BS17NZfqIsH4HZ/bLq46Je6kb8Rrro/8hEBsZrsfJbSuFwu0eJ3LvBkAuGN1mt8LaLny86LeezfQQeu0ghYDvFpoPSy24HnQJMhS0NIpx0d8T6Z/1KgMXdm+hdav2qvQqlNZMmfrdWgZKnAZGZnpugoJGBcXDwWupk3SGPHnQ1NciYrynujTZyjeGTlJZQtKyruAq05xzSK8JHuwory3WnE3OCAWjtZuMNczh62hCXyszVHP1Ro5Qa4Y2igaS7Ma4jNGNocrGtKR1cPZSsr9MsJCG4G7RUF8MHwY5fHhpKN4yGhOJjw+yvOh+eFRLh/UXH/cyQvDlcJE/FDYAIuah6Da34GOUhZ4M4SHoRkcDS1gYWIMUyoLW25dDU0RYmqOzCBPzMlOxVcV7XAsPwlXcqUunC8eZXuiJjsQj3JCcTeXN6OCIy3LD7ezGQlm0zHk+KKG9pgQvVvECLcsAd/lxWFN6zAMibJGRxdDRBob8uEygpuBISzZvh5ursjOysDixYuosM7jj3/4g7r+//5v/4bf89pevnQZG9dvwKABA/m5LAYLMo6Vg9zsPKS1aI242GS4u/upLlwLCwGWpVLIyghlQzp9yTiTlYuXFLfE0S50toTWgzwTOg5LXKkIwK4OwSi31xVTlUSBJCsD9E32w96uLXGiIpZOhgFBkTcfLA88zpbF6hhpKkjpgKVbH0uSHuq6CkVluUEt487A4kGmJ+7nheJsXgxmxtqpSD6cMPUnvGKoZHqHueCz8jZKrV4rCcUlRuRHGS1PiDdCc35GVcTgd9LcbLGsuA0OlycxYJAxCz78dAj3tFZ0SjK2JccliR8uPFaZZOxZm5XoyWDDD1eqEjA93kSlKAs8pDRUMwc9LMxPwTfilAktyV6s4bne5H12rLwhKmuhJc5IUpoFWnsJreP/SWjJ71jRBFrDGwfjQHkzOuWw2jJMgThJaM9Jskc77keO0U7fAMlUz+93aoG9BPvp8ka4XuKnst3uF0tGp0xO5XnLmJJa/dlRlS16muOG57xnn2R48Z4kEOWZkPJdJRG4VRaJm6XcJ6/nXTrxZ6WEPFX3xbJorGzmh3TeMzIJ2Y3QirUxxNi2sfiudyrOlfG+JmyeStZdrjh9BgM8d5lMrJRWgRmfTX3eV+a4VerJ9gzD6nBzrGnqhQ0dY7EjKwHfFMfhDK+xlG8SZX6X98nJvAB8EGuGVF5jya6UklnBBNAQQusrgVYRoUX1LtB6RGhdZ4ByqSuh1coDHfk5qdqvSijxPhnQPABf9GrCdvLgOZqznfSpuPR47ka8Xy3YVrJmFc+BJmNb0tV4T+OIBwIhBiufZfqg1Fo3xutJpellrI/SlEB8zOM4WRGlutYl67GGbXGB99bqNH8FLTluNz0TXl9JeSc4uzEYeaG0dN2DD5XS+i1o6dTnW2j9DfaXoCVbPV44Q4JF5m7JOJeFhR2cnT0QEhyJJk2ouLKL1dyt6i590LfPCJVsIcVwpd6gVGqQdHhdSvxSQu09frY7GjVIQ4B3CJysneBkbg13QivE1hgNXSyQE+iGkQ2DsSI9Gp9p6uFQaX2crqqHi3SetwitR8WBvPE8a7PR6swDzwit54TWM0LrSY4/HhIuN/LjcZgOaUljf1R6mKkBdSnL4sqby16PKotOy5Q3ug1h5sbzC+RDmhHgjg8ymylonShIwo2cEP6WN55kuzNi5W9nBeABncCdPH+Ci86D+6uhynuWSyO4ZN/3CTVRYGeoHDa1CMS4ECsU2emruTdyc0s3gj0tLNAfWZmdsWjhApw5fUpdh3/713/F//n3f1fbG9euY8e27SpLsEPbtshOz0BxQQGyuG3RNBUJsYnw9wmErY0Lr5cVzeJFgCGJGAItU3OZ66OvlNaO/hqc6NqE0aIHH2A+0AVGjEZ98F1hLIb7GyNVnBWdQISVHto4GWBuxxgcpdq6UBFPZRmAJ7JUSbosSSHp7rJA3UtoqSoZMieH/3tMaDwWaNGpPSnwxa2OHrieH42DuYno56mnKnAIiGR5kAbc1/RWsfiUqvZMCZ1CWRCVnQcu9krBrBRjdKIDieQxSRZcQycbzMmXorFNcZH3wV06svuSQUjFcYvOTLp5ZJHJJ9z/E4mIeZ/ck2rihbxOdNSnShIwyIPXgb8lmXVScaKZox6WFdbH9xUMUIqD6Mh4bxULtIKVmqoiNOvWlZL5VbK+lYJW6X8OWvI7dUprRJNgfFXaGBeoPqRk1rVCD5zmMSypb49MM52CkPsk1tYKI1vUw66SdjjbvTWulARRZVHV0uGJWlCTmQkNnfG1KgzrgTsdHPFTWRwuMag6kR+Gb3PDcUCuQ34M781E3KyMwYNyPzwtpyPWeOCSJhSbmvuhkNdGnLa3gQGi7U3Qr3kYvhnUCcfLg3nOcn7cD/cp41VS9Fa2Mqb1SOYvFVLdEGyXSn3xaVsnjLHUR2/e+328DDA8yBgrUr3wfUE4rjIwuS/tw+DiBFW4QKsFnw9JBhKFqaDVPAZfVzfFucJaaImTL3PAjVJ7XO4WgnUtnZHJz8maXfa8llKJvyreC7sqmuA4IXydx/GASvweFfl96Z4j9ARWz/N10JK2083x471aEYoLxcHY1tYLeXwOZJ6WKPwgvu5a3wefdaUSLw/HbQUtV0LLn9DyJrQCauc5CrTMCC1DQisKn0v2YEXYa2NaOmhJoCWgkqQSMfnfW2i93PmvAOrX7K8pLT09AZgxXzNyp0IRc3Jy1ymupq2oAIqV2urda6iam1XXVSgTiiWzcPq0+ao2oczPGjf2fXSt7ot2rTohMiAc/q6ecLGxgps1oWFrjjg7C3TwtsagZA8sTY/HvtLmONI1lWqrHm+AGF7sYEZKBBRBpTMvwsoLP1Hd/ESVI/Y8R5arCMJtqpzDOQlY3MAbWkbUamyC5qJn/AJaZrzRrfhwulGZBBkaqy6o6R0bKGidKpYJtiGEkAdVliuBRQeV5cu/6QQL/HAnn6+zfRSonuUGqe3jwkhczYvFkdxkrGHUOszHFLncT2PuVx4uO7atBds2IigQJSXFWLJ0Ma5evYSf2f5/+OUP+NMf/wX/yu3Du/fw8fYdGDZoMNq3ao32rdugpKgY2sIipDVrjpjwKPh5+MLJwRWWZnYwroWWBBc6cBFgZqYwszSCg5mBWppkxwCBVlNcE6XFB+QBH6SbWldG0ElYmOyCPAIkmu0RQJhICnyprw22FjfBd3TQJ9gOtws8cD/LgkrSllGvTJgU51wLLalYnS9mj2d0gKLK7uUykibs7zCAOJkVi8UJLtA46Jb3l4mgUdxXQaANdla3w2e8XjI2c6fch87bBVe6RmNjO3eUEioJ/KwolEhLM/RtnIB9Fe1xuDCGji+AwPLCQ7UWVF0qM1UHofUTf+tWliOh5U24BeBqaSx2tvFFHs9LFKW7gT4CGKzkBjpjXUFDHNbE4QbV1ROe49MCLzoKKeNUH1VUgnK8AjmB1gul9V8BLSotgdaVynhcp+N/WBVE1eWDba2dUGqjr8uk4/EGGBsgx8cNGzQdcICAlRVzbxXJXCfpkhNzpEKk0hGT1zx/AfbNPJ57dT18neWPBSk2GOijh8FB5hgbZoNlSY44USRreQXiDo/1QQk/T0X9RXs/9GaAI1VSJGNSymd1DLTFuqqWOFgZjQtaN94HDnhOpXFP7dOBqp3BSw4DllzpMrTAjRI3KnQp/GuJMl7jTryfpGpEZz4Hc5uF4seyhgwQwvl9L14bKrLyGMxNsPrboEVg3WaQcqXCF59nuWGwrz4a8LOeNFFaLRj8fpTdCCeqqMZruyHvERICeMkcfBVaorRU92qpDx5VJ+B4UTTeDdBDSx6HVPP35PHG2+tjZnFjfN0tiddRpmTIs0NlWhbwd0LLXKeqiuQ1ocRzUWnufP2EwHpCFfj/bvfgyf9+aOmUlk5t1UHLzMwWzo4yxhVLxdWa4NJQbfXDwAGj/wxaklko0BLlJTZm1HvoWtkT7VPbISkyDp4uLrC1NIedhRnc6WijrE2Q7m+PofWDsSS9PvZpm+IIVcuV0mTefNGM6oPpHKm48hn95wWgJtdfAeNJNpUQIVJDZfSQELlZEIfvM2MxJ9EJRXwQpVq3DlpUWvrmsKT0N+eNKdByNzVn9G+EVm7WGN8iFp+VtcVpOpQbhRF0vt54TGjVZLrjYRYjeFFYhbyBCS4B2JP8UDzlDX8vNxRXcsJxMrceNjUNxEg/M2TTyUlVcekj96KSc7a2RnhIKEqKNVi7dg3OnDnDG+8X/Me/85r/65/wB17PB3fvYufW7QpYuRlZ6NSuPfKzsqEpKERGh45IjolDoLcf3AgsW0sHmJvY1EJLugbNFbTU1sQE5hZGcDY3QDKBtKMfoVXdWGVASeX2B8UmfCAccFkbhX3pkejnZYJGjPAlvVycR5qlCd5rEoJdxQ1wvEtDnMnkAy7JGOKo6LDqKh5IfT+lsmqhJbXpxHHeyLXHVTqWy/mR2N06EMP4+1IAN57tEKVvhPpmhhiRGo09XVJxtDIKl8v4gGocqXKcGan7Y0+6N/p46moj+lEhB5iYonOAJ1bmt8Q3moa4yOO+pzLaqI6o+p4VSYUBJ94fvFYqQYDgpGO5xet0sjgKixo5oR0dklyLQGMjJDFI6pcSjj3laThZEo87SsV7KJPVhI+UJKOa7VYHLZmHk8T22dvjH+8e9JcxrUbB+LqsKS5XxBFabnhAR3xJ44kvsjzRn20lSSiSQSiKMNXGFLNaJakx2vOaMNyikhVAPVBp53Id7GtNFBCBRmhd5XmfKYvBhg5eKiOuFR1xc/6WjF+O9jHHj5rGuFwYimsMLh6WeeJKlgOO5QRjvKcR2nK/Elj48Xo187DEjKwUfFaZgFMMSG7RnlVR6Qo02eaPGMRImaanOQQBg5dr5b44VBmLSWFWyOI5SPp+AoHSkuc8t2UsDlMJXeF+7zHg1EErGnPjrRQsdFmLr0Kr2WvQekxoSSLGtWJnPp/B+CDREm35jMn96sV7JIF+a1RKML4sileJN3J/36M6u00gSFDz50rLEbdLfHCrmm2bG4W+rjxetpEPFbYDzz0txBofVbfAt12icZ4QvMNrqpKMFLQ8sTbNXwG5Dlp+hFafWmidIbRuaQVaVkpNCawEWpJ0UTehWE1+5ns6aNXZ/yPQmkBojSK0RtVC6+xvQEtXlukXvifgetP+GrQke9CQjk+UlQDrTWiZ0wRcljBnhO/s6I3goBg0btQaxUVd0K/vCEJrwp8pLZlsrMAlimvSLIwePh5dy7sho31nRIVHwsHREWbm5jAzMIKHiRmSnG2Q5e+CIUlBWNQ2Fp8WNsLpsuaMXOrzQYnlwxpJi2CUF46H0oWXHUSTrjs/GiPMvCBc4417IDMG78dYIZ9KQwpr+hLILvpmcDCwhKWJEVWKAWyMCROqLF99AzRzMsPwhnRkJa1xsrQZH/xI3MkmtOh8nxBajzKpNmTMqjCAD0Ig7ucH8yaOwn1tMi7mRuPbDoHYnhqMCQEWKLbWFWSVTDVvqjsXwiU2OgElmjIs+XAxLl+8jJ+f/Yx/++OfCKx/w7/88kdcv3wNO7dsx5ABg5GXmYOsTunISc9EVud0tE1rhUb1UggsH7jYORLytrAytyW0rAktAZal6hoUaClw8RpamnO/pgZIofPd2a8Ix6oaKKUlFS5Ead3hQ3u5IBBHtfUwnUqoA9tJirmGGRF0dByFrmaYkRaCPdoknO8iYyGEgFQ7ILjuCLhojwRcfMgEXo9kfIVO4DYjUlmA7xzb6LP2Xng30Fwtmx9PxxLJY0swMUemtzMWFLTA51W8tl3CcK3UjoGGOe7y98/nOeFbtu3oYCsVyQbye96EVqKtGcanJWJ/eUucKquHOyWReFrsj5/oTH6iI3vG7z4tknFOOhYN1TAd3uV8P+xp74HhQUZK8UYyWAkzNUSqoxVmdGyM73u2x8WKeNwnYMRJPKbqUXUAtYnoymtY150oAJEyTnt75P5KIoYTTVSedJnKvDUZg/lzaMk4lWQPCrSGNAqiom+OC2XRVHnuuE9wXNN64EcGRBMjLdCM7S+Qk4nEyXSgfUNdsbugqUrWuFZEh5/vwvMkpGuBqWof8vVjGe8t8MHl4lB8p4nGpDgztOdxCwSj+JsSRI0Nd8PRija4xPv7er4rpHbjtWw7nCsKxfxwO2TzM1IRXsYSYy0N0b+RHz5h4HKsIhjXywMIWaroYnvCkaASaGUTBDnSPeiAc1p+lkFjPw9dJqLU8ZOyUO3tTbEsPYm/0Qg3Cvjc5LkTWh6EViTmxVmiDT8rvRFyzjLnanBqHL6UXhZeX5msLHO0akqkuoQtVaQtrpQEYnNLN5TYG6hnW5JHwui7irxssbYjg0cqOFmA8VaFKwMhS0JLkkhs8UygRZNJ5/d43jfKAnGqJA5LGNTksp2iCCxnPge2bPOceDes5zF8VxlJlSljo4QQ7VGpVMX3wLo0PzWvTWDrrmcKf0Krf0oUvuhKaEl3olbKitkoRaXrDtRV9ZASZjp7CS4drMQkk5DQKqiDVuAb0Hr6CrSkYC79OAH18xv2T4bWzVegdUcHrX//S9ASYMnOdOCqs9/9rs5+A1zPf0JoqK6M00tQvfq6DlxmBJt0Q1nQUdrAieAKC41Xc6+Ki6pU1fcJ498nsD7E7NmLdDUJZ8iyGvOVTZs6B+9NmI7xo95F35790L5tewQGBMHayhaWdL4uxhYItTZHfUc6Nh8bDE30wcr0FHxT3hpny1vQ6dbHzcJ43M4nLHIj8Cg7BDVZwVRDQXhAtfUgh1DJC8ZVfubrjGi8F2GOXN6EcXwovKkenQlcB0NrQssE1uZGsKUDc+R5ehJajRxMMTA5CDuLWuJYaXM69BhCyw+PCawnGW46aOVK10gQ7vLBu1UQypsqAVepyr7JisXKVF8MCzFDgYOemmsjlae9qewc9awQ5B6MitJqLF60DMePHMfTx0/wJwLrX37/RzyveYarF65g3cp1GDlkBPIz81Q5p4KcfHRu3xGpTZsjKS4ewf4BcLazh425JSwks5NtZco2qxvPMjbm9eFWTActKi1jAzV2tHuAloqmHq7Sqcsg/gMNASHQyvXE2aJIfNzODz28jZBAJxkqKwXzQUzgg1sUaIeZbcPxTUU9nKuMwVlNEC5R3VyjorhDtXWPKkcc2F0N/xYnwQj4qjYc54ojsK+DD96LNEc2nYEsdyFjBGE8pga0wckh2FTUBD9UJvI33XBbjinPlNBwUkvfH8nzx5KGXsjgdyXqd+N3Aq31URTigMVZ9XGwSxr3EYdbeYEMYDwZxdKJ12YQyvL1ooavFofgQCd3TIsyRp4ELnSGITyGKEKjMMAOqwsb42T3FrhaEkWIS0kmJ/6WM25KMkhJglpPqw5asqSHFMzdQ6WlivYWB9Fp65ZBUWNJMrmWTlHUp6oUQcV3h+CUgrkza6ElSl8SOgJNDDCYSuuLKjplgVaxZDi6sA2pTBlZr2nigGJLfZV6LasXS43E9i4WeC+VbapJwsmySFyhSnmQ647n2V74hYHU71WWpg8Vvxdu8P48S6ivbemPciceN89bMvJkvlkrS1MGgvUIrTRcZOB3vcCd5+tIEDpTTQRhW3M3dGc7C9zkHghn+3f2s8Cc9Ch8060BTlVF4AzP8xYVj1JbBOWjbKq1bCeVqHCQQcKMBrbIsTZQKjmKxy+Fj7uFumNHYRMVbEg27mO2myy4ebEsAgviLNQKxHK+AnaZpzWoZSI+7dkOx2UpHd5nD4rM8FBroZIYZLLyjWJffNXZF8O9zBU41OrFDEpb2lhgVIIf9hU0xAltLM5LYo2sqszvqO7rXDsaASb3SQnvY8Jtd4cwqixjVajYj9fY2ZLnzmdmSLNg7JZiuTzGi7y37xTJ/UVFze9dZrttaOHzYl6bOwNTCa4GpkTiQNc0nC+PwB2tG4+XAKqFlQ5YUrrJrtbktQ5cL4Elc7bsCSwXmqj+IEKrZS207hNazwitnxSw/kCo/FILmp/fsFd73f4e+y+B1qwTt1T34Gg1pnUH6/8KtH75RXb2ur2E1uvgUgf5GrSkYO6rkPp1k3EugZeBgQUsLR3h4uKLkOBYtaKxVMyQ5TWmTJ6FGTPmY+4cXaFcUV4Cr2lT52Lq5NmY+t5MTBw3CT269UKrFq0REhAKNztXuJrbwMvUCMF8aOs5GiI/yA6jGwRhRXp9fFHcjJFmY5zX1MOVwljcJbQeZ4XgaWYwnhBcdWrrXn4oVVIcvkqPxrthhB8jZim+6mFsBEdja9gb28HGzALWZkawphJxMDJU0GrAaLBXrC+25DXH0dIWfKjjcSszADWZ3oSWBx4SWvdypQxSCKP4CN64kYwEk/BtXjKWNvXhw+KEDnaMZnnTx9IxBhEqXsZOCPMIQ0luOVZ9tE5VpH909yF+ef57/Mvv/og/PP8F506cxfpVG9Cruhc0+RoCKxcF2QW0PLRKbYnEuEQE+vnDkcCyNCWsCCQzIxMY8VrUKSuZW2fE9wRYRjw3Y0LZhM7Ckectx7O5awaj3GQ6clfcKzZVg9NS7eJavhtBFoBjksVVzwLpPH4Z95ExFT9CPs7KiKrIFNN4flsy6DQLonGoNA6nSsNwoTQQlwiYi6VeuFwRhCtd43Cc//uWsN/c3ANjAw2RbaWvuodkmXnpdol3MECuvz0+7JjC69kAZ6vicIVOU5ZAqckzoVqgeqOiO68JxiedQ1DlbKiifg86EX++TrTRR5doByzNSFTdhOc0CbhAcJ2j0zydYYLL2YzE6cDvdm2II4Tawvo2KHfWQyMqvRDuP5hOqbmrAUa38Meecu6fIL+WH0AFL1mVujGiGwSYrE0l0KrrHpSxlkb8rszTOlqWosbU7hbKcu6uum5RRu+PqDwe0KHfl646Qus2oSUJJnXQkkQcqRUo0BpIaH1KaJ2S0lYaSYYQNeHCa+OLQ7kheMfXUHU9ifqQlXFj2I6d/SwJLjpkAvW4gCufaj+D93xHqspOPriVE8RrGYazpfHY1i4EAzwN1ViRqP0Aqmdx6mVh/tiuacXvN+H9HaoSQK4R9pepOi6W+eF7WXI/xArpvGYCEYF8oi3bPM4Rq4pS8H2/Zjhc7o/ThPSlXGdcZZB4g8/cVd4/RxjQrWrphK7+DEx478m4ZSQB1JTP2ZRGEThQmorzVDV3830JeCpRqtGLpaFYlmyBTjxHSQARaIWbG6BvWgK2dG2PH7qk4CyDiTslDgxsLNg+VCxlXlT7HjhZEI75MU7Q8Bhl4Uo5v0RzC+R4u2NGWtuBDF4AAGFSSURBVBIOVLXFuW5NGJQF4JIs/5LDYCbHTY1TP6QKvq4JxGdtfDApyAqdeH8Es6187fQRYGOAdt62WNQ5CQdlTFcbxmBCoKWrZPG4VLq9XbAh1RutuF+Bu0xElu2gemE4WM2AoDyKClaSngggpbZ09hJavGfUa53pYCUmr0W1u9I8Ca3gWmgdJ7Qe1EJLVNbv/ydD6yahdZdK6x6/cPt/FLSMja1gZmoLKwtHODp4IygoioqrLUpLu2LY0DF4d+J0VSlDV9JpIW2RKrIr0Jo8aQamvDed9j569ehDRZGO6NAYeDq4wcnMHK6mjPZtDNHcg0rJ3wKDEtyxpH0knWaimvdxluC6mR/HKC8Sz7Ii8CQnDI9ygxl9BhAq4QRKHL7oHInxISboRIcXwRvSzcSIwLKBnYkdgUVoidKyILSottwNDJBsa4yKUBeszmB0VdqSzjCR0AoitHzxNMMLD7O8cZsO8paMdXVphKN50fg0KxrL0vzR298EnRnVNqBjTJSsNzMDhFjbISEwEmU5JVi9eA3On7yIpw+e448//RF/fP5H/FzzE25duon1y9ehf49+yOkssCpESWEpX2ejbcs2qJdQj8AKJLBk/IptzuM04sNhqMfti2siwNJBSwBmItAyperi52QspjGhtbVrOo6UJRIQVABFxjpo8SGR9OMbRT44l+eHL/NiMDrMTHXrRDJqDODv+vH3Q/l3K6rHkkBzjGoagDkdIrEhXyZyNsW33Zphf2EU9hXF4hOqgA+aumJsggO6uOihHR2XZGIJsHxtDRFKCLT2ZSScGolPu3TAmS5Us2XhPAaZqGpGpy8TTu1xm07hQlkgvmI7T67vhDaO+ghnm/rxGGR5DUks0fpbYlG7WBysbEPV0IKQScYRTRSO8Vh+yInGAU0jLGruje6+vCZ0SL50nt421vwdA5THuWF9RXN8X52CC9oIXKNikSKud/Nt2TZOaj7OMTrXrgS4JPB4sa192B5N6qBVnsJ2lLFNRtIFzkpl6aBl/ZvQEqfmIs6N99ugxqHY3yWVqimKkPTk9dAtk/GAzvFSZTw2dwpGmTMDN7ahBBAyD0nuqyLeZ+8288KGnFAcYHBwks/A6ZxYQiSegUQKn40kbMsMRX9fY7QiNAT4MuYTyoCtoZU5xrdqiG+6p+OUth4dOVUxg5Zr3PcVjT2ulnvhUtdobGrjgioHfdXtVjc9oLGrjNd4YmlxMvZ1bYBvtVE4UsQgpSAZF8qbMVhpiM0dAjAwzBhN+AxIhqg/2z2R916Bsy02ZjXHiYpUXOH3bqulSWRZGVdcLAmgYrFTmYCSdCNqNMLSGJqkQMzIrI8ve7bGjyWham7WlXJv3KAiranyw+PKIFwulbl/kRjmQejwGAVaAaYmiLK2QFtXC4xsFIgd3OfBrqn4UUp1Mdg4X16f7dsYZysaYk8HP4z3M0EWj1WWqXHl8XrZmyDe0RTDmidgb0kajjMoOk9wXKMqvEVVdFdrjTtljrjI49+Y6qXG/ySwkKBGegSGJIfhO0LrAq/rHbmuopqU2iKMFJzEZMxKrO7vN+3/GWjdxUhCa91vjmn9fdCqM4GWWGhohHJ+b0LqTauDlm7w34ZmB3MzRzjYeyAsNA4t0zqirKw7hg8bi5kzP1SLQUqJJ1FdM2YswPtTPlBL6E+ZNB1zZ8/HpAmT0bdnf3Ro0xmRwTFwc3CHg5UtXPiQBdsbIslRD538zDAoxY0RejB2Fafgh7KmuKCpT4gk4lFePB7nxeJhXhSBFUoFEYULhYnY1zEKo4NN0I5OU5ZzEGg5mNrAvhZalhaGsLI0UF2ELoRBPJVWcaADllAFfKdtifN59QmtCEKL4MqSxIsgXKe6ulyUgHNljbEnIwoLU/0xOJIPDR1qPB8cmYMUzgc1xMoEyQGBqKRy+mjeYpw5chpP7j7Bn37+E/7jD/+BPz77A66dvYqdG3diRP/hKMoshCZPg+K8YhTlFqNdWlskRifA30cUluMLYAmI/hq0xPSNjGDB83I10kdTQvuT3vk4UpqAayXedBaWuFdkjlv5UhbHFbfyXBgpe+JSVQq2tAnEIHcTNck0ir8RYmUJPzoRf7ahdFUl2hNgHqYoCnVG1xh39ImlRTqhG6PVEl8TpLvpowWvlyQtRNARBJrrw49qLZTQakyVNbC+F9YXNcTx7i1xQ80bC8BtOv17Baa4W8BjIkjvdPHGWa0bfizyxXY656ExNmhFpSFOwZnOzY/ORdLPM/h7o+sFUXU1xfr8FtiQ2xgr2sdjVuNg9A91QDYVVmOeuywq6EmnHUJn1sbNDLM6RuObHk1xopzBTZE/bjICl1p6dwke6Yq6QmdzuCQW1YSWdGsKtGTNsWavQksjY5tSxsipFlrWfwYt1T0oY1pxXqoLK4zA8uSzE8HrMrRJmFJap0uptKSrj7CsYfQtxX4v8rxPUCnOb+qCXB6D3FcCvGiecwOCv7OHPnrF2eKDdhFY2SkO6zrFY316IpZ1iMLkRh7oFmCENIJDusxC+N0oYx67tSm6R/phTX4rHKlqhvNFkYR1AK7nu+M6z/mmxg43S6kyuwTisCYM06Ks0J73gPRQ+PHZCeG5N3I2QFGUPSZ2iMGH3OfK9olY264elreMxvQUH3T1MUEL7leCHMk8lH1neJtgOoOUb0ta4QKDzZuaENVuMh56n5CWruZd7Z1RwGOUACFIghx+t5mnFSqTfDG/sBnW5cZgR1YQDvK4LpYH4W65j4LWbaqZIwWxWN8iEF0Z4Ioqlmst86tk3FCAqQmzw9SO8Vic2wgrshtiTVZDrEqvhxkNfdHTwwDtua+6DFV3vg43NYA2zAvrNK1xqLQRr0U41WgAbha68zpZ40aJBa6X2dK/OGJTqqeqyiFKVtS4Wj05MZRKi76D1/V2sVRY0dXBVJXlqbB0sCKUlOmyb3UmleffQuuF/Ra06oD1n4GWJGQYGVnTbBW4zEzt4ezkg/CwBKS16KjW3hK19cHsxVgwfwUWLVylwDVr5gK16u+kCVMJr6lqXaixoyaiZ7e+aN8qAxGB8XBx9IO1lSOszPig80GN9zBBZrglBjZyxgcdw7Gdju9IaQucL2yIG4X16fCS6Szi+UDIJMB4nC2oh11tIzAswAQt+SCE8UFypeOShfVEaVkSWhaEloWVgRr7cTQ2QAyjrPwAO8xrHYev8prhXE5D3M4kEKnkHuTIOlSRuChlo/KSqbCSML95IAZGOaAjo9JE3vAB3I+vOHdbMyQG+aEkOwsfzV+A88dP4XePeLM9/T3+7Xd/wu8f/44K6xZ2EVijBr2Dsnwqq47ZqCguR2FOITq364x6cfUQ4O0PJ1snWJhQOdUC62+BlmQPGhobw9TIgDDWR0M6u00VHdleybhKZyvdHHcEWHyA5KG6l22LuwTXzbJIHNfGY2v7YAz0N0MLnkucuSH8eA0ceX62/B17bp3pENzoHLzpzMShydLwQYbSHWoAf0sjeBNSrlSabnR0PhaEDdVNqrsFuoc4YFtxIxzp0piRaCwVXoBaCv9eHqGVb4E7hZa8dta4prXD1RInXCn1VNWyd6T7Y2SQETpw/2FsY4lqZSFDqahR39oQ7d0ckRfghTw/d3RytUWavRli6HADRV2Z6SulIPO9WtmaYGx9X3yqTcJRbRAdtxtuMOq/k0PFpCpE2KrxHcniO8Tj60JA/yVoXS3+NWi93j34KrRkEchoPjf+eiaIMzXCyMbhakzrHJXY7UJPdR3UUhm0G6JCetfD13lBGB9kjHSet4wxSbetLMERweuSZKuPNt6W6Oxlg1wPGxT72yGbf7ewM0I8r5FUSpcxrDBekxbS7R3qitVZTXC4e3ucKSaw8v1wO9cXt+gYb1JlSlHk29L+Ghdcr4zE/rbeGMl7oCMhFMP28+XzI3OXImwM0MTTBu3cbJDlYot8Zzuk2xqjBY8xTvZHk/l+8ry1tDHG8EQ37OdzeqKoARVsDB5oA3RZj3lmPGcr3Cj1wrdFwehGNS1jYAK8ADl+tnW0gzFa+jsgx8cK3fyMsbRtIFV1HAMvH9wv8cO9khDeK7FU1wlYEO+IAgYokiUsylQqa7jJPcDjSnQwRHNPO7R2t+O9YkflbqHUYCzbUjIVRU3KdIQYU2MU+zhiSedEfFvRFOeowmVR0jsFNELrVpEt70szKjxLXGCQsam5uw5aPGa5JwVag+ND8G1VK0IrlkrLj/eBG6ElY5wEEYMD3XI+soSPGF/LezJO9gJcYq9Cq25M6y20Xth/DbRemoW5A5wcvai4YtG2TTp69RyI8eOmqO7BxYtWE1wrCbBlai2tGQTXexOn4N3x72ES4TVu9CT0qh6Ijqm5iAquz9/xgQkdsLUpZb+LGRp6GSE32AgD6zkSLBHYm98Uhwqb4rymOZ1NIwWu24VxjByTcDwnGZvTwjDA01jVfZOHwcVYJttaElo2hKFAyxjmdLIW5saw58MdwQc+29cas1vE4IscOpScZriTmYJH2fG4lxvFBz0Wx6nsPu4QjTmN/NAzxAIdXHWLLIqDkAfFlU4+KSIUFYUFWDpvHhXWUfzy5Bn+45c/UV3xRnv6C66duYLdmz/BqP4jUZpbAm2OBrmdcpCXkYc2LdogJaE+gnyC4GbvAhtzG5jos915DgKrOvvN7kGZp2XK1zxnGUNpwohzS5cMHbTobO/wobhL5/pAHqZ8OtgsOtxcJ9zmw3m5JBKnK1OwoV0QBodYIcveQA3ky/nJXBgnOgJbQksWFDSjYzHj1pLRqTUdsR336WBmDidzC7hYmlOhGSDWRg/t/GwwrHkU1mWn4AidwZXyBNzUBvOh9qDCkeQHKcBqxWOypEq2wi2NLW5LBfdiO9wt88P5smjsaO2FwV6SOq1zDhKRB7CtvXksMhFWFuzz0jeAhwHVpaExgxAp0WUKV0sTxPAzmTZGeDfZH58w4DihjWSkLAqDcCiQjFAdtO4T4jeLHKjg3fBDefSvQuuTbrJ6cgqusR3v0bFI8oZuTMuW0NIlYtwvkMnXklxCaPHYBVoyYB9nYIIQPXMksa1GNY7Al5WpOM9jUQkd0s2oom+phM7zpzM/Twe/q607RgWYIo/tLF2MMpdOAOLFraTDe/K1dP9F8rUsz+HDv2XeUgCvk4wnNbaxRI8IXyxuE4+vS5rgTHkSrooTzpPz9uK+CG2pz0iVeJ/Qvc1zus1g4kx2CDa38MeIMHu0EoDI/rgfqX7uZcL2YJuHsM1lCoEoDUlGEMcvAIhme3WytcWwqACsy6yHE1Qel4oT6PSD8bDYCzV5dMy5JnTkJrhZ4koQRWFikoMKkhS0eNxevM4OBI6buYEKBhvxvfGNQvB9VQNc1Poq5XOfivQhg4KrxbH4Lj8BUxMckUtwqfEtmqwQIMrcnmYrr/mewEVUkdR2lKQYR7lveLyJfGa6hQZhGdvpq6JEnCwNV4pb2kZKgd0nfKRw9HUtoUW1JdDaSGi1529IL47UyJS2GBQbjG8rCa2SuFegJdMgdEv46BYJlSQLMb7m+3+uumT6hEDr1USM//XQqrNXofW7vxNa8jndhGPpJqwzmTNkSiUjXYWhITHo0D5TTSgePWoS5s5dgiWLV2PpktX4iCbgmv7+LNU9OHHce3iPymviO1PQp3wIOqTmIDwwDnbWzrAyNYe3gw0iGXk1cdRDrq8Bbw5nLGkdi12U+z+UpPEBb45rjOZuFCbhSmE9HM5MxvpmYejrYazSpiV7yoVgsufNKSvC2kppKnNTmFuYEFpmhJYhwhi1d/a0wvTmcfg0Ow2nc1rhZnYz3M9pgFt5SThH+yo9AR828kc3X1P1kEXzYfJlNO9pZQ43G1t4OTuhQqvFqmXLcPb4Cfzhp5/xf/7E6/pHXq/Hz3Hz/DV8QoU1bvAYZLVKR3FGEcoLypDXORdtU9siMjgSHo4ecLVzgaUxFZa+MSFl+Bqw/hq01GsCxFy6B6mAmlnrYU/fQhwpq4drGn/c5QOnHCsfoodSkidHjCDLdYUsRni9IhZHNLHY1jkUM1Oc0MXFAGl0ILJkgzgVibid6CCt+J45zYLnL/PebKnqnAkOHzq0MLZpE0cjlEfYYmKrCGwtb4UfCKxTUqyV+7hL56WqWkjULeDMJ6QKdGt3SbmgByqjykJlA96lKjpdEEEn6o2hQdboxChZxltCjaj4eDyyhL0TXzuaGMKWWxs6IgcegwfVXpiFAYqpRuY2DMS+rHo4qUlUXYK3JelBS2AW0yHlUTHxGKTL6hYd0yX+7yhVZy873cRYccrS1daGjnRvdTqOlSapZA2pBvE4n7CRdHN+X9LdpZvvjiyGSCDfolM9VxqFuYSW1MlrwOOK43VrwiBsQqMAfFPehPuKVPCQJVyk0oR0HwnAr2cZ4bbWB2c0odjV3g/vhZpBy7ZuxPOVY5G5QeKAxRHXwSKA7R/A35aq+NKt19JaH73jArEsvTG+LG6MI/nhuFwo6paQypdKFlLKyYNt7qLa/5EkouS587WunuexvCjsyY3DO5GmyJIJ+rzmUqNSlLUv7yvZSnq6LI8vqlayQ+PY/pn2tpiUHM8AoQ2+l2QZbRxul0RDlmCReWVPcq3xNNeU52yk5uadruD9QVD0CLFGY/6WTG6XIMmF+3PifsKsLZSCGhQXgO8l27MqnEEN1Va+J2o0QbinCcM1Blpf8lg/rO+J3o7G6MjvJvF3pFtV2knGdqWtBFiqK5D/k9+XYsgNzUzQOywUa9Jb4rvChjhdFEa1LTU3qb6pgh4yABGTrMVbxRZ8hixwkUppSzM3tT5bPf6GjGtJpunIaC98X56Ki5poqldf3lMy7kloMSh5zHbWpbILkMTkdR246tQWTYFN/k91p1Le/9dD61XjCRJWdSYp76/P0fp105V3ktd0qEYyoVXA9arpFJiNjQv8/SLQvFk7Ba7J781SSmvZ0jXYsG4blixagZnT52Dyu9MwYewkvEtwTRo7GaOHjEdVcTe0a5GOsIBIuDu5w9/FAxEuTghlVC+VCTq66WN4sg/mtIzC5rxGOKBtgePaZoyAGuFicRMcymqAj5K80dvVUM3PkYFhSf+ug5ajUlxmsDA1hoUJo3IjIwQxouzgwQeufjR2Z7bhQ9sOl/Lb4EpuS5zOaoov2yVhWUoABgXaId1JH42oIsIY7XtYmMHV3h6JcQnQFmux+MNFOHn0GGoePsS/8AbAv/w7/uNP/4G7V25ix7qtGNF7KIo7F0CbWYySHC002cVo27wN4sJj4cFzdbCwgxXb0FzfDKZ6Ai0dqEwMDV8xo98c0zIwpoKk03anM2luq4ettUrrmiZAOakHaiIslVaezlk9zCW0chzV+M7NfCouRnhnyiJwiE5zZ2dvjIs3RYW3HjpTtbUkNJpIZp1MJaCFM7oN43sCcHEUmV5O6JkUjffZXpsYQHxZ2RiHGSGfLY3E1SIfqmE3RrDOPA5HOh57mjhLQiuf0b5Yoc7UWEAxnWuRO24WeOJyeRz2ZMdgXjNeV18jtKXTqcfrGsdtBO+JMAYRso3l36lUSeleJhjUIABrOsXjSKEUfU1m9CyJH5JiTmdUwvOXKQAywZZtoABJpSTFZKVw73tOeqjgbxXyvIp4fqU8t68YRZ+TJV6KvNiGbqiRUmJ5dDIElyyLck/jiitUEvdl2f5cd1yict3Y1APdeGwyyT1DxlkIgA8aeOiCiKIIwsOfDtyNAORvsC0e8vvShfaIkf5tAvZKSQwOESDrW3pjkK8ecvgbbfh7KXTskmghWXcJPLYGfK+pvSHaMMjoGmaFKY29sKusBYOFZjhbHKOyJO/xmB4R0o8FWnSKkkwiSSiymKPA92kOlWOuGx7QLmTaUTH48jiDsSTNFr0C9dGZYGrFNmnCbQO2i4BMutmS2D5tnM1Q7mOLmQ0j8EVJJ1zqnYUbamVmL6pmnTK9z3N7lGtJM+Q+aeWuuFEVhhNdG2BThxCM5D1WzmBBxqEb8reT+dtyni257eZhia/LqLRKg3G90JNBFo87zwXPeIwPS4Nwi+10pjAWe9v4YVasBXp58nfYNm0ZtEkSjfQYyLiZWBqvQXt3Q1QGWGFGw2B8VtYOp7q3J2DZTgyobhFYKqWf96BuqR1nwkeqgFiqrtRLfF72t3DEcN7/JTw+qbZSzf3MibLAad5nVwuDeH/JCspsb1FbvL6P2OaizHUq6xVovQDXq0rr1cnFaW+h9ar9/LOAS6wOWgIjgdJfNj1edN1rKagrzlLnKF83S+jrW8DczIHgCkfLlp3Qo8cAgmsmFi9aifVrt2L50tV08B9h7uwP8b6kwBNc49+ZgHcGj8LQvsPRq6ov2qS2R3RQFAKcveFn44ggK2tEEBQy96jA0wT9Ip0wu20cNhU0w5clLXGUiuuEpgW+ogKbn+iDroSW6t7iA+BsItAygyOB6szjcyRgLU1MYWVsBgc6/wA6vBYOZhiVEIWtme3xdX4nHC3ohOP57bGvZT0siffHYDfdvK/GfAgkpTfA1Ayedo6IjoiBRluODwmsowTWk8c1+B1VllS5+P2zn3Hvxh3s3LgNI/sPQ07bLKSndUJVYQUKOuejXbO2SIpMhI+rtwKWpQEVoB6VEk2gZaynDyNG6X8LtOrUsCRimPN8BVrNeLzSPXhUnGSxP50HFRYfQKkjJw7yYZ5sqRJyqTxy6Hhz3Bhpe+Aq1cSV0kCcKw/H15p4bOwYgvmNnDAp3gKjYi3RL9QEXfyMoPU2QpdgY/SLMsd7TQIY2adgu7YVvihrhmN08GcrY3GxPBTXSvz4EMr8HAGWDlp3ZTxLnLxYvs50S5/IEig8HjrTx7L4YIknVbQ7LogKLEvEZwUxWJLqiakN3fBOvB36R5gzWjbC0HhLjE2xxYLW/ljZMQi76cSOUzXepPO8zaj8riyCWeTC36RzptXwWB7kShvooKVKI/FY7mp8caClHXam+mBjWhQ2tknE6gbeOKZNwTk6/xt07vcJ+cfKydMEXDy3B5L+nyV15jxxi4C4oQ3HD7n+WJdmz+MJxKJ2vljSyhmfZHiricdSMuoBlY0OWrKgogQSBBZ/T8DyUNRQvh+BE0SVGoZPs0KxsqUHpiZYYES4MQbxvPuHmWJAuAlGJjpjYlM/fNAmFJuyCI68MJzt1gBXyqKoGPz4e25UOAInBixUiKp+IAMYuRa6sTlRQfYKXnI/3JFuyiI7VVX/MJ3vrgw3LE+1wIwkQ7wTZog+3gYYSDj2j7TFiEQ3zEoNxbr2kTjIAOE02+kS1fFDKrlnWqo3/v593mf3qewf5VnjcYEFHuQZUn1RVXcJxEWq6RME+P7WnljTzAezqURHx7pgYIgFeriboK+7MSYEmeJ7qrYr5WG4wSDmIaH7jAroEZWbjA/VFFL9FgbiVlksjhZGYWcHf3yQYIIpscYYG8n2CTXG0EAjjObr6U28VTbyJzlJOF7WmIo2EWdypTi0LwMXCeqovHkvyLaue09XdYTBFWF2i8HO6Vxf7G3tja2tqdKaBlARh+BwfjSVfCSPz5/3AGFaxONU0HJXaf6PC+tUVh206sBVp7YEWGLyngvvD7+30HrT/jFo6apn/LmZwICOV0/PjGYBK0tnBAdFo03rzujZcwCmTZ2NVSvWYcWytVizcgNW8/X8OYswafwUjB42BsMHjMA7A0dhFK2quAptGrdCpFcgvCxsEWBpjXBLqaqgj1aMOPOcGU0nMLJqm4T1+c3xeUkrHChtjR2E1uR4LxQ7GSKRcJHBeEkgsCekHI2s4GZoDRdurQkuW5qTgYlawjzJyAB9IoKxIqMjduZl4LP8dD78HbGsfiRGeFqhkLBKJQgkupd+fB9TS8SFxaCirBqLFq/Aj4eP48HDx7wubHu260/PfsKV85exY/MODOk3GMVZRchtn4McWjGVVvvm7ZEUkYgAd384WzvCSspkEVSmekZqa6Zv/Aas/j5oeTAilu5BBa3yFEb2EvHKA2inlIxUtFCVLOjEanLpzKm0HuXInCUZgPZRD7FMpL2kjWLUHU/HEo3vcsLwdV4E9mYFUYX5Ynu6Nz7O9senBaH4viQOx8uTcKYiERdkLlFpAK6XeBEahBW39zQekGKpsoTJfekelC5Kbl8z9R5NnKlEucVS4YKKoFhKPXkTBAFUQqE4RSd3OD8K32aF4Mt0f3zeyRtfZwfg+zw6QMLgnEZUii/37amyJKVW3qMiqgn+/nPu5zmPQZaPf0BH+pCwrJHX+TaEtqxz5IGbdErXiuNxQduYEXhTHOssRVNjcCOb5yJRPk3aTKkTRvw1RR54UsrvdDLj/6hkqFZu5HjhakUcDhVH4ms6s29K43CQ6vUYI+jrpSFsDzo2OnapxCEgEasDlkDmCZ1dDeH3MJfQ5m9dLgzDaTrkI2z/rzJk9Wc/7E33UfZ5ThAOFEfgR8LwLGF5qcAPdwiD+wIOtuPvqOJ+zrXib/J8ec2lYrm6BqrNxaQMlDhrwoX2WMNrJN2VWie2uxMu8r3TVIBHGNh8ne6Cve0d8WkG95sZgAM5IQRFNE7L0kDZVCr5Xvw9L1WhRHV7irJnYPBI2pqQeZhHsOdb4LGW/yv3pJKmyqWiu8g2P8V2+kGTgP3ZUfg4PQyfiBFAe9u64Zys+FASglsMqqTyiQBWxsieMMhR0OW5PqLCuV0aQRBG43BOIH7IpuUG42CmHw509sZ3/PsIA4CTvCaXGczcLArhtaYazPfmsyDqmdeV56kCCB57XSKFWktOgcyWoLfDDSqyc1TuFyoa4mguj6uiPu5UJuN6QTCDowAGRz68jz0JKgJLrqdcYwUt7kNBi/eMdBmy7V9TXcp0790i+N5C6w37x6ElautNewktAwNLmFFtOdjrahUKuHp074c5sxdg1fL12LxxO3Zs240NazbjgxnzMGHUuxg9dAxGCLgGjMTgnoNQmqNFq3rNEOcTjGBrJ4SYWSPGzBzJxoaU/Ubo7GqHXrFBmJKWhNW5LbCrrCPWZDfFOzEeyJYyLwSMAMmRsLEzNia0LOGqbwVXgsvOkIrLkBAzMIO3kT5iTPVREsJoNbMTVuRlYVWndvgorSlG+rlDY26ANP5WHH8r2MwIfhZWiPQLRam2CxYvWY1Dh0/j0eOf8NNPvA686M9qnuHKpavYumkbRgwZiZz0XHRum46CzCJkdchB+7SOSIquR4XlBxdrZ9iaWMOiVl2Z1ULL9B+ElifV459DS/fwCbRk+1iglSdjM3QwdJBP6BxrcqVEkS8fUH86sEA+pKG0CDrZGCqWaNXtI5UvLmvDcEnm0ZQEqwrk17XBuElFc0dLRSeJFjJxmNG0VAZ4rOFDq5FMOd0YwUM6tIcCJALlNSNMXhj/fiiAE6eqceexy3wqN9yhU7zD47pTEILbPLZbhXQ8RcG4XhyI60X+jIRlEJ2OsIiqqcgCd4vNeSxSuFQcnBPB5apMsrgEVNIOT4q5D1F8OVLIlGAljB4UyiTiMJ53FK6mi6P0psm4Dx1PHpWLGJ24rDggNQ+fUp3ey7DF42yCh+/fzqRiKQlTc31OF/rjAtvpKp3qTQ1VgcaLx0MosR1eDs4LrBg88PeeUt3Ie09r/3dfxh3z6eDpYG8V8Te0IbimCcQ1guka2/wKz/2KTJpldC4lrO7Jsj0FXur3ntE5SoX+ZwSXlJtSjpiwqmtnaWMZj7tPlStVTmRbI4sv8rOy5pZU+7iXa872lyU9XKkkXHGt0BPXCrxxnffJjXx/Bfk7OQwQcvh7oj7pfJ+KQ5ZEFd5jkmVZk2ejK7os23xrPNUQNDJpt8CSiozHQLDd4jlcLolisBCLC1TJsj1PwJwrDMINwkgmj9/PIwzYvjXZvG48RhkLfMxjqymWwIT3DIObuxoqe97vd9hGt9k2t9n+t/ndO0WiuKV+oi/vK0/uUwIXBi0CVoG12lJFi7GdlDHYUYWi+czcL2QbSLalxplt741rvJ4X+bzcVgWIuT+2yUNeg0dS5qtIkmxEYelKhIm9gJYCVq3VQupN00FLyji9hdYL+/8LWuJIDQgCGduysnRSZmfrhsDACLRIbYveVFxzZy/Ets278OneL7Bn136speqaO3M+JhJcw/uPwKAeAzGsz1D0Lu+JUjr6Dg1bop5fBCLtPBBp5YwwKqUwfVMkmtugnasrukQGYWKrFCzKb4PZHRuid5gzOtoSRISM1FFzJHDseHwOVDOuegQXoeVAaLkQWp58z4tKLMJSH5khPhiX3gEzszMxoVFDDAwMQJGVuaouIApLJnq6EJqRQWEozC/FwsWr8f2Pp3Dn3lP8ntfldz//Ec+f/oRL5y9hm9QSHDgU+dmF6NQuHZ07ZCKzcy5aprZDYmwKfNwDYGtBhSWZl1LIl7DXdQ8KuKRr8NeAJcZ2/g1oGfD/FnXQstJTq/4eq4WWJGH8GbQkEUA5YqoFPoBP8nz5mkZnVJMfSAumhdHJh9PJhNE5BOFxsT8VEJWCdIPQWUtkLct7POaDWkOH+4QPu1opVtYy4kMusHiinDQfYOnrl64dOpi/anSSD7hVRtDIWNJD6W6h43pCiNTQHudx//k+PDdvmlSqoOPkud0vkrlopjRj3FerHdNhEk41td00ktH1sDbrTxxTHbSeCsCyZdFAgQjBJOdUQFhlU6HQdNCSuoNUQ3SeT+qUUQHPP5u/T2jV5BDYBM1DrayX5UdQeRGeBAnV5hOe+1M6pSdiL5yWbKWbUHdsUjH/MSP+h3T2EuVL15qsNCxOtoZQfiKrCdM5PyrWnbOYtL+6BmyHGirlGkLrCa+LKJAaOk45bwUqgQn3qwoMs10fS9sSTrIyr5TlUtCS60Un/ozX8SmVqCRQ1BAqOhUiIOPvyPgYA53HVIKPqdBrZFUEqswa6YYU5VNn/B3d1AAdZJ7yfKQW4HPu51mBFdvRDD/JIo0qFd6NAQgBQAV0t9Zu06QSvxQ2vk8FKft7RiX7jErrsXQ3ElqPCrllkFKjVrDm+fE85V6rUUrWk23B+5pqSmdsE1GxMsYk7Uvl97hAN21B92zwHGtNl67O82UAJl3Xsnjk/WJryLI4t7WOKpnkDvd3j/uT7lZZGPMxVdhjXo8a3jdyryhoiYJT11h3fd8E1K/ZW2j9iv3/By0xgZZM4nWAuZm9Ul0mJrbw9gpC86at0LfXQDWmtWvHHuzf8wX27f4cOzbtxNzp8zB26Filsvp17Yf+tF6l3VHUIQ+dGrVGSkA0wmw84WdoB199G6oeB8Tb2KO5iwNKYgMxtFUSBjWPgibYDs2t9RFJaElqsCO39pIO/Qq0HAkt11pouVNphVgZoU2IP7q2aIY+LVKhDQpGRytrNDMyVPNVfMwM4GxphpDAQBQXlWDR4pU4dvIi7j54jp9+9yf87vf/iqcElloif9NmDB00BOmdMpDVORvZ6TnIyshFs6YtEREeC2dHD1gT5mbGNjDnMZgLtNhmygiuOmgZ6b05nvXb0JLsTgN9Q1iZGKjU4eaWetjRNQvHCa3rhJYkYahuQekepD1W3RN80OiUHzGSfyjdJIyeZUHLmnypZO9PC6KzCaaTC6ID53vFdJoEkCiSp7Qn4hD5fXG6T6g4xBk+YST/RBwIYVAj3Tfyt3KS/CyhJUVlxVn+LSbdV9KdJSav5ZglkldOn47gCfctjugpj/8pndFT5RQkSpa5aKL06MxkHIvK7ikdy3P+/xmPWX5DLWBZ2x6vQ8uCDtWJjtEJP/OzUpj3mTh9qgjlkPI9dNCShRfFMSknSHAQYg+p0h7mETR09vd43nfYRrdpUgVCgPGMDuxnSSIgoASMOniJ8pN21LWntK10HUktQ3WN6BRlK5loKiggANWWpvsOj4cQe0aYPSUon1LtitN8Qqg9EcjxuugCBrapApa0hexT18Z10BJgiT0ShUWHrYKPOujwWHTtrmt76UrTdWVKF5ju/J8Q5k/4/gtgEXJqWoD8hgKWdM9S9Qm0CqWQLQMbtpO8ryDN87lXRLUikFHw9eZ196GKYVBCJfNYoKOg5Yrnsn9eM0lgeMZ9PSeEdNdWd51VO8r9yOv1hPfG68b/SbvJvc/v6c6Jx1p7nLo5VHL/yn3Dc6U9IrjEHhPsNRrpQmUQo9pLVu0W03VrS5egeh5UACfBBNtdAUv3rL2F1j8BWmJ1y5j8+ndeFtuV6uNShVyfqkhPzwAmfB3gF4p2bTpjQL+h+HDBUny8cy+++eo7HPjioALXglkLMGHkBAyk2hrQrT96lnVHl4IKlKQXokODNMR7hyHA2gu+lu7wtnCGr6k1gsyNUM/FApnxVEb1Q9Ex3A2JNkYIJmxkHoWkz0pxXCdDczjrWcBFkjEIKxeCy02M5+FvbYFmocHonJSA1qEhaOzkikR+PkLfCIHmVGMO9ogKD4dGW4IlS5fjxyMn8eDRT4QVr8fP/4KnT6iwLl7Gjm3bMGzwYGRnZqJTh47Izc5FZnom2rZtj/DQKDg7ucHCQiZlWxLmVEbSFahnAgsCy1wBS7oJ2baSqUkzJqReNSNaXfv+JrSMddDa2S1bQesGgSPR+iM+lCp7ULo+xCHy4X3EB00yyh7IeAQdgziHGsKrhpGtKK4nhWK+fJBFKdAhCIRoTxWMdCpBHkado+CWjrCGjrcOPPL3C8eswCUmEHvTeDxvmErPFwcuTlucm0S/BJJuAUpxMjpwPKPjfMbtU3Ga4oRUlCzQFMfD/9eCR+fYeCx0wuLwlHPmZx7RMT+QlGw6KOnCUtASwPCYFbTkmOX4xdmJ01PQEmcn0OKxs/0eE2JSgf2BQIuOWcbS7vH3pEq4LlNP95s/8buvQYvnroOWbqugVaeKGCA8K/FRr+vSp+X3JWFC197yeQEYtyogoLqQ8RSarOQsgFOf4f/lWggMJXlBuu+ki1S1MSH1gNASJyxWBy3VfmwjnUOXc31polQkXV+XHSdtwH3IfaBgQsdOkOi6B3UmYNIZocXffqZ+V9Sb7jwe8dxFaYmqlnaoW+xVkhhkNWrp7qyhwn5KeyZwpKKTY5BjkSzOn/jZn/hZCUie1rWLgtabpjtOdaz8W0x3Hagqa4/1TWjpwMU2Ue9Ltyk/WyxqjMEOTdrsIf+n5mPVPQ/yrFB1PWR76NQ9t9zPS2jxsy9M/n7dbmneQuvP7G+BloGBwQtQvWqGVC6/ZgYG8n9Z+diAr+U36ES5lb91ZgQrC3u1AnL7dp0xeNBwLP9oFT7b/wXBdRBf7PsS2zZux3zpKhw5Uamt7iVd0aWwUoGroF02WtVLRXxALAIc/eBp6Uqzh5+dLUKcbZHg74GG4QGI93NDuIs9fM2M4E5gOfPYnAwNaMZ8bUpoWRBasvy+OZzktYExvGysEePjh+TAYITaOVN5OSHQxA6eBIm/lSNSImJRqS3DkkVLcfLEGdy/X4Onz9mWVFiPHz3HxQuXsWH9egwaOAAFeTkEVjt06tgeuTnZaNmyJaKiouHq6gYra2sYm8g8N2MFGCNC0YRmbmSstjqFpQOWtNdvmW6RTt1UBd17+vxNfVgTWrKYnUBrl0CrrB5uFgfQAcgDIw5JjA+HPGDiMGgP+YA/KpSuDV2EqzPpZhKT17rI8U3o1DlcnQnQxHTvv/h/ndUC7ddNnLcYHcUrJk71MX9TdfkopyDQ0pmASVdpQKceXlQbEIXwxu/o1J7OcarPyG/X/Y76vzho3WsZ49BBmVE7z1UlFSjoSvvpHJ4OXPyeRNEKWjRxsnSkYgIoSSyRNaHEJNFEpxJ5nMpJitWds5g4O53DqmtDOW/dufM1z09B7EV7yWfknPmakHv5nq7d1efkfSq8l/+T39ad+6umusDElGPW/f3y/wIVmlJata+VSTvJ8cpx87dfWO33FOhq7dXroX5LugjlfwIJaWu5FuL0dSZKuW5/sg9dEgPvPemWFZUrqk61n27fL2EgqkZMBzsxnfoXkOnGMnXG41Qm+9XZi/OqO843TNpEVbZ4w3Tv66zumqjAQLV5XbuL1V3Xutd1v/3qZ1/abSrmt9B6w/4RaAmc6iD1qulT1bz+OQOlyl6+J79rBmtrBwQHh6Nz50wMH/YOVi5fjc8//RLfff0dvvn8W+zYqOsqHNJnCHpQaVUUlKOK4KrIK0N+h1ykJjdHlG8U/J184W1HxWXnCh8HVwS4eCLIjSrM0QWe1nbwMDVXKspZAUvMiGZCUJkTWKZwILTsjS1gS+fvzs8HOLsjxNWLCs4RHsb8vhGBaOVKSEagPL8Ei+ctxLEjx1Hz+CmePpX1yH5R2/PnLmLzxs0Y2L8fFVY6rTOyMjuhQ4c2SEvjsUZHwtXNBZZUc0amBLkxoc7jkTauU1Am0v5sKwNpt1rA/zV7E1r6NCMDfdgZG8Kb1yLNSg8fd83GydIU3FbQ4kNc6xjrHJsASAct2cqYiIzhvGkyLkCjA5AxKbE6cKmHTID14mGss9cfwr9urz7Ir5uA67f+//p+f+3//xmr/b3iV86Lju5VB62L9NmWSt3p3hNg1cFHdenVmk7VitU6WfktcZav7E850Fqnr1OadddIZ3UAe3E8f7e9ur/X7XXn+zfaC4dfZy/3URcQ6AKBN2DwAlg6ezlP6ddMBy6lXiRQoKJ+qZbYLgIode/+ucn7umCKbcZjE3VZpzBfO56/0f5629S185v25mfe/PvV50Bnb6H1K/aPQEtfIEVo/dr/ftvkd3UTYa2t7QmuMLRu1RaDBw7D6uVrsf+TT/Htl1Rce6i41m/HrCmzVDZhd4KrqojQIrxKsjXIbJ2B5snNEBsYiyDXIPja+8HD2hseVl5wt/SEm4UbXM2c4GpiS1VFNSWgUt2DJgpWoq4UsLi1o1nrmcDFkqrKxgk+9m7wsnaBm5kjvAmsxJBYVBVXYPmij/DDtz/g4b3HvLj/gmeE1aNHT3Hq5BmsX7cBgwYMQImmCLnZGcjJ6oT0zu3QokUTxCdEw83NmcAyh6Ep1RMVkJiBMcFPuNS1++tw/89By5AmtQod+LtS8qcVobWb0DpNaN0p+lugVTdw/dLk70fKdP3zLx3Cqw9ZnWN/9UGU9179zF+zNx/m/4GmoFLbfv9Zkwj/L5zzq45eAawWUq/bm239f5uJov01OP0lq4MWz13A9Sv2l6H1f8O9JcdWd5wv7S20fsX+WdDS19c5WxmLsaa6CQoIQdtWHTB00HCsXLYKn+/9At9/9QN+OHAIu7ftwYJZHypwdSvpCi2BVZRehOLMInRq0QnNklKREJJMhRQOT6tAOBv7wtnIm+ZFMLlz6wQXQ1s46VvrzMCK0LLi/yR70IrAslRmrUfVZWoDNysHuFk7w9HMHk6WjkiMSkR1WVes/mgNzpw4i3u37+Pn53KR/4iamuc4e+YCli9fid69+6BDu7aqW7BEU4D2bdPQsH4SIiOD4entyvMUhcW2FGCJGuXW0ERfQevPgSX2j0NLytT8/dCiinoFWH8ftN58GP9fhdY/CK6/Cq06Z/1b0HrlmP6vs9+CVp0qq7Pa7yiFy3N/A1Z19tvQ+p/eXm+h9Zr9Gqzq7J+ptOpMwGVj44DggFC0b90RI4e8g7Ur1uHzPV/g+KETOPLdUXy89RMFrqF9h1JpVaCIwNJka1FAeHVKy0RqvdaICUiGj20IIeULez1POBoQWoaecDZ0hbOBM5z0HGgEEc3R0I7QsiO0bGCv5mtZwUZPFJclpBK8PdWZrYkd/LwCUVHaBZs3bMXpE+fw4P5j/PzTH9hef8RP3F65chNbtu5Cnz4D0K5te7Rv1w6Z6Z2Qk52OBgRWcBAB6mwLKytTGBNYBrUK64XSMmE7GhFcfye0JHmj7vU/C1oqjZdO5OVD9hZaf7O9hdYr5/i6vQaqV+0ttN5CS+yfAy0Zx3kJLQUuQzPYWTsiJCAcHdp0wsiho7Bq6Wp8uf9rnDp6BicPn8LeHfvwwftzMaTPMHTRdEVhZjGKsrTI7ViITi0z0bReC4T7xMDDxg/Oph5wNHYjmFxrjcpJ31FnBjRDwstI4GXzAlz2amsDG30rOJg5IiYsHpWl1diwdgsunb+KB/ceo+bxT4SWKKyfcPbsZazfsA0DBg5DVhaVVXuBVQ7atmmNZk0bIzjYHy4uDrCwNFUKy1B1BbLdjPVhZEZICayotGT7KrDeHP+rg5MOUDqTNnv53n8jtKTigHIEAixxFny4Xqitt9D6m+0ttF45x9ft16ElbfQWWm+hRfuHoEXn+pf+99dMJr8a0NEaGOhMnK2RARWXlR2C/ELQsU1nDBs4QnXJ/fDNIZw/dRHHfjiOT7btwcI5S6i4RkCbW0ZwaQitAmS0zUGnVploGN8UYb4x8HEMhIu5ByHkBEcjJzgZE1qGAiudORg68H3Z1qktwsvIFk5mDnCxdEZkQBSqy3tg47qtuHThOh49fIqnT35HWP2MBw+eKmCtXrMJPXsPRJt2GejQIROd07NpGWjQsAGCQ4Pg7OIIGzsrmFiYqLErXXcg29TEiO+Z6l5LQobR64kq0uYv20ra9yW46tqrrs3E/rug9biQr4sEXDoHoXMgdQ+YOIVfA4689/fam7/xP89U6R2J/P9mk/aug518X37n18/5fze0XknYqE0zf2HqnHmvqXuPbfKa1WYK1t6br5ruHn0Lrb/F3kLrt8yIjlicswGdtZhKkafioIO2NLMkuILRvlUHjBo+BpvWbcbBr75XiuvU4bP47JMvsWDWIvSp7o/S/ErkEFodW2YgL12qpXdCo4TmiApMgJddAOyNXQgjARdh9Yo51Jo9oWVHsyW0bI1s4GLljISIBFRoKrGSwDx35rIC1fPnf8DTp7/H7dsPcfzEOaxZuxl9+g5B+445aN02HZnZBWjXMR0NGjVGYHAQLG0sYWppQiOczAgTY4KJZmhK4ChomSt4iRmwLaQd69ryJcDq2uV1tfWm/XdAq6bQi58RaHnUOgN+h85C93D9JWD9v2x15/63Gh2rJBMoIIn9hS4w2lul9Zfbpq7dX1OtynTg+jUFpqDFwOHXf+9/ir2F1mv2a7Cqs38qtKgw9KR7UYzOVfc/Om99Q9ha2iMsMAKd22dgzMjxWLd6E747cAhnjl/AsUOn8PmerzFnxkKMGDQGhVmlaNeiM3I7F6NT62y0JrhS4poi1DcW3lRcTmYuhJMD7AVSClQOBJW9MhsDO9gY6czT0RuxoXHoUtoVHy1eieOE5IMHz1R34O9+/hMePfoJR46cxtp129Cj1yBk5BQjPasQWblatO2QhaT6TeAdEAQrB3sYWphBn4DSJ5T0CA89buW1QMvIzOQFtIz4t6Gxrs1fVVtiMrdNX1/a93VIvWn/ndCSShh10at8X/dwvYXWX7c6aNU5Z928pF+zt9D6LWjp7rnXgVVn8v6bwNLdq2+h9bfZW2j9lv1FaImqMIaxoTkc7FwQGhyJrPQ8tarx+jVb8P2Bwzh38jLhdRH7Pv4SyxetRc8uA9CxdQ6yZGyrTS46tMxCi0btUJ+KKzokEb4ugXA0cyKwXsJKAcvIHpZUWZaypYUHx6C4oBRrVqzHqePn8eDuEzyt+QU/Pf8jHj/+GadPX8bSZevQt99wqqtMKqs8gkuDVu0yEZvYGM4e/jAwt+F5GRNUBIgAS85TtgSVIc3Y3IzAslBWp7R+G1o6EP2W/XdDS1cRQuc4dA/XW2j9dXsLrdftLbRet7fQes1+DVZ19s+FVq0Z0ln/maKQ0kYmsDKzRZBfKNq27IQRQ0Zjw+qtOHTwOG5cvodTRy/gwGffY9nCNWqZ/g6tstC5bR7apWWgfUtChdumKS2pnhLg5+IPZ3OXF8Cy1rODBYFlbmyvKtDHxzeAVluF1as24ML5q3h4/ymeEVhPa36Pe3drFMTWrN6M7t0HoHPnArRsk4FCTRdU9+iPAk0VOmbko0HTNMQlN0BMYhIiYmMQTouMj0VsUiLfS4C3ny+c3d3g6OwMH38/hISHISYhHmER4XDme8bGAh6BtgBLxrnEXm2TX7e30Ppn2Fto/WP2Flqv21tovWa/Bqs6+58JLXHcxgpaRnqmsDa3Q5BvKNqkdcTAPsOwftUWnKbSOn/qCo4fOoMDn/+AJQtWoltlX+RlaBW82jTvjNa0lk3bo0lSM8SGxCtwOZk5w9bQAdbGDrAydYSLkw+S6jVF914DsWb9Vpw4eQG3bj3AA0Lr6ePf4+7txzjy40m1jMrgge8gXYDVqjNatOyIssqeGD1+Cia/PxszZi/Ae1NnYeKUqRg7cSKGj3oHg4cPw5ARwzFq3Fh+bhy0paWo36gh/IMCoSktwbARIzCG/+vWvTtSUlJgZWWl2l/aR6e6xKQt6trl1+0ttP4Z9hZa/5i9hdbr9hZar9mvwUpnAqs6+ydC60UiRp2D1gHMkMASaBnpmcHKwg7+XiFo1qiVAtemddtx5IeTOPrDKaW4vvniEBbOXY5BfUciq2MRWjRuj7Qm7dGxNQHWrB3B1ZTgioO3ow+cLV3gaOUKFyqsRg3T0Lf/cGzc8jEuXrmNO/ee4N79J7jP7Z1bj3Ds8GksW7wafXoORn5OCXJztOjUKQ9NmrVG7/5DsOSjNdi97wscPHQMx0+dw49Hj/9/7d0HYFR1uvdxSjolELBhYQVWAfXdfVUQkd570V3FLtcVsaxl9a5iBVF3XV9XBRWVUMWChY70Ik1QakIvIb2RNpkWQvm9z3POnGRm8p8ayKQ8d+/HSc6c///MTDLny8k0bNq2DSvXrMGiZUs1azdswIZNmzA9Ph53jxmDThSoj6dOxYZfNuKXzZsx7fNpGDJkCGJjY8uiVe5CR6utIlp0x64QrVZ0vpN7KVYSLSd8ffl6+4tua4mWk2Cjxddb/92riJc7x8pg/I6q5qsu6nK0bLwxq08cLD1aZkLjSZVGi48kDGXL9XDxe+41oB1vmONIS1Ofj7ji0LpVO/SlCD09/jl8N+9HbFizBft2HdKOvDZv2KH/qXD8/2LIgL+gW5cB6NdzKEYMHE1HXoNw+8134I/XXI8rW16Ny+Kuwq3/tyuep2B9O38REg+eQE6eGXmFNuTkmpCcnIXfduxF/BezMY6OqEaPuAejyH33PoJhQ+/EDTfejFF33oOJk/+F+JlzsXrdLziRnIaTKWnYuHkL5sz7ioI2CxspVqnpaUjNSMf233bgny+/hGEjh2PxsiXIyslGZnYmllLY7r77brRs2bKKosXv20Y7QuYIFn/ERXm0LtfC5nLH194kl1HQ+Px7+b3eaEeh3bn0nbL6zihc8Q7ZoDqfla+jvw9gbYwWc74tnKnWZcbtwL9//DEt/uGXHFT/3886Gy36XouW+gI5M5vNGtdoXV910fKgPmlIwihcYbTzLReOyAaN0DgqDm1aX49b/tQFLz7/MkVlDjZv3IGE3YdwMPEENq7bjk8/noWnHv8nBvYdjV7dBmFw/xEUsRHo3b0vOv2pM25q/yd079obz/z9f7Fg4Qrs3nuIYpOD9KxC5OZbtA9z3PHbPsRPn4PHH3sag/oPw/Ahd2LYkNEYMewudOvWB9dc0w7XtG6Hmzvdjj79BuGNiZOxc9de7NmXgLfeeRfde/fCiNGjMXfePGRkZdKcGTiWdAxTP5uKRx97FJu2bKKflRWn8k9h5aqVuOeeexAXF+cWLY64a6BUAo8Wvzu2ESN+01udS7SIa7TK1+Pzcila5e82LtG6mGpvtAJl/CNL/111pf8+qvCnGajnq04kWj6VR0sPVvWLlhEu/SM6OFrh9aLoNBrNGrVE05gW6NNzAJ4c/yzmzPwGmzZsp2gdR8Keo1i9YjO+/OwrCteLFK6R2qcE9+8zGAP6DMIdXbqj623d8ezfX8A33/yEgweTkHQym46SspGSkY+U9FPYvmMfPps2E4899pT2mV+DBwzFmL/ej0EDhuF2Gn/FFVdrb/QbFtUI4VGNcfmVrTH20XFYs24DxWgr/jZuHJpf0lJ7osVHU6YgJS0NJ04mUbjS8f2P8/HShJewYdMGFBUXIedUDlatWeUhWnzbugZKRaJVu0m0DBItiVa1j5ZBj5bx+BarTzv0a1q1Qa/u/fHkuGfx+aczKVw7sOv3g/jt10SsXbkVUz+MxxPjXsCo4WPQt8dg9O4xgNYfgBFD/4Ivps3C5s2/4yTHKi0PqekFSKZT/tj8qZ/OwNj/eRKDBtER2qCRGDXsThozGl0634E2116H5s0vQVR0Y9TjD28Mj8IVV12DceOfxIqVq7THr8Y9MR6xcc20Zwh+NHUKHcWl4Mixo0hOTcbK1Ssw7YvPsPTnpbTNFIpWNlavWS3REh5JtAwSLYlWDY4Wa9aoBdq17oCunXvj4QfG4bMp8Vi2ZB22b92n+XnpRnw2dTaeHv8iRg4bQ9EaSkdcI3HXqAfw7deLkJBwDMkpucjKKdaCtWX7Xvz7/U9w95ix6E5x699vGP5y5xgM6j8EN3X8M664lI6wGsUhMpKf5ReFehSLBmGRaHnZFXj0scexlo60tmzb5ohWc4pWa3z48cc4nnSConUEiQcSsXX7Vqxeuxrz6YhrX+I+2nYWVq2WIy3hmUTLINGSaNWoaOmPa5U9MYNENohG0+g4tLrkWvyfjp0w9sFx+OiDaVi94hf8umU3ft+eSOHagCkfTsffn3iJjpjupyOm+3DniAfxw/c/4+CBFKSl59ORUC5+2byTAvMlxtz/KLpRsHr1GojBdKQ1fOgodL3tDgpWKzRt1BzRUU0QEd5Ij1ZD/UirxaUUrXHjy6P15BNoqh1ptcZ/P/oIR48fx6Ejh7XHsbZs26LF6/MvP8eGX9ZrT8Tw/JhWJaJFP5s4+tm1pnm0aI27U6JVQ0m0DBItiVaNiVZ9ooeLd8iGBrQssn4MIho2RlzTy9Hl1u647+6HKVyfYcXStdiz8wA2bfwNC39cSeGKx9NPvIwH7n0Co4Y/iIU/rcaRI2k4mZyDrdt245NPZ+CRsU9i5Kgx6NlzoPZnwf59B+P2zl3RsX1HxDaKRePoJoiObITw8Gi3aF2Ovz0+HuvW69EaT9HS/zxIR1patI7h0OFDWL5iOdZvXI/DRw7hnX+9jYWLFyAnNxvrN6xTRkt/cXFwzx6MpJ9Nc/rZ/KFBPQxoUg/LOVoPda7iaKmeGebMff2aQnVdnKnGBE+iZZBoSbRqTLR0DSle/FHyzjtr/kiThvWjEB3RFJc0b4UOf7yJonQ33nnrfSxdtAprVm7C2tVbsJyOuKZ9OhcvPD8R9987Xo/W4RRs3UJHWB99jvse/Bv69B+Gvv2GYuDA4ejTewBuvbkz2l3bDs0bx6JpTCM0iY5BTEQUwsP0QLAw+rp5ixYYfedd2uut5sydi3vG3I0Wl8ThyqtbYcKEl7Fo0QIsWboYX9DR1azZM/Dd/G/wxBOP44P/vo9Vq1YgfsZ0DBs+FFdeeTkFka+b++3C4VLxM1pNQxUtfi0Sv+5GxfPrlKq/qr1eEi2DREuiVcOi1cDxOi5jZ21owDvt+hGIqBeNJjFx6HjdTRg94q/497sf4Nuvf8Sa1ZuxYf12LFq4Gp9MnYlJE9/Hjz8sx8oVGzF16nQ8xk9rHzySgjUEg4eM1qLFT7po94e2iGsSiyi6TZpERyM6PJy+bohwt9snms5r3749BgwYgJEjh+O669oiIrIhYps1xm1dOuGuu0bjoYceQJ8+PWnufhg2bAi6dOmM3r17YDjFavDggejYsT1iYxsjjD8Usr5OdfuU49vde7Ri6WfTmqI1kKK19LHREq0LRqIVGhItiVaNixavw+HibTqjy0g76nDH41wtml2C69t1wF2j/oo3XpuE7+cvpECtx9o1m+moZyW++XoB5s6Zj3cpamMfeZzCcReGDBmJwYOGa8G69Zbb0IaD1ZTfmzCMQtWAThsismF9RDSsR9HiD7F0vY04XLGxTdGyZRwaN41Go0aRiI6JQEyjKMTFNcOll7ZA8+ZN0YzExjZB06ZN0CQ2RlvWomVzREVHIjyigRat8Mj62tfew8XX23O0ovid8uln8we6vIObGdG6Den3/1GiVWkSrdCQaEm0amS0VCgitOMO5xcgN4xCTGRjNG8Sh3bXXoc+vfrjjdffwqyZX2HFirVYt3YTVq5chykfT8PYsePQv99Q9O8/BEOHjqQjoQHo3Lkr2lzbDnHN4hAdEakdWUWF1aN562nBUkWLbwfjsjSk8xvyhz3yR+nT1w34051JRAQdoYVTlMLoNnMsDwtn9WkZL2+AyMgwR7Qa6B/NT+u5Xk9nEq3QkWiFhkRLolWLohXWIBwR9SIoMFF0VBSDRlFN0Kxxc+1Zf/37DcJLL03AnNlzsXz5CqxZsw4ffjgFD9z/MHr06Iu+fQaid68B6HTL7Wjbtj1axF2KmKgYmosjSDGhHb8RLPdouV9/LVqBosCFR9RHZBTNybHjoPFH8dN5no+2JFqhI9EKjboarb6OaGVJtGpvtKIRE9FIC1fj6KZodcXVGDhwEF5+eQLi42fghx9+xH/+8//wwAMP446uPXD7bd1x4403o02b63HZZVchJqYJIsP4KIvmdPxJ8GJHi4+wjMezjLk4XpWNlvGY1orxdyHxkS5VHC3VM+ucua9fU6iuizPVmOBJtAx1NVr9KFp7HdEqoGiZKFhmiVZ1ipYqWMzrnwc5Wg31aBn4iCsmIkbbqV9zTWsK10BMmDAB06ZNw8SJkzBmzH245ZZOdL074tJLr0TTpi0REx2LCBrH0YqkCFRFtDhOPNY49Y86WvzsSo5WhCNa19C6/DqtVU+PQeLY8mhxiLQ3xTVC5NgROEfLeNNcfb1yp+jO5BotpoqWqDy+jT1Fqy7d5nxdjWgZkXLnLVrV/bbiy1eRHq3+jmhlUrTyKVpFjmhZJVqBRssQTLjct2EIoyC4R8IQTgFRjeGdNe+0wyhaukiEU7QMkeGRdPTUCG3btsOgQYPw1FNPYezYsfT1YNxww03akVgMHZFFRzdGOAWLX4MVTvNF0Nwq7s8edKa6rv66ENHSrj9Hi85vQutdRfpytJ65F/seuQ0p97VFLkWLQ6QfMXmmhUvDO0neWbjvOJ3xDoV3sOLCUgXLUJduc2+3gz9Uc1Yf6pC1pGi1pmgNcEQrA6eL8yhahdpRlh4tq0SrJkerIe2wDWF0pFQuXPtU4KaxTdC69dW49dZbcOONN6JNm7a4stVViI1tjijHWzPx+jw+FNEKTMVohWlHhnTZ69Flr+8UrUb1sPrv5dHK4Wg5xcm3y+jo6tKgqHcgQohynv/U6xqtdIrWKdjMBY5o2SRatSlarvTrxE8jj4gIpyOqKDRpwm/FFKYdgUVFxdBy/a2ZjDE1OVr82F5kg4ZatK4k/RzRSni4M1IpWtn3tlKEyRvPf3rxRvssI+WdVAhRLpBo5Uq06k60+HGo8ic28GXmsXx9w8L4yIyDpR9l1a/PL1im5XS0Ela/vqYmR4sf0wpFtIQQvvGHqaqCxdTRypdo1cVouV4G2uE7/ixYFgKiv+eh/iSQGhUtYkSL/zx4IaKVM6YlaRGgljRWfUcVQuj4iSL8CdW+o5WG0+Yc2udztMxaXLRPoXeESqLlpC5Ei9czIuAaLZ1ztMLKxlWkv2OHiuv1rzx1tMLpemgqRGsM9j18G5Lva4csilbOvVcEJHvMJYGjO2TOvZeKSqF/MHilGiNqGv3x34pSH7wWu58ZBGTu06JVQtGyULSslmLaj1OweF/uCFWdjBa/f15kJD9xgf9k5hovfnq7CgfLiBaP4fH+iIqKUoohjaIilGKiPI2LJvzYlCd8Pq0XTUcgNE9EJInQ8c6+QYMwEl4WAT1aFGsKgyGMIsCPc0VFRiGaX3jsEB3tKiIi2oNI4ti2O8dlccZPHPFEj2M5fif4BnT5WEPtutDlp59JdIN6uJIiPfCSMCx4ajQ2/U9XJDxyE44+1BbHH/oDjj/o5AF2LWlD6HwnJ0jS/W1wkt0XAGOMCFJb0o780eE6B+N7Po/XUY0VNUdbJNPPU3edi0MP/Rk7nv8rkH0Y5wv1Pw+aLfmwWGl/z/txR6TqbLQGDx6Mm2++GTfccIP27LqOHTv6xOvyKa/fpUsX9OzZ0y/du3dX6kF6esHnVxzXg/CcvRR4OZ9P6/VwQt/f3uV2CnVHXHddBw/ak+s1HTp0xJ//dDO63t4NPXr0Ir01vXq66kHbVOrRk/RAj54VGZfHWbdu3XDHHXdounbtquGveXmnTp3o9r5Ju+wdOtygnbZv30HDl7M9/Tza39ABN914Pbrd0BaP970RC197BOteGYMdL43Avhf7I/GFPtj/Yh/tNPGFvqQf4eUDyKAy+/8xCAfJ0X8MwbHnh+J4QGjMc4NFUPi2G+owjAzHsWdH6PhrbZlxvtzONRf/7IbhKP1Mjzw3koxykfCPe/D72/8EcpJxviiLjrROodhSQPt63t8z2oc7QlUno/XDDz9gzpw5mDFjBmbOnKmdGl97w+vMmzcPCxcuxOLFi/2yaNEijxYv9ECxbjmec4mC52399NMCxMfP9GrGjFl0HWdrbwH1zTff0ZiFNHYJXQfdkiVLXSzm81QUt4FBddn4tlywYIHmp59+0vDXvPz777/H119/jblz59HPax5m02WbPXuOhn9+s/hnOGc2Zs+Jx7ezp2HNt1/g8Mr5SF75LdKXz0bOshnIXTodp5Yb4pG3fAaZRWaTOWUKSOGyOTAv/wqWZV/BGoilNGbJXBG0ObAsZfS1duqMlznWUY4VNQffT+bBvOQbh2/LFCybj5y1y4H8TJwtzqF9dx5M1gI6NWl/IuRw1eloFRQUID8/X5OXl1f2tTc8htc9deoUTCaT34qKijwyFaoVMcX6Op7TE9X6NKepmE7pupvodmDF9ANXMJut2qmJ1i3IL9QUFhTpCk2ujOXuCmmMB3wbuuPblm9X47Y18HK+7MV02Rlffp3jejrmzKc5CgvoF7wgB/b8LJzJy8Q5lpuO83R6/lQGScP53FRdDp/y9wo5aUBuBv1rLzNANCZbBCed0O2enUpSSDI56cBf8zI+j9fhdVVziBoli+4zbs5nZ9H9NJuClYcSWyEsdtpvWQthp2jZeJ9P4apz0XLmfL7Var2onLfljN+WRH86p5pqDD8gabHw9fbE0/Z8jQscB84z9e3OnP/x4E4V/bLzy2Krf28mFmItpn+J8du9FNMvOCmh70touZ1O7bS8xGzCafqFL8ffG4pIYZlS+r6UxpwRVayQFJB8nDGzPHJKP+Vl2nm8jmqsqCnO0n3ynMJZur+WEo6TxWJGESm28ts30f2VlpU4lku0HFShuZCct+VMolVRoNGyEn4naA6UlXZqGooU/65YtN8X2iZffxtd/zL8Pf0OaGg9d1ZCdxZRhfg2t5pIkQd8ntsYUaPwn/g4QnZG980y2nJ9H1VstaHYYif8uiyLFiuOWQndj+vkew86cz5fFZoLyXlbzmpvtDwHy5OyMHlkBKt8XSNadlpmp1PtzTX5FfT0L3U7HTHxHYTn5utf9vOgaFkpWlYKlieqO5yoAka4tO/55+D4WUiwagUjWhXR/c6xjzJTsCzEbrajpNhKwTLXrWi57xidqdavDNU2fLEQqwd8nmqMHgT3SDjzdFl4uXqsHrQLiW8TY6fjSn3ZyrmGqpx+vut149uJ426n5Ua47OYinfbgLW2T1nH/WVn4l9wb9/VFFTF2cM4/M/5atVzUNBwdT/9Q16PF9H8Q8ztg2GnfpN23Hevw+RKtC0i1DX9o4aIdrjtv0SqmH6YnnqPljfo6VY7zzsaZ59tefdk8M+4A/Itt49vNxH8i5KOv8s/fUW1HVGeq3w9e5vn3RtQcnsLlz31VFSyJlh9Uc1VG9YjWxdgh8JyBRcsb1WVm2i87nbJiihY/o9BUxEdZdGewev/9EEJUPSNczlTruZNoKdb3h2quypBo+Ud1mZ3xnxD5SRvG0+p5mc3PxzyFENWfREuxvj9Uc1WGRMs/qsvszDlajJdJtISoPSRaivX9oZqLqdY1qNY3SLT84+0yG98b4eJTXu7tmZtCiJpFoqVY3x+quZhqXV/4b7naA5F03Vzw+Ypt6OgHpYiVoXpEi+dzj5UhuG15usyeXlZQ9hR3CZcQtUKdiFZ1VxYtBe8PTvL19iTYnTRHQEW1rkG1PlPFyplqDFNtIzDOsZJgCVF7SLSqAW/RYqoxepScI+Uu2B21p7io1jXw+apxwbgw0RJC1E4SrWpAouVMoiWE8EyiVQ1ItJxJtIQQnkm0qgGJljOJlhDCM4lWNSDRcibREkJ4JtGqBqpPtDzFx59oqajm8oXHqbYhhBAUGeaIlAu39fzFYyVaAQo2WmaKkyfeo+UeF4MqIozPU83ji7c5PQl2W0IIETiJVhAqEy3tw9Lc+BctVTA8qUxIqnJbQggRGIlWECRaziRaQoiqI9EKgkTLmURLCFF1JFpBkGg5k2gJIaqORCsIEi1nEi0hRNWRaAWhMtHyxHe0AqWaxx+quXxRzSOEEBeeRCsIwUZL/fosg7doCSGEYBKtIEi0hBAiNCRaQZBoCSFEaEi0giDREkKI0JBoBUGiJYQQoSHRCoJESwghQkOiFYTKREv1dHfmPVqqp5kz1bpCCFF7SbSCEGy0OE4X9sXFEi4hRN0i0QqCREsIIUJDohUEiZYQQoSGRCsIEi0hhAgNiVYQJFpCCBEaEq0gVCZanviOlieq9YUQonaSaAUh2GhVfG2WM2/REkIIwSRaQZBoCSFEaEi0giDREkKI0JBoBUGiJYQQoSHRCoJESwghQkOiFQSJlhBChIZEKwgSLSGECA2JVhCCjZbq9VkG79FSvT7LoFpfCCFqJ4lWECoTLXlHDCGECJ5EKwgSLSGECA2JVhAkWkIIERoSrSBItIQQIjQkWkGQaAkhRGhItIJQmWh54jtaKqp1hRCi9pJoBSHYaKlfn2XwFi0hhBBMohUEiZYQQoSGRCsIEi0hhAgNiVYQJFpCCBEaEq0gSLSEECI0JFpBkGgJIURoXLhoJabjNYrWawnp+C5fj1YGRctMk7tHy2LlHbTqKdz+qHglqlploqV6ujvzHi3V7cBU6wohRO11QaL14Z5kTOJo7ScUrfkUrYN0foaNokWBqhAtbeO801W9YNab6rGjDjZaHCd5cbEQQgRPohUEiZYQQoSGRCsIEi0hhAiNixatA8pomSVaEi0hhAhalUTLQrHiYBXThvSdtLGDVu+MrQ5mK4WO8Km+XKLlSqIlhKhbLmq00ilaxWXRssJksdP3JcTutqPmna+Og8B4ebHVDJONxtKpfh4dtTnOC6XKRMsT39HyRLW+EELUTlUQLdopmy0w0QaKLCUwWUvpiIvCZaaAEbMbC51nNZfSjvy0NtZkp6MzG+3wiY1i533nXjWCjVbF12Y5C/31EkKI6u7iRst+hiLF0aKjLHMJReu0I1p6sFThstB5FgtHq5TWpXF2OuIiZpsNVomWEELUaVUTLdopc7RM1tO0QYoTb9hicigqYzETXqY9y7CYjrAKKFgFMNtpuY0vcPXYuUu0hBAiNC56tIooWtoTDrQjKBvsdPRkNxfAZsqBtTADtoIMlJqycJrY6fsSPjVlwl6cgeKCJNgtabR+FkrM+fS1/piX+5WoahItIYQIjYserUKb8UQDO0XHgjNWOmrKTUbm0d+RkvALcg7/CnPqXtgy9yN9/yZYsw/iTOFRmNJ2Imn3cpSe2o/i1H0oyU3B2eJC2Myhf/KBREsIIULjIkfrbFm0rOQ0HSnZC7KQcfg3nNy7BmkJq5F1cD1yDq1H3tFN2LrsS+Qd34xzp/YifddCbP3+PZxN2YaM339GcVIiYMqjIy5+qrf6ylQViZYQQoTGRYmW9oa5RrSs+k7ZRhso5T/v0RHTyX1rUZz2O84XHca5oiOw5+xD/olN2LlmOrIPLkFp2kZkbf8aexf8G+eT1iPj1wUoPr6bonUKp80mlysQChwtT+Hi5aoxepQ8hcs4TzVOCCGE4YJFayJF69UDhE6/dUQrrSxavAErzlC0zFnHkHFgJex5e3HGlkzL0nCmKAl5SVtwcNtsnNjxJQr2fI2cLTNw5Of3cT5lLVK2z0fRyZ1AcQ4dafGTNdxfq+QP9Q0QLCNc7lTrljPipKJaXwghhLNKR+tpitZ/KVpv0lHWKxStVxzR2l8hWhac4bdxyj6G5ITlsOXtwln7CZy1pOKsKRm5J7bg0PavkLxrFlK3xaNw53c4tvYTnMvajKQd36MwmaOVTUdaRXREo79jhvpdIlQufLSEEEJUvYserSLttVUW7UkYp83FsOWnIeXQOmSfWA9T5naY0nahIGUXso9txqHffkBRyjoc3fIVio+sReLqL1Ca8SuO7lhI6+zBeXMOzlhNKLGaYQ0IXUl+D0QhhBDVnnOk3F3kaJ2jaJ2miemC0BGPjaJlNeXiVHoiUo9sRPL+1Ug7sBF5J3ciL203Th7aSEdgiShM2Ymzp44gadcK2LL2IWnfehRlHsZZaz5KaR47h4iPoPg9CX2w2iRaQghRk7iHytmFe0yLouX+mFa6/bz2Dhjaxjgi/Gc6fkyqKBOm3GMoyNgPU9YhlJrSYC5MhqkgCWdsWThnzcNZcy6ddxSneTmd2guztD8NltAcNu1COz9e5UvFKy6EEKJ6Uj1fgPF5/OYUFyBaJzEpMU357EF+FwxtYxQtMx0h8Wdqcbis5gLYLfyCYWIrgJkiZbPlad+X0tGRuYCPqvJxujgHZ8x5KOVg0Vi7maKlXWjXKymEEKLmMwLl/sxs5/2+c7TyA4/WbIrWCYpWqvLFxSbHY1r6x4wYn6fFf97T8Z8MLfyiYauJTgtgKy4itJyU0hg+uiq1mOjUTBfSonG+8P5SHYIKIYSoXmyM9tme6FHjdSha1JMCitYaitZ/dx/FRP+jdZyilaKIFr9Brk0/wnJEq1iLlr5xPUIUIwpUCT/uZTJRrOhoir5npbSMY3Wa1i1xBMs5WkIIIWoP5ziVN6J8v8/0dakX2mtcg4rWLHxE0ZqcmIzX96fhdUe0tI/bt9spWlaqIR9hGR/oqD/O5HKBOFJ8AUzFsNLXxpFWCQWPz+eg6evyqX5Y6D9jjNP2hBBC1AhGrJyjpT+5T49WYYkerQ8Ci9YxLVpvULTeoGh9T9E6VBYt3oD+TD4Ol0GrKh8O8oXgoy1+uyc6yuKv9ZJSrGiZjYPlOFw0glUSMCvRj9aEEEJUX76CxfQ3ZKjiaJn5o0b4wx1po/xR/DYKVDFFS//YEh0vs3DYHHHjgPHbQVU8mvLORtEyjt6EEEJUb0awjEg541BVKlrPBBgt/bEtPVr8acT8GJeJn5ZOgSqiU/7eYKHxvI6xnpkvqLWEnNZYbf7g9e2ExwaKoxko1Tz+UM3li2oef6jm8kU1jz9Uc/mimscfqrl8Uc3jD9Vcvqjm8YdqLl9U8/hLNZ83qjn8pZrPG9Uc/lLN541qDn+p5vNGNYe/VPN5o5rDX6r5vFHN4YtjX0/41F15tPSv9WhleIgWd8sRrbOOaD37yUx8vOco3k48qUXr9YS0sidipNpLUEAx4nCZKFJFpFBj1d79vYDOz7fZkUdXrvD0aeTRsnwKVQFdCFZUWqqd8rJ8bf3TKDh9hpzTFJb6Rx/DYwPF4wJFl1k5ly+quXyRbblSzeWLbMuVai5fgt0Wj1PN541sy1Ut21aJrpAU0f6+0A0vK6IDEWaigxIT94M6sTolG+/vPIo3EzLxamIORSuzPFrAOQrXeS1ae5PS8NzUeHy65zDeTTiBN/efpMqdxCcnc7EspxAbM/OxLTUb22lCw6+Mlm1Ly8WWtFPYTDbx1xl5dErfp7M8DS/j0020rOw8XhYUHhso1Tz+UM3li2oef6jm8kU1jz9Uc/mimscfqrl8Uc3jD9Vcvqjm8YdqLl9U8/hDNZcvqnn8oZrLF9U8/lDN5YtqHn+o5vJFNY8/VHP5oprHH6q5fFHN4w/VXF6k52JrZh62VUA9Ib86Trdl5GN7VgG2ZRfg28OpeG/nMbyemIZX9mfirYQMjhZXi53TTs/Sf/cmpeL5qdPx2e5D+FfCcTrSSsKExON4be8xvEeHalOofJ/9dgTTNIcdjmjLPvn9KKbSRqaQj/wwZddxTNl9DFP3MBqrnfrruGKZv2hbdH38oq0v26pItqWvL9uqSLalry/bcjaF+7H7iBteRueTj3cRpz58QD15Z/cJvJKYigkH0vFWYjpFS4uVwYhWMp77ZDo+po28lZiCVw+k4rUjGXjzcCYm7U3Gu7tT8O89VMA9afjPngzNe3vS8d7edPxrH0lIxzsJaSTVP3SB3qHtsHf9YowJlmxLtuWNal4V1dhAqeZVUY0NlGpeFdXYQKnmVVGNDZRqXhXV2ECp5lVRjQ2Ual4V1dhAqeZVUY0NlH5/Lld+3tv7UjCZTOK3ENydRNtLw8T9GRSsHJLtLVopeJaixS8unkiTcrReOZiG17l0NMHbiRmYnJCJyYlZNAlPxLIwaX8WbYDQ5BMPZOHNAPD6gXqTtvUGHTIGSjWXL7ItV6q5fAl2W8H8fsi2XMm2yvEY1Vy+1Npt0W2vms+bQLflvg0e74l2vtOY1/ZzsPKpQ3nUHf7zoFu0ztDJvqQ0PDPlC0zZy49pHadIJWlPyGDvJNCRVmIyVTGZokVVpDpO3p9KMSNUxUl0lDWJJp6ooZ2bnyYFIzGTths45Vy+yLZcKOfyRbblQjmXLzVhWzROOZ83si0XtXFbzttRNcBQNj8fFFG4JlOs3jpQhHcOFOIDCphrtM4b0UrBU//5EJMXr8DrS9bgtSVryTrd0nV4lbxCJixbh5cd+OsJvIy8TOsFZi1eWuywaI0fnNavDOXcCqqxgVLNq6IaGyjVvCqqsYFSzauiGhso1bwqqrGBUs2rohobKNW8KqqxgVLNq6IaGyjVvCqqsYFSzauiGhso1bwqqrGBUs2rohobKNW8KqqxfuJ9vXfUkCXrqS/r8eqyjXht2S94Y/lWvLnsV7Idk5dtdY0WP3vwHMkoMiF+yVLMXLEGM1asI+sx42dCp/H0PZteZq0mnszQrEH8z6scVvpv+QrNdD8Z61eGal4V1dhAqeZVUY0NlGpeFdXYQKnmVVGNDZRqXhXV2ECp5lVRjQ2Ual4V1dhAqeZVUY0NlGpeFdXYQKnmVVGNDZRqXhXV2ECp5lVRjQ2Ual4V1dhAqOZkXxJtHerBjBWrMXPlGsxatR5zV2/EvFW/4Csyl5RFi3JF+L9AKYWryG5Hob1EU6RgIsUemPjFxwEqFkIIIcpQT0pKYHajRUsP1jnH/4zvjJyVK3tJl/F/xrPlnZ2j/wSD/l8IIYRwof3HqNA5/H8FSn44Xa6LSgAAAABJRU5ErkJggg==;" vertex="1" parent="1">
          <mxGeometry x="30" y="150" width="89" height="70.32" as="geometry" />
        </mxCell>
        <mxCell id="n0if_-0z3uSa2oS_CwEW-2" value="" style="image;aspect=fixed;html=1;points=[];align=center;fontSize=12;image=img/lib/azure2/databases/SQL_Server_Registries.svg;" vertex="1" parent="1">
          <mxGeometry x="790" y="130.32" width="98.71" height="90" as="geometry" />
        </mxCell>
        <mxCell id="n0if_-0z3uSa2oS_CwEW-3" value="" style="image;sketch=0;aspect=fixed;html=1;points=[];align=center;fontSize=12;image=img/lib/mscae/SQL_Servers.svg;" vertex="1" parent="1">
          <mxGeometry x="340.00000000000006" y="140" width="87.58" height="87.58" as="geometry" />
        </mxCell>
        <mxCell id="n0if_-0z3uSa2oS_CwEW-4" value="" style="sketch=0;pointerEvents=1;shadow=0;dashed=0;html=1;strokeColor=none;labelPosition=center;verticalLabelPosition=bottom;verticalAlign=top;align=center;fillColor=#505050;shape=mxgraph.mscae.oms.jobs" vertex="1" parent="1">
          <mxGeometry x="119" y="550" width="90" height="90" as="geometry" />
        </mxCell>
        <mxCell id="n0if_-0z3uSa2oS_CwEW-5" value="" style="image;aspect=fixed;html=1;points=[];align=center;fontSize=12;image=img/lib/azure2/analytics/Analysis_Services.svg;" vertex="1" parent="1">
          <mxGeometry x="418.5" y="592" width="63" height="48" as="geometry" />
        </mxCell>
        <mxCell id="n0if_-0z3uSa2oS_CwEW-7" value="" style="html=1;verticalLabelPosition=bottom;align=center;labelBackgroundColor=#ffffff;verticalAlign=top;strokeWidth=2;strokeColor=#0080F0;shadow=0;dashed=0;shape=mxgraph.ios7.icons.settings;" vertex="1" parent="1">
          <mxGeometry x="640" y="630" width="20" height="30" as="geometry" />
        </mxCell>
        <mxCell id="n0if_-0z3uSa2oS_CwEW-8" value="" style="sketch=0;html=1;aspect=fixed;strokeColor=none;shadow=0;fillColor=#3B8DF1;verticalAlign=top;labelPosition=center;verticalLabelPosition=bottom;shape=mxgraph.gcp2.scale" vertex="1" parent="1">
          <mxGeometry x="680" y="200.16" width="60" height="55.2" as="geometry" />
        </mxCell>
        <mxCell id="n0if_-0z3uSa2oS_CwEW-10" value="" style="endArrow=classic;html=1;rounded=0;exitX=1;exitY=0.5;exitDx=0;exitDy=0;" edge="1" parent="1" source="n0if_-0z3uSa2oS_CwEW-1" target="n0if_-0z3uSa2oS_CwEW-3">
          <mxGeometry width="50" height="50" relative="1" as="geometry">
            <mxPoint x="140" y="180" as="sourcePoint" />
            <mxPoint x="200" y="140" as="targetPoint" />
          </mxGeometry>
        </mxCell>
        <mxCell id="n0if_-0z3uSa2oS_CwEW-11" value="" style="sketch=0;html=1;aspect=fixed;strokeColor=none;shadow=0;align=center;fillColor=#2D9C5E;verticalAlign=top;labelPosition=center;verticalLabelPosition=bottom;shape=mxgraph.gcp2.check" vertex="1" parent="1">
          <mxGeometry x="180" y="90" width="100" height="80" as="geometry" />
        </mxCell>
        <mxCell id="n0if_-0z3uSa2oS_CwEW-12" value="Conectividad" style="rounded=0;whiteSpace=wrap;html=1;fillColor=#dae8fc;strokeColor=#6c8ebf;" vertex="1" parent="1">
          <mxGeometry x="170" y="197.57999999999998" width="100" height="30" as="geometry" />
        </mxCell>
        <mxCell id="n0if_-0z3uSa2oS_CwEW-13" value="JOB IntegraciÃ³nIva&lt;br&gt;Job Procesa" style="rounded=0;whiteSpace=wrap;html=1;" vertex="1" parent="1">
          <mxGeometry x="390" y="70" width="120" height="60" as="geometry" />
        </mxCell>
        <mxCell id="n0if_-0z3uSa2oS_CwEW-14" value="SPI_Cargas_TablasPAso" style="rounded=0;whiteSpace=wrap;html=1;" vertex="1" parent="1">
          <mxGeometry x="640" y="130.32" width="150" height="30" as="geometry" />
        </mxCell>
        <mxCell id="n0if_-0z3uSa2oS_CwEW-15" value="" style="sketch=0;outlineConnect=0;fontColor=#232F3E;gradientColor=none;fillColor=#7AA116;strokeColor=none;dashed=0;verticalLabelPosition=bottom;verticalAlign=top;align=center;html=1;fontSize=12;fontStyle=0;aspect=fixed;pointerEvents=1;shape=mxgraph.aws4.iot_device_jobs_resource;" vertex="1" parent="1">
          <mxGeometry x="424.82" y="130" width="50.36" height="61.38" as="geometry" />
        </mxCell>
        <mxCell id="n0if_-0z3uSa2oS_CwEW-16" value="PaquetesSISS" style="rounded=0;whiteSpace=wrap;html=1;" vertex="1" parent="1">
          <mxGeometry x="640" y="170.16000000000003" width="150" height="30" as="geometry" />
        </mxCell>
        <mxCell id="n0if_-0z3uSa2oS_CwEW-18" value="" style="endArrow=classic;html=1;rounded=0;" edge="1" parent="1" source="n0if_-0z3uSa2oS_CwEW-15">
          <mxGeometry width="50" height="50" relative="1" as="geometry">
            <mxPoint x="380" y="270" as="sourcePoint" />
            <mxPoint x="630" y="160" as="targetPoint" />
          </mxGeometry>
        </mxCell>
        <mxCell id="n0if_-0z3uSa2oS_CwEW-20" value="" style="curved=1;endArrow=classic;html=1;rounded=0;exitX=0.315;exitY=1.013;exitDx=0;exitDy=0;exitPerimeter=0;" edge="1" parent="1" source="n0if_-0z3uSa2oS_CwEW-8" target="n0if_-0z3uSa2oS_CwEW-15">
          <mxGeometry width="50" height="50" relative="1" as="geometry">
            <mxPoint x="650" y="270" as="sourcePoint" />
            <mxPoint x="440" y="247" as="targetPoint" />
            <Array as="points">
              <mxPoint x="650" y="320" />
              <mxPoint x="550" y="370" />
              <mxPoint x="430" y="310" />
            </Array>
          </mxGeometry>
        </mxCell>
      </root>
    </mxGraphModel>
  </diagram>
</mxfile>
